<svg id="emAgLpjs1M61" xmlns="http://www.w3.org/2000/svg" xmlns:xlink="http://www.w3.org/1999/xlink" viewBox="110 0 2100 1820" shape-rendering="geometricPrecision" text-rendering="geometricPrecision" project-id="65ca3c0608e54740a8f1d9e78b47bc89" export-id="12102fc915d1434e886adae6057bd206" cached="false">
<style><![CDATA[
#emAgLpjs1M64_ts {animation: emAgLpjs1M64_ts__ts 3800ms linear 1 normal forwards}@keyframes emAgLpjs1M64_ts__ts { 0% {transform: translate(1214.507019px,551.381763px) scale(1,1)} 68.421053% {transform: translate(1214.507019px,551.381763px) scale(1,1)} 73.684211% {transform: translate(1214.507019px,551.381763px) scale(1.2,1.2)} 78.947368% {transform: translate(1214.507019px,551.381763px) scale(1,1)} 100% {transform: translate(1214.507019px,551.381763px) scale(1,1)}} #emAgLpjs1M64 {animation: emAgLpjs1M64_c_o 3800ms linear 1 normal forwards}@keyframes emAgLpjs1M64_c_o { 0% {opacity: 0} 57.894737% {opacity: 0} 78.947368% {opacity: 1} 100% {opacity: 1}} #emAgLpjs1M65_ts {animation: emAgLpjs1M65_ts__ts 3800ms linear 1 normal forwards}@keyframes emAgLpjs1M65_ts__ts { 0% {transform: translate(1214.670441px,548.589874px) scale(1,1)} 63.157895% {transform: translate(1214.670441px,548.589874px) scale(1,1)} 68.421053% {transform: translate(1214.670441px,548.589874px) scale(1.3,1.3)} 78.947368% {transform: translate(1214.670441px,548.589874px) scale(1.3,1.3)} 84.210526% {transform: translate(1214.670441px,548.589874px) scale(1,1)} 100% {transform: translate(1214.670441px,548.589874px) scale(1,1)}} #emAgLpjs1M65 {animation: emAgLpjs1M65_c_o 3800ms linear 1 normal forwards}@keyframes emAgLpjs1M65_c_o { 0% {opacity: 0} 57.894737% {opacity: 0} 78.947368% {opacity: 1} 100% {opacity: 1}} #emAgLpjs1M66_ts {animation: emAgLpjs1M66_ts__ts 3800ms linear 1 normal forwards}@keyframes emAgLpjs1M66_ts__ts { 0% {transform: translate(1214.669006px,547.176315px) scale(1,1)} 57.894737% {transform: translate(1214.669006px,547.176315px) scale(1,1)} 63.157895% {transform: translate(1214.669006px,547.176315px) scale(1.2,1.2)} 84.210526% {transform: translate(1214.669006px,547.176315px) scale(1.2,1.2)} 89.473684% {transform: translate(1214.669006px,547.176315px) scale(1,1)} 100% {transform: translate(1214.669006px,547.176315px) scale(1,1)}} #emAgLpjs1M66 {animation: emAgLpjs1M66_c_o 3800ms linear 1 normal forwards}@keyframes emAgLpjs1M66_c_o { 0% {opacity: 0} 57.894737% {opacity: 0} 78.947368% {opacity: 1} 100% {opacity: 1}} #emAgLpjs1M67 {animation: emAgLpjs1M67_c_o 3800ms linear 1 normal forwards}@keyframes emAgLpjs1M67_c_o { 0% {opacity: 0} 57.894737% {opacity: 0} 78.947368% {opacity: 1} 100% {opacity: 1}} #emAgLpjs1M68 {animation: emAgLpjs1M68_c_o 3800ms linear 1 normal forwards}@keyframes emAgLpjs1M68_c_o { 0% {opacity: 0} 57.894737% {opacity: 0} 78.947368% {opacity: 1} 100% {opacity: 1}} #emAgLpjs1M69 {animation: emAgLpjs1M69_c_o 3800ms linear 1 normal forwards}@keyframes emAgLpjs1M69_c_o { 0% {opacity: 0} 57.894737% {opacity: 0} 78.947368% {opacity: 1} 100% {opacity: 1}} #emAgLpjs1M610 {animation: emAgLpjs1M610_c_o 3800ms linear 1 normal forwards}@keyframes emAgLpjs1M610_c_o { 0% {opacity: 0} 57.894737% {opacity: 0} 78.947368% {opacity: 1} 100% {opacity: 1}} #emAgLpjs1M611 {animation-name: emAgLpjs1M611_c_o, emAgLpjs1M611_s_do;animation-duration: 3800ms;animation-fill-mode: forwards;animation-timing-function: linear;animation-direction: normal;animation-iteration-count: 1;}@keyframes emAgLpjs1M611_c_o { 0% {opacity: 1} 57.894737% {opacity: 1} 84.210526% {opacity: 0} 100% {opacity: 0}}@keyframes emAgLpjs1M611_s_do { 0% {stroke-dashoffset: 4925.46} 21.052632% {stroke-dashoffset: 4925.46} 42.105263% {stroke-dashoffset: 0} 100% {stroke-dashoffset: 0}} #emAgLpjs1M612 {animation-name: emAgLpjs1M612_c_o, emAgLpjs1M612_s_do;animation-duration: 3800ms;animation-fill-mode: forwards;animation-timing-function: linear;animation-direction: normal;animation-iteration-count: 1;}@keyframes emAgLpjs1M612_c_o { 0% {opacity: 1} 57.894737% {opacity: 1} 84.210526% {opacity: 0} 100% {opacity: 0}}@keyframes emAgLpjs1M612_s_do { 0% {stroke-dashoffset: 4493.14} 21.052632% {stroke-dashoffset: 0} 100% {stroke-dashoffset: 0}}
]]></style>
<g transform="translate(-45.7262 70.169666)"><g><g id="emAgLpjs1M64_ts" transform="translate(1214.507019,551.381763) scale(1,1)"><path id="emAgLpjs1M64" d="M1168,1055.0582c-15.6381-1.9514-44.6808-7.6503-60-11.7734-13.4803-3.6281-38.5883-11.8377-51.5-16.839-11.1867-4.3331-34.7159-15.6027-46.5-22.2717-3.575-2.0232-8.9399-5.02758-11.92209-6.67635s-11.08214-6.79077-18-11.42668-16.17791-10.80712-20.57791-13.71378c-27.28984-18.0278-54.43566-39.05696-69.32244-53.70228-13.28527-13.06979-39.89833-44.72688-48.88897-58.15501C836.22899,852.94314,823,831.92227,823,831.43942c0-.19891-2.54883-4.54166-5.66407-9.65054-13.83894-22.6954-23.45062-41.27091-35.33525-68.28888-6.9958-15.90391-11.24715-27.11811-17.62835-46.5-4.16448-12.64894-5.37843-16.79961-10.31719-35.27587-4.59822-17.20224-11.22866-61.48901-13.19523-88.135-2.05213-27.80536-.17779-77.99865,4.0768-109.17341c1.31087-9.60512,5.73322-33.90002,8.17592-44.91572c4.15006-18.71523,14.95984-52.9724,22.53428-71.41318c1.93985-4.72275,5.09708-12.41182,7.01607-17.08682c3.47435-8.46411,15.67058-32.44337,22.99118-45.20342c2.11521-3.68688,5.60191-9.76188,7.74823-13.5c5.31584-9.25831,9.59729-15.79674,19.05831-29.10494c4.42162-6.21959,8.7143-12.33462,9.5393-13.58894c2.17669-3.30942,17.21917-21.55145,26.43452-32.05716c4.36399-4.97505,14.26399-15.37299,22-23.10654C928.38772,146.49788,972.69329,114.68096,1018,92.831086c29.7587-14.351597,62.8873-26.749489,90.5-33.8683c34.939-9.007597,80.5027-13.826684,119.5502-12.644349c25.6294.776042,47.554,3.428437,76.4498,9.248738c22.6491,4.562078,59.2517,16.182966,81,25.716575c11.8936,5.213672,35.4325,16.898516,47.776,23.71625c12.4465,6.8746,45.4618,28.38367,55.3501,36.05987c3.2306,2.50793,8.7961,6.78293,12.3676,9.5c12.3935,9.42845,43.1036,39.05475,59.6514,57.54627c12.3169,13.76364,29.9345,36.4045,40.8549,52.50384c9.9388,14.65223,21.7652,34.73982,33.452,56.81952c11.7984,22.2904,28.2813,66.03531,36.9526,98.0705c3.3155,12.24869,8.5033,37.25604,9.9576,48c3.2245,23.82139,5.1978,40.5983,6.1037,51.89522c2.1423,26.71402.7968,71.90065-2.8973,97.30333-5.6003,38.51156-10.2749,59.46397-20.0348,89.80145-13.0213,40.47502-21.5241,60.16378-44.1078,102.13468-19.4234,36.09768-35.4509,61.33925-50.7116,79.86532-9.8057,11.9038-36.7638,39.60326-47.2306,48.52941C1513.8795,940.79356,1492.2542,958,1491.6003,958c-.2992,0-4.2692,2.83191-8.8222,6.29313-11.8865,9.0363-21.7689,15.38121-51.7781,33.24385-6.7936,4.04382-38.0042,19.91472-47.5,24.15412-7.7713,3.4696-32.1113,12.5515-46,17.1639-16.5967,5.5116-45.4981,12.0816-67,15.2305-11.6189,1.7016-20.2929,2.1126-51,2.4163-31.2593.3091-39.2497.085-51.5-1.4436Z" transform="translate(-1214.507019,-551.381763)" opacity="0" fill="#d7e4e1"/></g><g id="emAgLpjs1M65_ts" transform="translate(1214.670441,548.589874) scale(1,1)"><path id="emAgLpjs1M65" d="M1218.6663,932.36334c-.091-.0752-13.6663-.42846-30.1663-.78511-28.7657-.62177-34.9038-1.16055-46-4.03773-2.75-.71306-8.375-2.04429-12.5-2.9583s-9.3-2.47576-11.5-3.47057-7.825-3.07568-12.5-4.62417c-9.606-3.18178-25.506-10.66496-32.0972-15.1062C567.04583,559.84569,1087.1576,-94.816537,1455,274.00465c20.2564,20.3103,36.8158,40.846,52.0073,64.49535c5.8716,9.14073,22.5088,40.91685,27.7493,53c9.5409,21.99817,19.0728,54.06253,24.6739,83c2.3526,12.15444,3.0048,16.57093,5.6852,38.5.5714,4.675,1.0494,20.875,1.0623,36c.019,22.34754-.3695,30.45316-2.0739,43.2618-4.8016,36.085-13.6329,70.32454-26.6596,103.36115-9.4944,24.07813-28.4444,59.09041-44.8329,82.83385-53.8063,77.95348-125.734,116.80356-167.6116,134.02066-21.2028,8.71711-46.9522,15.45277-69,18.04938-9.1755,1.08061-36.6111,2.43021-37.3337,1.8365Z" transform="translate(-1214.670441,-548.589874)" opacity="0" fill="#bacfcf"/></g><g id="emAgLpjs1M66_ts" transform="translate(1214.669006,547.176315) scale(1,1)"><path id="emAgLpjs1M66" d="M1180.1746,855.41429c-43.2693-5.23882-82.0077-19.24865-108.2368-39.14408-28.2586-21.4349-42.6126-34.37633-62.9756-56.77812-5.9166-6.5091-16.27116-19.93991-23.12243-29.99209-23.28651-34.166-40.39771-74.18938-48.73842-114-5.5799-26.63312-6.60467-37.32407-6.566-68.5.0378-30.45894,1.03727-41.34586,6.02884-65.66974c3.2669-15.91962,10.48827-41.19684,15.05227-52.68806c8.29135-20.87592,21.26908-45.72355,32.71755-62.6422c12.90895-19.07696,28.82689-37.27617,46.66599-53.354c15.0276-13.54385,21.1672-18.67285,28.3988-23.72416c2.6944-1.88201,6.6478-4.65934,8.7855-6.17184s4.0504-2.75,4.2507-2.75s3.2219-1.76483,6.7146-3.92185c9.9599-6.15098,17.0395-9.76233,35.8504-18.28736c9.625-4.36203,21.55-9.03022,26.5-10.37376c14.6728-3.98254,41.0397-8.47357,55.4401-9.44303c20.6799-1.39222,44.8244.59954,67.0599,5.532c10.0239,2.22358,28.883,7.81402,40.2909,11.94354c24.7705,8.96656,55.0288,26.14009,77.7091,44.10492c25.444,20.15393,57.5616,56.46447,70.2717,79.44554c1.3689,2.475,4.6608,8.325,7.3155,13c6.789,11.95581,17.5539,35.75476,21.2594,47c4.6411,14.08491,11.7787,43.12136,14.0522,57.16569c5.9252,36.60228,5.0728,78.19375-2.3227,113.33431-4.777,22.69865-11.7893,46.84466-17.2375,59.35542-6.1876,14.20857-8.1687,18.43897-14.0987,30.10528-13.4646,26.4898-34.1345,54.01323-58.6901,78.15028-15.7737,15.50476-30.7982,27.67683-45.5498,36.90194-17.5394,10.96851-45.051,24.07934-61.5157,29.31568-9.0375,2.87427-28.2612,7.83222-39.415,10.16549-16.4363,3.43831-55.2461,4.42023-75.8947,1.9202Z" transform="translate(-1214.669006,-547.176315)" opacity="0" fill="#92b3b5"/></g><path id="emAgLpjs1M67" d="M1531.5,1709.9976c-25.3654-1.544-66.0443-5.6962-69.6325-7.1075-1.4479-.5695-3.8367-2.2923-5.3084-3.8284-2.0151-2.1033-2.8188-4.1782-3.2548-8.4023-.4638-4.4941-1.0673-5.9293-3.0352-7.2187-1.3509-.8852-3.3647-3.6632-4.475-6.1733-1.6004-3.618-1.8868-5.7312-1.3817-10.1955.6198-5.479.5411-5.7246-2.907-9.0666-1.9492-1.8893-4.0027-5.1384-4.5633-7.2202-1.3106-4.8674.1647-10.5974,3.5467-13.7745c1.3811-1.2976,2.5112-2.789,2.5112-3.3142s-1.982-2.8093-4.4044-5.0757c-8.1811-7.6542-8.2864-17.518-.266-24.9241l4.1188-3.8034-5.1531-4.6966c-5.7111-5.2052-6.7758-6.9294-8.2038-13.2851-1.2824-5.7071.2251-12.6681,3.8173-17.627c1.5797-2.1807,5.2612-5.1562,8.5885-6.9416l5.8236-3.1249l8.0896,3.3428c25.4158,10.5025,77.2638,29.9259,84.0895,31.5018c2.75.635,10.03,3.5806,16.1778,6.5459s11.4265,5.3915,11.7307,5.3915c.837,0,40.634,15.4662,52.5915,20.4385c5.775,2.4014,27.15,10.9886,47.5,19.0827s45.775,18.2193,56.5,22.5007s27.6,10.7099,37.5,14.2858c23.4694,8.4771,26.5,9.7203,26.5,10.8707c0,1.8573-6.0175,9.6807-10.1992,13.2601-2.3244,1.9896-6.718,4.8104-9.7635,6.2683-4.7435,2.2707-7.186,2.7117-17.0373,3.0761-8.292.3066-16.6607-.2267-30-1.912-16.5943-2.0964-22.5173-2.3358-57.5-2.3237-30.3589.011-42.5451.4023-55,1.7679-18.7627,2.0572-57.0874,2.8946-77,1.6825Zm465.4573-183.687c-1.7532-1.4752-4.0637-4.7259-5.1344-7.2237-2.3411-5.4615-10.7574-19.4916-16.2488-27.0869-5.2778-7.2997-22.4495-24.9642-30.5741-31.4514-18.3692-14.6672-41.3047-26.9886-66.25-35.5908-3.7125-1.2802-6.75-2.7584-6.75-3.2849c0-2.2707,4.4475-15.5938,7.5957-22.7542c5.1699-11.7585,16.17-29.7292,22.629-36.969c2.1584-2.4192,2.8664-2.5636,13.7753-2.8095c18.5365-.4178,30.7453-3.6927,44.5-11.9366c7.6431-4.5809,17.5907-14.0259,22.7619-21.6119c4.9147-7.2096,13.7005-25.4927,17.7121-36.8584c3.6986-10.4789,8.2738-20.1661,35.7682-75.7333c21.2766-43.0007,31.513-64.0246,36.2735-74.5c1.2497-2.75,4.7282-10.4,7.7301-17c13.5586-29.8109,18.4261-41.1289,24.5135-57c10.2891-26.8256,16.3329-46.6811,21.2315-69.75c2.755-12.97444,3.8881-9.7952,3.2077,9-1.4175,39.1536-7.8405,87.7801-19.1705,145.1357-2.1623,10.9461-9.8421,41.911-13.5453,54.6143-3.6865,12.6461-12.7422,40.4469-16.9682,52.0917-17.4777,48.1604-33.4186,87.3386-47.7348,117.3186-16.7488,35.0744-22.7192,49.1621-26.702,63.0062-1.4561,5.0613-3.0679,12.4381-3.5817,16.3929-1.1878,9.1423-1.1833,30.9392.01,40.6906c2.0237,16.5591,3.0796,30.1599,2.4865,32.0285-.3445,1.0855-1.4633,2.4215-2.4862,2.969-1.4566.7795-2.5508.4139-5.0474-1.6869h-.0016Zm-333.117-158.8037c-1.1544-1.1543-22.6765-2.5248-55.3403-3.5239-34.3965-1.0521-92.2095-4.9386-104-6.9915-21.4238-3.7302-36.3555-8.4318-53.0257-16.6965-18.1105-8.9789-32.7649-19.9086-57.4965-42.883-3.6045-3.3484-7.7702-6.8851-9.2571-7.8594-1.4869-.9742-2.4558-2.1721-2.1531-2.662.7432-1.2025,12.8835-1.1294,19.5459.1176c3.7735.7063,7.7821,2.6138,13.3865,6.3698c37.8117,25.3412,69.6503,36.879,127.5,46.204c15.7376,2.5368,42.683,5.3846,51.152,5.4062c2.9627.01,11.1329,2.1504,22.5,5.9014c9.8164,3.2393,24.598,7.7919,32.848,10.1169s16.125,4.8317,17.5,5.5704l2.5,1.343-2.5833.04c-1.4209.022-2.8052-.1819-3.0764-.4531v.0001Z" opacity="0" fill="#6587a3"/><path id="emAgLpjs1M68" d="M1997,1733.9161c-53.61-5.9974-163.3069-30.5324-235.5-56.6084-100.9912-42.052-318.0895-122.172-318.0895-122.172c1.0508-1.1814,1.7258-2.289,1.5-2.4615-.2258-.1724-2.6605-1.2598-5.4105-2.4163-26.5511-11.1664-45.5427-20.4222-63.0581-30.7322-25.1002-14.7745-36.9872-23.2102-47.9469-34.0257-15.9489-15.7391-22.9094-27.9903-29.0761-51.1769-4.9295-18.5352-4.3573-41.5687,1.5891-63.9577c3.7045-13.9481,7.6345-24.6488,13.9302-37.9293c7.6252-16.0851,16.7302-27.6243,26.5618-33.6631c6.3458-3.8978,16.8681-7.7342,28.3682-10.343c11.6599-2.6451,13.5223-2.8709,12.6994-1.5394-.3027.4899.6662,1.6878,2.1531,2.662c1.4869.9743,5.6526,4.511,9.2571,7.8594c24.7316,22.9744,39.386,33.9041,57.4965,42.883c16.6702,8.2647,31.6019,12.9663,53.0257,16.6965c11.8173,2.0575,69.6431,5.9429,104.5,7.0214c32.1761.9955,44.7784,1.7793,56.5,3.5139c3.9283.5814,3.9552.5647,1.5-.932-1.375-.8381-2.0319-1.5399-1.4598-1.5594.5721-.019,9.1221,2.6301,19,5.8879c9.8779,3.2579,24.2598,7.7273,31.9598,9.9321c25.6878,7.3554,56.9048,16.0032,65.5,18.1449c4.675,1.1649,16.825,4.5319,27,7.4822s26.64,7.4074,36.5889,9.9044s19.3856,5.0331,20.9703,5.6356c2.4064.9149,3.0923.807,4.1611-.6546c1.0319-1.4112,1.2797-1.4585,1.2797-.244c0,.963,2.4346,2.3458,6.75,3.8339c24.9453,8.6022,47.8808,20.9236,66.25,35.5908c8.1246,6.4872,25.2963,24.1517,30.5741,31.4514c5.4914,7.5953,13.9077,21.6254,16.2488,27.0869c1.0707,2.4978,3.3812,5.7485,5.1344,7.2237c2.4966,2.1008,3.5908,2.4664,5.0474,1.6869c1.0229-.5475,2.1417-1.8835,2.4862-2.969.5931-1.8686-.4628-15.4694-2.4865-32.0285-1.1917-9.7514-1.1962-31.5483-.01-40.6906.5138-3.9548,2.1256-11.3316,3.5817-16.3929c3.9828-13.8441,9.9532-27.9318,26.702-63.0062c14.3162-29.98,30.2571-69.1582,47.7348-117.3186c4.226-11.6448,13.2817-39.4456,16.9682-52.0917c3.7032-12.7033,11.383-43.6682,13.5453-54.6143c11.33-57.3556,17.753-105.9821,19.1705-145.1357.6804-18.7952-.4527-21.97444-3.2077-9-4.8986,23.0689-10.9424,42.9244-21.2315,69.75-6.0874,15.8711-10.9549,27.1891-24.5135,57-3.0019,6.6-6.4804,14.25-7.7301,17-4.7605,10.4754-14.9969,31.4993-36.2735,74.5-27.4944,55.5672-32.0696,65.2544-35.7682,75.7333-4.0116,11.3657-12.7974,29.6488-17.7121,36.8584-5.1712,7.586-15.1188,17.031-22.7619,21.6119-13.7361,8.2328-25.9217,11.5065-44.5,11.9551-11.3859.2749-11.5298.3083-14.5,3.3677-1.65,1.6995-2.1556,2.0742-1.1235.8327c2.9104-3.5011,1.4962-5.3567-4.0951-5.3733-6.8358-.02-80.0635-2.9802-124.2814-5.0234-11.275-.521-36.25-1.6452-55.5-2.4981-19.25-.853-39.05-1.9657-44-2.4728-12.7876-1.3098-53.8653-3.208-61-2.8188l-6,.3273l3,1.71c4.0365,2.3007,2.6603,2.2182-3.5-.21-2.7907-1.1-7.4199-2.0053-10.287-2.0118-8.9593-.02-35.539-2.7991-51.713-5.4062-38.8148-6.2567-67.8894-14.2226-89.7224-24.5823-11.7247-5.5634-26.208-13.8597-37.7776-21.6398-4.8375-3.253-9.7789-5.7278-12.5-6.2602l-4.5-.8806l3.75-.1095c2.3381-.068,3.75-.5951,3.75-1.3992c0-2.844-17.2812-10.4721-34.5-15.2285-7.0768-1.9549-15.0988-5.7906-18.2398-8.7214-1.2319-1.1495-3.201-4.6033-4.3759-7.6752-3.1338-8.1936-2.9452-19.5872.5543-33.49c3.6038-14.3173,7.4518-24.28,15.4722-40.0577c4.5202-8.8923,8.297-14.8073,12.028-18.8377c6.8039-7.3497,14.0931-11.6778,19.6888-11.6905c6.0425-.014,6.7983,1.4231,5.9247,11.2634-.4017,4.5249-.8028,9.5772-.8913,11.2272l-.161,3l12,.1108c15.9292.147,31.1267,3.4685,47.6422,10.4124c20.3325,8.5488,37.6679,19.0162,53.6007,32.3651c9.0046,7.5443,29.8401,28.5719,36.5212,36.858c2.7489,3.4093,4.7131,4.8464,7.2828,5.3285c6.0062,1.1267,30.7117-1.5051,62.4531-6.6529c15.0482-2.4406,73.8761-13.4677,83-15.5581c38.9012-8.9129,66.7874-16.4485,87.5-23.6449c30.4209-10.5695,37.8623-12.9956,46.5-15.1605c5.225-1.3095,11.525-2.6787,14-3.0427s5.2326-.8668,6.1281-1.1174c.9568-.2678,2.9189-3.8759,4.7588-8.7508c1.722-4.5623,7.4029-16.5869,12.6244-26.7213c22.0858-42.8668,38.5344-76.5574,43.7905-89.6933c3.0902-7.7229,7.4153-20.7222,9.6114-28.8873c12.8047-47.60784,13.5365-50.02623,28.5476-94.3456c6.4268-18.975,13.2358-39.78953,15.1311-46.2545c4.6132-15.73637,11.5096-33.36949,17.1091-43.7455c8.2838-15.35031,14.9126-23.08977,33.6833-39.32678c4.1667-3.6043,5.8642-5.88237,6.7022-8.99457c2.2353-8.30123-2.712-20.90827-14.9823-38.17865-3.9076-5.5-9.1584-14.05-11.6684-19-3.7691-7.43308-5.0746-11.57624-7.4985-23.79732-1.6142-8.13853-3.5651-16.01353-4.3354-17.5-2.2162-4.27663-6.2828-8.16843-10.3512-9.90627-3.0666-1.30993-8.2193-1.62613-28.2507-1.73357-20.6706-.11088-25.1926-.40266-28.9313-1.86675-6.5966-2.58325-11.0516-6.42667-13.4315-11.58762-1.8342-3.97763-2.093-6.18267-1.8908-16.10847.2328-11.42265.21-11.54875-3.3924-18.7487l-3.6267-7.2487l1.6363-4.28473c.9-2.35661,1.6239-4.94469,1.6086-5.7513-.015-.80661-1.3653-3.23423-3-5.39471s-2.9722-4.50735-2.9722-5.21527s1.35-3.41586,3-6.01764c1.8333-2.89088,3-6.06665,3-8.16631c0-3.60378-2.1413-6.09256-13.4969-15.68725-4.3212-3.65103-4.7969-4.4872-5.2529-9.23312-.4078-4.24421-.019-6.20417,2.0815-10.49779c1.4206-2.9036,5.7529-9.5487,9.6274-14.76688c7.9919-10.76351,11.3184-17.1423,12.9263-24.78682c1.839-8.74355,1.373-32.11486-.9208-46.17307-2.7743-17.0034-2.1245-19.87955,8.3086-36.77889c2.4622-3.98815,6.1517-11.86315,8.1988-17.5s5.0285-13.20971,6.6251-16.82858s2.9029-6.91535,2.9029-7.32552s1.8566-3.97429,4.1258-7.92025c5.1378-8.93432,12.4237-16.65541,20.8742-22.12095c24.293-15.7121,70.2128-24.58037,104.3237-20.14752c38.2585,4.97186,68.9876,18.20422,90.5154,38.97718c7.8774,7.60122,13.1599,15.22301,18.7089,26.99421c8.6697,18.39123,11.951,32.68558,12.9979,56.62261c1.2051,27.55664-1.7641,48.18252-11.7323,81.5-10.5435,35.24018-13.4541,48.25556-14.859,66.44516-1.1458,14.83442-.582,23.16751,2.71,40.05484c4.6707,23.95913,8.0065,32.97688,20.9006,56.5c14.6932,26.80532,20.322,38.08135,25.4584,51c5.7886,14.55883,15.9422,43.10616,18.3174,51.5c3.7177,13.13832,8.162,36.58742,14.6887,77.5c5.9851,37.51778,8.368,87.19185,5.5887,116.5-.8606,9.075-2.442,23.25-3.5142,31.5-10.9683,84.3913-17.0613,187.0235-15.7325,265c.3281,19.25,1.0432,41.3,1.5891,49s1.6766,23.675,2.5127,35.5c1.5678,22.1723,2.0531,27.5922,5.4982,61.4094c1.145,11.2391,2.0283,27.0438,2.0283,36.2919c0,13.7142-.4233,18.4523-2.5988,29.0906-3.2928,16.1012-8.9725,33.2077-16.3322,49.1896-6.4192,13.9395-20.507,38.4832-28.3514,49.3936-8.6286,12.0012-24.8728,30.617-35.8161,41.0454-15.4626,14.735-26.0734,23.2727-42.8604,34.4866-23.6666,15.8096-41.6144,23.6762-65.4287,28.6776-9.2346,1.9394-15.9139,2.6316-28.1124,2.9131-8.8.2031-19.825-.059-24.5-.5817h.0016Zm-542.8422-497.0006c1.0132-.5422,1.8323-1.7575,1.8202-2.7007-.043-3.38-3.8384-9.799-8.6042-14.553-3.7861-3.7768-8.6433-6.6898-22.1394-13.2774-13.9249-6.797-18.399-9.5054-22.9917-13.9185-3.1363-3.0136-6.1497-5.3302-6.6964-5.148-1.3468.4489-5.0875,7.1055-11.0067,19.5862-3.5858,7.5609-5.0437,11.9335-5.3346,16-.3307,4.6226-.02,6.0777,1.7856,8.3659c2.8211,3.5747,6.626,5.5005,13.2126,6.6875c6.6173,1.1925,57.4295.3094,59.9546-1.042ZM1872,1418c0-.7333.3-1.0333.6667-.6667s.3666.9667,0,1.3334-.6667.0666-.6667-.6667Zm1.0789-3.5833c.048-1.165.285-1.4019.6042-.6042.2889.7219.2534,1.5844-.079,1.9167s-.5687-.2584-.5253-1.3125ZM1874,1411c0-.7333.3-1.0333.6667-.6667s.3666.9667,0,1.3334-.6667.0666-.6667-.6667Zm1-3c0-.7333.3-1.0333.6667-.6667s.3666.9667,0,1.3334-.6667.0666-.6667-.6667Zm1.0306-2.5c0-.55.4362-1.675.9694-2.5s.9694-1.05.9694-.5-.4362,1.675-.9694,2.5-.9694,1.05-.9694.5Zm1.9694-5c0-.275.225-.5.5-.5s.5.225.5.5-.225.5-.5.5-.5-.225-.5-.5Zm1.0709-2c0-.55.6431-2.125,1.4291-3.5s1.4291-2.05,1.4291-1.5-.6431,2.125-1.4291,3.5-1.4291,2.05-1.4291,1.5Zm2.9291-7c0-.275.225-.5.5-.5s.5.225.5.5-.225.5-.5.5-.5-.225-.5-.5Zm1.5-2.5c.3399-.55.843-1,1.118-1s.2219.45-.118,1-.843,1-1.118,1-.2219-.45.118-1Zm1.5-2.5c0-.275.225-.5.5-.5s.5.225.5.5-.225.5-.5.5-.5-.225-.5-.5Zm2.5-4.5c.8532-1.65,1.7764-3,2.0514-3s-.1982,1.35-1.0514,3-1.7764,3-2.0514,3s.1982-1.35,1.0514-3Zm3.4702-5.9443c.5723-1.0694,1.5348-2.2498,2.1389-2.6231.6041-.3734.3249.5016-.6204,1.9443-2.0016,3.0548-3.0381,3.5182-1.5185.6788ZM1894.5,1371c.3399-.55.843-1,1.118-1s.2219.45-.118,1-.843,1-1.118,1-.2219-.45.118-1Zm2-3c.3399-.55.843-1,1.118-1s.2219.45-.118,1-.843,1-1.118,1-.2219-.45.118-1Zm-234.1667-3.6667c.3667-.3666.9667-.3666,1.3334,0s.067.6667-.6667.6667c-.7333,0-1.0333-.3-.6667-.6667Zm-3.5208-1.0164c.7219-.2889,1.5844-.2534,1.9167.079s-.2584.5687-1.3125.5253c-1.165-.048-1.4019-.285-.6042-.6042Zm-3.4792-.9836c.3667-.3666.9667-.3666,1.3334,0s.067.6667-.6667.6667c-.7333,0-1.0333-.3-.6667-.6667Zm-3.5208-1.0164c.7219-.2889,1.5844-.2534,1.9167.079s-.2584.5687-1.3125.5253c-1.165-.048-1.4019-.285-.6042-.6042Zm-3.4792-.9836c.3667-.3666.9667-.3666,1.3334,0s.067.6667-.6667.6667c-.7333,0-1.0333-.3-.6667-.6667Zm-3.5208-1.0164c.7219-.2889,1.5844-.2534,1.9167.079s-.2584.5687-1.3125.5253c-1.165-.048-1.4019-.285-.6042-.6042Zm-3.4792-.9836c.3667-.3666.9667-.3666,1.3334,0s.067.6667-.6667.6667c-.7333,0-1.0333-.3-.6667-.6667ZM1635.5,1357c-1.2606-.5417-1.4455-.8594-.5-.8594.825,0,2.4.3867,3.5.8594c1.2606.5417,1.4455.8594.5.8594-.825,0-2.4-.3867-3.5-.8594Zm-4.1667-1.6667c.3667-.3666.9667-.3666,1.3334,0s.067.6667-.6667.6667c-.7333,0-1.0333-.3-.6667-.6667Zm-3-1c.3667-.3666.9667-.3666,1.3334,0s.067.6667-.6667.6667c-.7333,0-1.0333-.3-.6667-.6667ZM1622.5,1353c-1.2606-.5417-1.4455-.8594-.5-.8594.825,0,2.4.3867,3.5.8594c1.2606.5417,1.4455.8594.5.8594-.825,0-2.4-.3867-3.5-.8594Zm-4.1667-1.6667c.3667-.3666.9667-.3666,1.3334,0s.067.6667-.6667.6667c-.7333,0-1.0333-.3-.6667-.6667Zm-3-1c.3667-.3666.9667-.3666,1.3334,0s.067.6667-.6667.6667c-.7333,0-1.0333-.3-.6667-.6667Zm-3-1c.3667-.3666.9667-.3666,1.3334,0s.067.6667-.6667.6667c-.7333,0-1.0333-.3-.6667-.6667ZM1387.25,1285.2837c1.5125-.2291,3.9875-.2291,5.5,0s.275.4166-2.75.4166-4.2625-.1874-2.75-.4166Z" opacity="0" fill="#89a3bc"/><path id="emAgLpjs1M69" d="M661.5,1689.5759c-6.55651-1.6444-12.11577-4.0578-16.8018-7.2941-4.08918-2.8241-11.6982-11.7692-11.6982-13.7524c0-.6651,1.9125-1.7732,4.25-2.4625c7.22201-2.1295,14.90858-4.7241,23.25-7.8479c4.4-1.6478,13.85-5.1039,21-7.6802s14.35-5.2921,16-6.0351s6.6-2.6695,11-4.2812s18.575-7.4362,31.5-12.9435s25.219-10.5684,27.32001-11.2468s4.06971-1.8842,4.3749-2.6795s3.45201-2.7597,6.99294-4.3652s8.09722-4.2223,10.1251-5.8151c5.38424-4.229,71.68269-36.7625,92.68705-45.4828c25.51775-10.594,43.54298-17.1592,54.24964-19.759c9.17216-2.2271,9.27977-2.2299,12.84486-.3383c5.64328,2.9944,9.09592,7.5995,10.39716,13.8675c1.86309,8.9745-.82712,16.6756-7.95717,22.7787-2.21897,1.8993-4.03449,3.9472-4.03449,4.5509s1.39283,1.9105,3.09517,2.9041c3.78291,2.2079,6.90483,7.9947,6.90483,12.7988c0,5.2071-2.14127,9.5087-6.84713,13.7551-2.28408,2.0611-4.1451,4.0861-4.13559,4.5.01.4139,1.07654,1.7565,2.3712,2.9836c3.48321,3.3013,4.80189,12.079,2.49153,16.5847-.616,1.2014-2.45064,3.5915-4.07699,5.3113-2.841,3.0044-2.90853,3.2888-1.72172,7.25c1.65618,5.5278.0813,10.6581-5.11482,16.6617-3.07376,3.5515-3.96732,5.4133-3.97022,8.2721-.005,4.8209-3.21874,9.9664-7.28648,11.666-1.78553.746-6.61318,1.6705-10.7281,2.0544s-11.75668,1.5681-16.98168,2.6315c-12.13446,2.4698-42.0522,4.7908-62,4.81-9.89694.01-21.46455-.7418-32-2.0786-30.43741-3.8621-85.81328-3.5253-113.91287.6929-11.3432,1.7028-24.77232,1.6981-31.58713-.011v-.0001ZM416.9078,1498.1264l-2.31376-1.8735l2.27975-11.8765c6.08148-31.6815,6.35351-33.7691,6.43435-49.3764.0901-17.3914-1.25038-26.1291-6.80783-44.3765-3.96238-13.01-9.87436-27.3955-25.94188-63.1235-22.7396-50.5642-41.28477-99.871-57.73405-153.5-2.78352-9.075-5.70604-18.525-6.4945-21s-3.68215-13.5-6.43044-24.5-6.06858-24.275-7.37841-29.5c-2.86363-11.4232-4.68874-20.6294-8.00875-40.3978-7.93139-47.2259-13.39098-92.83795-10.58909-88.46629.57667.89975,2.8883,8.77475,5.13696,17.5c6.45888,25.06179,16.5139,53.37639,28.71628,80.86409c4.39483,9.9,9.20842,20.925,10.69687,24.5c3.15757,7.5839,31.56969,65.0127,37.59999,76c2.26398,4.125,5.86122,10.875,7.99386,15c4.89212,9.4624,10.25281,19.1274,14.01334,25.265c1.60573,2.6208,2.91951,4.9653,2.91951,5.2102c0,.2448,3.15,6.1375,7,13.095c3.85,6.9574,7,12.8336,7,13.0582s2.75574,6.1375,6.12386,13.1399s8.23074,17.4567,10.80581,23.2317c20.72904,45.2273,48.23997,54.3222,94.12297,56.3078l6.33924,10.5961c3.48658,5.8279,8.40196,14.4211,10.92308,19.0961c4.50307,8.3502,11.2642,26.7607,11.87462,32.3344.28712,2.6217-.13995,3.01-5.68958,5.1734-3.3,1.2863-10.05,3.766-15,5.5102-13.6072,4.7949-35.72296,15.8701-48.02036,24.0478-7.49992,4.9874-14.64857,10.9671-22.5563,18.8678-12.68899,12.6778-20.97127,22.7047-30.17494,36.5312-9.86856,14.8255-12.09819,16.5018-16.8406,12.6616Zm226.89847-122.0922c2.36844-1.1,13.84344-4.5502,25.5-7.6671s35.36873-10.0689,52.69373-15.4488s38.52503-11.8294,47.11118-14.3323s24.78614-7.676,36-11.4959c19.61184-6.6806,21.0176-7.007,36.88882-8.5647c9.075-.8906,21.63754-2.5154,27.91675-3.6106c13.7552-2.3992,39.21505-8.8378,51.58325-13.0451c13.23305-4.5015,29.07126-12.5724,45.80537-23.3417c8.14295-5.2404,15.03069-9.528,15.30609-9.528s3.22166-1.35,6.54725-3c4.81828-2.3906,7.34606-3,12.44389-3c3.5186,0,6.3974.2741,6.3974.6091c0,1.6896-23.15735,25.499-30.5,31.3587-13.95525,11.1368-39.49304,23.9355-63.5,31.824-15.76589,5.1806-49.04138,14.2281-52.28155,14.2153-.97985,0-4.50882.9117-7.84215,2.0346-6.39571,2.1545-23.83028,5.4067-50.3763,9.397-8.8,1.3228-24.775,3.7823-35.5,5.4656s-25.125,3.738-32,4.566c-25.31794,3.0494-64.66289,9.1914-84,13.1129-12.52396,2.5399-12.71394,2.5503-8.19373.451Z" opacity="0" fill="#ce533c"/><path id="emAgLpjs1M610" d="M394.5,1713.8514c-15.03956-.9038-26.36979-3.2062-41.81901-8.498-31.79847-10.8918-61.05213-30.7105-94.22129-63.8329-19.05713-19.0302-37.42122-42.9004-50.79169-66.0205-8.87427-15.3453-19.79877-41.9895-23.78081-58-3.1907-12.8288-3.53162-32.0224-1.02132-57.5c3.83315-38.9034,5.12729-56.6887,9.09562-125c1.87321-32.2459,2.30375-69.9373,1.12512-98.5-1.32225-32.0429-4.34042-79.8917-6.65465-105.5-2.39585-26.5114-8.13416-76.4891-10.88223-94.7785-4.39656-29.2607-5.86421-51.8484-5.21244-80.2215.67298-29.2958,3.04122-53.74161,8.05362-83.13222c6.15545-36.0929,16.10356-72.53185,28.52111-104.46993c3.66838-9.43511,17.26094-37.4,22.92342-47.16192c7.67758-13.23586,23.01424-44.87676,25.57366-52.76073c4.56901-14.07428,5.6771-21.86168,6.25731-43.9752.42821-16.32052.19133-23.56257-1.06306-32.5-1.68444-12.00154-6.58501-31.39301-13.5204-53.5-4.58649-14.61974-8.24408-30.14512-11.296-47.94821-2.53509-14.78817-2.73933-37.7571-.45086-50.70343c1.81726-10.2806,6.39363-24.36532,10.74531-33.07087c8.33344-16.6711,24.39887-35.97511,36.71712-44.11883c13.14735-8.69184,33.43186-17.86431,50.38564-22.7839c13.95032-4.04807,28.24917-5.83188,46.93484-5.85524c17.43092-.0218,27.42571,1.36641,44.28323,6.15058c16.21332,4.60134,28.6038,9.9102,37.95662,16.26298c15.30037,10.39259,22.96026,21.44128,30.63943,44.19455c3.44749,10.21488,7.47931,19.71891,11.31146,26.66405c3.27502,5.93542,6.55035,12.46042,7.27852,14.5c1.91319,5.35879,1.70373,13.19506-.70149,26.24376-1.59304,8.64247-1.96811,13.5569-1.52371,19.96456.69277,9.98901,5.36828,29.58609,8.58894,36c1.24278,2.475,4.66529,7.67193,7.60556,11.54873C534.48229,547.31615,538,553.83726,538,558.61445c0,5.19147-2.49342,8.42133-11.41699,14.78907-3.48796,2.48895-6.62103,5.25317-6.96238,6.14271-1.28378,3.3455-.53819,8.68294,1.87937,13.45377c1.375,2.71343,2.5,5.63312,2.5,6.4882s-1.16818,3.31993-2.59597,5.47745c-2.37186,3.58413-2.49157,4.23907-1.38672,7.5868c1.58914,4.81513.69449,9.77953-2.67395,14.83772-2.53559,3.80756-2.79712,5.17628-3.55602,18.60983-.67273,11.90837-1.21844,15.30404-3.05324,18.99855-2.34771,4.72733-6.56858,8.14693-12.61647,10.22143-2.52488.86607-11.79477,1.24681-30.68873,1.26046l-27.07111.0196-4.26727,2.82267c-2.73348,1.80812-4.93039,4.32414-6.11219,7-1.0147,2.29753-2.57829,9.48864-3.47464,15.98023s-2.22511,13.49038-2.95279,15.55285c-2.46097,6.97513-7.31545,15.58963-16.90261,29.99448-12.9467,19.45262-16.84114,31.00422-13.29385,39.43189.74494,1.76983,3.55744,5.2421,6.25,7.71615c20.32709,18.67746,27.97844,29.06051,40.89969,55.50173c12.05139,24.66118,13.14578,27.79297,36.69182,105c8.55374,28.04752,8.53966,27.99647,14.89032,53.99416c2.82062,11.5468,6.44913,24.3189,8.06335,28.3825c3.2055,8.0693,23.74431,50.418,40.55669,83.6233c6.18716,12.2199,12.7959,27.0624,15.80667,35.5c5.68794,15.9402,6.53331,16.9582,14.10603,16.9853c10.75253.038,31.40705,5.0218,51.88099,12.5174c29.05088,10.6357,68.23667,21.853,106.5,30.4867c17.325,3.9092,38.7,8.8491,47.5,10.9776c33.21637,8.034,66.02802,13.8702,70.98487,12.6262c1.4346-.3601,5.43544-4.3672,9.88939-9.9048c4.11404-5.1151,13.39798-15.017,20.63096-22.0044c9.40368-9.0844,16.76162-15.0962,25.82283-21.0988c22.04829-14.6057,41.13639-24.2121,58.08245-29.2309c6.66008-1.9725,11.69747-2.667,22.42575-3.0921c9.68594-.3837,13.97947-.9214,14.31374-1.7925.26262-.6843-.25426-4.7825-1.14863-9.107s-1.34884-9.3455-1.00994-11.1579c.81146-4.3396,4.38858-5.8416,9.95918-4.1816c10.9726,3.2698,18.0476,11.8309,30.1205,36.4474c9.7293,19.838,13.4289,29.7995,15.9384,42.9151c2.7471,14.3578,1.4166,23.4659-4.3673,29.897-4.5535,5.063-12.058,8.5249-28.5581,13.1742-7.0257,1.9797-14.5314,4.4959-16.6791,5.5916-3.87646,1.9776-5.05305,4.3216-2.655,5.2892.6875.2774-.1663.5399-1.89738.5834-1.73105.043-5.86831,1.4289-9.19391,3.0789s-6.27186,3-6.54725,3-7.16314,4.2876-15.30609,9.528c-16.73411,10.7693-32.57232,18.8402-45.80537,23.3417-12.35349,4.2023-37.81439,10.6428-51.58325,13.0484-6.27921,1.0971-19.06675,2.7429-28.41675,3.6573-10.31418,1.0087-18.94298,2.393-21.9404,3.5199-2.71721,1.0215-5.15471,1.6429-5.41666,1.381s.0487-.4763.69039-.4763s1.16667-.675,1.16667-1.5-.3375-1.4952-.75-1.4893c-8.45237.1206-73.62888,3.1053-74.09494,3.3931-.36028.2225-14.38006.9035-31.15506,1.5133s-39.95,1.5591-51.5,2.1095-44.4,1.8961-73,2.9905-53.27829,2.2579-54.84065,2.5857c-2.30587.4837-2.73697,1.0008-2.28994,2.7466l.0919,2.1998-1.25128-2.1771c-1.2331-2.1454-3.01988-2.1833-15.71006-2.719-19.91511-.8408-31.47112-4.4046-46.76369-14.4215-14.06623-9.2137-24.22028-21.9753-32.80664-41.2316-2.57507-5.775-7.43768-16.2293-10.80581-23.2317s-6.12383-12.9154-6.12383-13.1399-3.15-6.1008-7-13.0582c-3.85-6.9575-7-12.8502-7-13.095c0-.2449-1.31378-2.5894-2.91951-5.2102-3.76053-6.1376-9.12122-15.8026-14.01334-25.265-2.13264-4.125-5.72988-10.875-7.99386-15-6.0303-10.9873-34.44242-68.4161-37.59999-76-1.48845-3.575-6.30204-14.6-10.69687-24.5-12.20238-27.4877-22.2574-55.8023-28.71628-80.86409-2.24866-8.72525-4.56029-16.60025-5.13696-17.5-2.80189-4.37166,2.6577,41.24039,10.58909,88.46629c3.32001,19.7684,5.14512,28.9746,8.00875,40.3978c1.30983,5.225,4.63011,18.5,7.37841,29.5s5.64199,22.025,6.43044,24.5s3.71098,11.925,6.4945,21c16.44928,53.629,34.99445,102.9358,57.73405,153.5c16.06752,35.728,21.9795,50.1135,25.94188,63.1235c5.55745,18.2474,6.89792,26.9851,6.80783,44.3765-.0808,15.6073-.35287,17.6949-6.43435,49.3764l-2.27975,11.8765l2.31376,1.8735c4.74241,3.8402,6.97204,2.1639,16.8406-12.6616c9.20367-13.8265,17.48595-23.8534,30.17494-36.5312c7.90773-7.9007,15.05638-13.8804,22.5563-18.8678c12.29789-8.178,34.41399-19.2533,48.02036-24.0476c4.95-1.7441,11.75171-4.2355,15.11491-5.5364s6.9632-2.1443,8-1.8743s7.96009-1.1344,15.38509-3.1208s15.75-4.2117,18.5-4.9451s12.99504-3.6522,22.76675-6.4862c3.48272-1.0101,44.16216-12.2423,121.73325-21.5851c6.875-.828,21.275-2.8827,32-4.566s26.7-4.1428,35.5-5.4656c26.54602-3.9903,43.98059-7.2425,50.3763-9.397c3.33333-1.1229,6.8623-2.0385,7.84215-2.0346c3.24017.013,36.51566-9.0347,52.28155-14.2153c24.00696-7.8885,49.54475-20.6872,63.5-31.824c7.15958-5.7136,30.5-29.6627,30.5-31.2954c0-.3001-1.4625-.7646-3.25-1.0321s1.925-.3156,8.25-.1068c14.0476.4636,28.6237,3.9762,37.8244,9.1152c11.1631,6.235,23.5583,20.3289,32.9772,37.4965c3.7477,6.8308,12.3474,27.2634,14.6698,34.8548c6.0732,19.8523,7.4863,27.983,7.5871,43.6553.1092,16.9631-2.7558,32.0414-9.2808,48.8447-8.2941,21.3591-17.5127,34.6-31.2777,44.925-7.6822,5.7623-33.8962,21.1968-50.705,29.8543-15.41368,7.939-26.88286,12.1545-47.295,17.3832-9.9,2.536-18.41687,4.9888-18.92637,5.4506-.55265.5009-.14922,1.7233,1,3.03l1.92637,2.1903-3.18079-1.8414c-3.11619-1.804-3.37006-1.7955-12.5.4216-10.77244,2.6159-28.75722,9.1636-54.31921,19.776-21.00436,8.7203-87.30281,41.2538-92.68705,45.4828-2.02788,1.5928-6.58417,4.2096-10.1251,5.8151s-6.68775,3.5699-6.99294,4.3652-2.27389,2.0011-4.3749,2.6795-14.39501,5.7394-27.32001,11.2468-27.1,11.3319-31.5,12.9435-9.35,3.5382-11,4.2812-8.85,3.4588-16,6.0351-16.6,6.0324-21,7.6802c-8.34142,3.1238-16.02799,5.7184-23.25,7.8479-2.3375.6893-4.25,1.635-4.25,2.1016s-.7875.3614-1.75-.2338c-1.36487-.8441-6.37157.2796-22.75,5.1061-32.47291,9.5694-36.16898,10.5891-65,17.9335-46.85871,11.9368-93.10047,20.6586-119.5,22.5393-13.84335.9862-17.93224,1.033-29.5.3378Zm622.2204-499.1258c1.7712-.9605,3.734-2.7062,4.3619-3.8794.6326-1.1821.9475-4.4731.7063-7.382-.3279-3.954-2.3168-9.0994-8.0618-20.8566-4.1946-8.5842-8.1484-15.6076-8.7864-15.6076-.6379,0-3.698,2.5884-6.80012,5.7521-4.84969,4.9458-7.3924,6.513-18.14028,11.1807-14.65342,6.3638-21.27671,10.3322-25.74386,15.4248-3.5501,4.0471-7.25614,10.7091-7.25614,13.0435c0,.8145.5625,1.8449,1.25,2.2899c1.78212,1.1534,22.98966,2.0328,45.75,1.8971c16.5107-.098,19.9937-.384,22.7204-1.8625ZM949.32735,1538.5c-905.773771-1537.424086-905.773771-1537.424086,0,0ZM719.5,1353c.275,0,.5.225.5.5s-.225.5-.5.5c-.65297,0-.65297-1,0-1Zm2.83333-.6667c.36667-.3666.96667-.3666,1.33334,0s.0667.6667-.66667.6667-1.03333-.3-.66667-.6667Zm3-1c.36667-.3666.96667-.3666,1.33334,0s.0667.6667-.66667.6667-1.03333-.3-.66667-.6667Zm3-1c.36667-.3666.96667-.3666,1.33334,0s.0667.6667-.66667.6667-1.03333-.3-.66667-.6667ZM732,1349.5c0-.275.225-.5.5-.5s.5.225.5.5-.225.5-.5.5-.5-.225-.5-.5Zm3-1c0-.275.225-.5.5-.5s.5.225.5.5-.225.5-.5.5-.5-.225-.5-.5Zm3.33333-1.1667c.36667-.3666.96667-.3666,1.33334,0s.0667.6667-.66667.6667-1.03333-.3-.66667-.6667Zm3-1c.36667-.3666.96667-.3666,1.33334,0s.0667.6667-.66667.6667-1.03333-.3-.66667-.6667ZM745,1345.5c0-.275.225-.5.5-.5s.5.225.5.5-.225.5-.5.5-.5-.225-.5-.5Zm3-1c0-.275.225-.5.5-.5s.5.225.5.5-.225.5-.5.5-.5-.225-.5-.5Zm3-1c0-.275.225-.5.5-.5s.5.225.5.5-.225.5-.5.5-.5-.225-.5-.5Zm4-1c0-.275.225-.5.5-.5s.5.225.5.5-.225.5-.5.5-.5-.225-.5-.5Zm3-1c0-.275.225-.5.5-.5s.5.225.5.5-.225.5-.5.5-.5-.225-.5-.5Zm3-1c0-.275.225-.5.5-.5s.5.225.5.5-.225.5-.5.5-.5-.225-.5-.5Zm4-1c0-.275.225-.5.5-.5s.5.225.5.5-.225.5-.5.5-.5-.225-.5-.5Zm4-1c0-.275.225-.5.5-.5s.5.225.5.5-.225.5-.5.5-.5-.225-.5-.5Zm3-1c0-.275.225-.5.5-.5s.5.225.5.5-.225.5-.5.5-.5-.225-.5-.5Zm3-1c0-.275.225-.5.5-.5s.5.225.5.5-.225.5-.5.5-.5-.225-.5-.5Zm4-1c0-.275.225-.5.5-.5s.5.225.5.5-.225.5-.5.5-.5-.225-.5-.5Zm3-1c0-.275.225-.5.5-.5s.5.225.5.5-.225.5-.5.5-.5-.225-.5-.5Zm3-1c0-.275.225-.5.5-.5s.5.225.5.5-.225.5-.5.5-.5-.225-.5-.5Zm3-1c0-.275.225-.5.5-.5s.5.225.5.5-.225.5-.5.5-.5-.225-.5-.5Zm3-1c0-.275.225-.5.5-.5s.5.225.5.5-.225.5-.5.5-.5-.225-.5-.5Zm3-1c0-.275.225-.5.5-.5s.5.225.5.5-.225.5-.5.5-.5-.225-.5-.5Zm3-1c0-.275.225-.5.5-.5s.5.225.5.5-.225.5-.5.5-.5-.225-.5-.5Zm3-1c0-.275.225-.5.5-.5s.5.225.5.5-.225.5-.5.5-.5-.225-.5-.5Zm3-1c0-.275.225-.5.5-.5s.5.225.5.5-.225.5-.5.5-.5-.225-.5-.5Zm3-1c0-.275.225-.5.5-.5s.5.225.5.5-.225.5-.5.5-.5-.225-.5-.5Zm3-1c0-.275.225-.5.5-.5s.5.225.5.5-.225.5-.5.5-.5-.225-.5-.5Zm3-1c0-.275.225-.5.5-.5s.5.225.5.5-.225.5-.5.5-.5-.225-.5-.5Z" opacity="0" fill="#e47459"/><path id="emAgLpjs1M611" d="M2052.0426,356.35521c-31.9731-1.05741-69.7885,7.45113-91.0449,21.19922-8.4505,5.46554-15.7352,13.18482-20.873,22.11914-2.2692,3.94596-4.127,7.51169-4.127,7.92187s-1.3057,3.70536-2.9023,7.32422-4.5778,11.19323-6.625,16.83008-5.737,13.51185-8.1992,17.5c-10.4331,16.89934-11.0829,19.77395-8.3086,36.77735c2.2938,14.05821,2.7608,37.43027.9218,46.17382-1.6079,7.64452-4.9358,14.0236-12.9277,24.78711-3.8745,5.21818-8.2064,11.86203-9.627,14.76563-2.1005,4.29362-2.4898,6.25383-2.082,10.49804.456,4.74592.9327,5.58335,5.2539,9.23438c11.3556,9.59469,13.4961,12.08372,13.4961,15.6875c0,2.09966-1.1667,5.27514-3,8.16602-1.65,2.60178-3,5.30965-3,6.01757s1.338,3.05437,2.9727,5.21485s2.985,4.58792,3,5.39453-.7075,3.39534-1.6075,5.75195l-1.6367,4.2832l3.627,7.25c3.6024,7.19995,3.6254,7.3254,3.3926,18.74805-.2022,9.9258.056,12.13175,1.8906,16.10938c2.3799,5.16095,6.835,9.00464,13.4316,11.58789c3.7387,1.46409,8.2591,1.75435,28.9297,1.86523c20.0314.10744,25.1854.42445,28.252,1.73438c4.0684,1.73784,8.1353,5.62962,10.3515,9.90625.7703,1.48647,2.7198,9.36147,4.334,17.5c2.4239,12.22108,3.729,16.36379,7.4981,23.79687c2.51,4.95,7.7623,13.5,11.6699,19c12.2703,17.27038,17.2177,29.87846,14.9824,38.17969-.838,3.1122-2.5364,5.38984-6.7031,8.99414-18.7707,16.23701-25.3998,23.97586-33.6836,39.32617-5.5995,10.37601-12.4962,28.00973-17.1094,43.7461-1.8953,6.46497-8.704,27.2789-15.1308,46.2539-15.0111,44.31937-15.7422,46.73786-28.5469,94.34566-2.1961,8.1651-6.5212,21.1639-9.6114,28.8868-5.2561,13.1359-21.7052,46.8265-43.791,89.6933-5.2215,10.1344-10.903,22.1604-12.625,26.7227-1.8399,4.8749-3.801,8.4822-4.7578,8.75-.8955.2506-3.6539.7532-6.1289,1.1172s-8.775,1.7334-14,3.0429c-8.6377,2.1649-16.0791,4.5907-46.5,15.1602-20.7126,7.1964-48.5988,14.7316-87.5,23.6445-9.1239,2.0904-67.9518,13.118-83,15.5586-31.7414,5.1478-56.4469,7.7791-62.4531,6.6524-2.5697-.4821-4.5324-1.9189-7.2813-5.3282-6.6811-8.2861-27.5168-29.3131-36.5214-36.8574-15.9328-13.3489-33.2691-23.8164-53.6016-32.3652-16.5155-6.9439-31.7134-10.2651-47.6426-10.4121l-12-.1114.1621-3c.089-1.65.4889-6.7016.8906-11.2265.8736-9.8403.1187-11.2777-5.9238-11.2637-5.5957.013-12.8855,4.3398-19.6894,11.6895-3.731,4.0304-7.5072,9.9456-12.0274,18.8379-8.0204,15.7777-11.8688,25.7412-15.4726,40.0585-3.4995,13.9028-3.6885,25.2967-.5547,33.4903c1.1749,3.0719,3.145,6.5263,4.3769,7.6758c3.141,2.9308,11.1615,6.7658,18.2383,8.7207c17.2188,4.7564,34.5,12.3845,34.5,15.2285c0,.8041-1.4119,1.3304-3.75,1.3984l-3.75.1094l4.5.8809c1.3819.2703,3.3379,1.0423,5.5606,2.1621-2.3524-1.1581-4.433-1.8773-6.4454-2.2539-6.6624-1.247-18.8017-1.3197-19.5449-.1172.8229-1.3315-1.0393-1.1061-12.6992,1.539-11.5001,2.6088-22.0233,6.446-28.3691,10.3438-9.8316,6.0388-18.9354,17.577-26.5606,33.6621-6.2957,13.2805-10.2271,23.9816-13.9316,37.9297-5.9464,22.389-6.5174,45.4238-1.5879,63.959c6.1667,23.1866,13.1273,35.4366,29.0762,51.1757c10.9597,10.8155,22.8451,19.2509,47.9453,34.0254c17.5154,10.31,36.5075,19.5661,63.0586,30.7325c2.75,1.1565,5.1843,2.2436,5.4101,2.416s-.4492,1.2815-1.5,2.4629c0,0,.4463.1632,1.3047.4804l-3.2168,1.7266c-3.3273,1.7854-7.0101,4.7607-8.5898,6.9414-3.5922,4.9589-5.0988,11.9199-3.8164,17.627c1.428,6.3557,2.492,8.0799,8.2031,13.2851l5.1543,4.6953-4.1192,3.8047c-8.0204,7.4061-7.9154,17.2696.2657,24.9238c2.4224,2.2664,4.4043,4.551,4.4043,5.0762s-1.1307,2.0169-2.5118,3.3145c-3.382,3.1771-4.8555,8.906-3.5449,13.7734.5606,2.0818,2.6133,5.3314,4.5625,7.2207c3.4481,3.342,3.5261,3.5874,2.9063,9.0664-.5051,4.4643-.2176,6.5773,1.3828,10.1953c1.1103,2.5101,3.1237,5.2886,4.4746,6.1738c1.9679,1.2894,2.5714,2.7247,3.0352,7.2188.436,4.2241,1.2388,6.299,3.2539,8.4023c1.4717,1.5361,3.8607,3.2587,5.3086,3.8282c3.5882,1.4113,44.2674,5.5634,69.6328,7.1074c19.9126,1.2121,58.2373.3736,77-1.6836c12.4549-1.3656,24.6411-1.7566,55-1.7676c34.9827-.012,40.9057.2278,57.5,2.3242c13.3393,1.6853,21.708,2.2187,30,1.9121c9.8513-.3644,12.2936-.8054,17.0371-3.0761c3.0455-1.4579,7.4392-4.278,9.7636-6.2676c4.1817-3.5794,10.1993-11.4044,10.1993-13.2617c0-1.1504-3.0306-2.3921-26.5-10.8692-9.9-3.5759-26.775-10.0058-37.5-14.2871s-36.15-14.406-56.5-22.5c-17.7799-7.0718-36.3409-14.5204-44.5977-17.8906c50.8835,19.4836,102.2571,39.5458,138.5977,54.6777c72.1925,26.0758,181.8875,50.6098,235.498,56.6075v0c4.6756.5226,15.6987.7851,24.498.582c12.1985-.2815,18.8787-.9747,28.1133-2.9141c23.8143-5.0014,41.7611-12.8662,65.4277-28.6758c16.787-11.2139,27.3988-19.7532,42.8614-34.4882c10.9433-10.4284,27.1878-29.0438,35.8164-41.045c7.8444-10.9104,21.9323-35.453,28.3515-49.3925c7.3597-15.9819,13.0393-33.0883,16.3321-49.1895c2.1755-10.6383,2.5976-15.3776,2.5976-29.0918c0-9.2481-.8823-25.0519-2.0273-36.291-3.4451-33.8172-3.9303-39.2379-5.4981-61.4102-.8361-11.825-1.9677-27.8-2.5136-35.5s-1.2598-29.75-1.5879-49c-1.3288-77.9765,4.7641-180.6087,15.7324-265c1.0722-8.25,2.6531-22.425,3.5137-31.5c2.7793-29.30811.3972-78.98218-5.5879-116.49996-6.5267-40.91258-10.9718-64.36168-14.6895-77.5-2.3752-8.39384-12.5297-36.94117-18.3183-51.5-5.1364-12.91865-10.7639-24.19468-25.4571-51-12.8941-23.52312-16.2297-32.54087-20.9004-56.5-3.292-16.88733-3.8567-25.22027-2.7109-40.05469c1.4049-18.1896,4.3159-31.20513,14.8594-66.44531c9.9682-33.31748,12.9375-53.94336,11.7324-81.5-1.0469-23.93703-4.3284-38.23182-12.9981-56.62305-5.549-11.7712-10.8315-19.39292-18.7089-26.99414-21.5278-20.77296-52.2572-34.0047-90.5157-38.97656-4.2638-.5541-8.7117-.89972-13.2793-1.05078h.002ZM1389.9997,1285.1111c-.9969,0-1.9938.057-2.75.1718-.4136.063-.6206.1224-.6426.1758-.0002.0008,0,.01,0,.01v0v0v0v0c.0003.0007,0,.01,0,.01v0c.077.1298,1.3129.2207,3.3926.2207s3.3154-.089,3.3925-.2187v0c.0003-.0007,0-.01,0-.01v0v0v0v0c-.0002-.0007,0-.01,0-.01-.022-.053-.231-.1151-.6445-.1778-.7563-.1145-1.7532-.1718-2.75-.1718h.002Z" fill="none" stroke="#000" stroke-width="5" stroke-dashoffset="4925.46" stroke-dasharray="4925.46"/><path id="emAgLpjs1M612" d="M380.11881,334.01927c-18.68567.0234-32.98523,1.8074-46.93555,5.85547-16.95378,4.91959-37.23741,14.09136-50.38476,22.7832-12.31825,8.14372-28.38336,27.44805-36.7168,44.11915-4.35168,8.70555-8.92883,22.78971-10.7461,33.07031-2.28846,12.94633-2.08391,35.91691.45118,50.70508c3.05192,17.80309,6.71038,33.32752,11.29687,47.94726c6.93539,22.10699,11.83509,41.49846,13.51953,53.5c1.25439,8.93743,1.49071,16.17948,1.0625,32.5-.58021,22.11352-1.68685,29.90033-6.25586,43.97461-2.55942,7.88397-17.89664,39.52586-25.57422,52.76172-5.66247,9.76192-19.25544,37.727-22.92382,47.16211-12.41755,31.93808-22.36604,68.37585-28.52149,104.46875-5.0124,29.39061-7.37975,53.83701-8.05273,83.13281-.65177,28.3731.81633,50.96196,5.21289,80.22266c2.74807,18.2894,8.48501,68.2659,10.88086,94.7773c2.31423,25.6083,5.334,73.4571,6.65625,105.5c1.17863,28.5627.74626,66.2541-1.12696,98.5-3.96832,68.3113-5.2606,86.0966-9.09375,125-2.51029,25.4776-2.17116,44.6712,1.01954,57.5c3.98204,16.0105,14.90698,42.6547,23.78125,58c13.37047,23.1201,31.73583,46.9913,50.79296,66.0215c33.16917,33.1224,62.42224,52.9403,94.22071,63.8321c15.44922,5.2918,26.7788,7.5942,41.81836,8.498c11.56776.6952,15.65665.6483,29.5-.3379c26.39953-1.8807,72.64129-10.6022,119.5-22.539c28.83102-7.3444,32.52709-8.3642,65-17.9336c16.37843-4.8265,21.38513-5.9496,22.75-5.1055.9625.5952,1.75.6991,1.75.2324s1.91251-1.4123,4.25-2.1016c-2.3375.6893-4.25,1.7978-4.25,2.4629c0,1.9832,7.61004,10.9279,11.69922,13.752c4.68603,3.2363,10.24427,5.6505,16.80078,7.2949c6.81481,1.7091,20.24469,1.7145,31.58789.012c28.09959-4.2182,83.4747-4.5554,113.91211-.6933c10.53545,1.3368,22.10306,2.0881,32,2.0781c19.9478-.019,49.86554-2.3407,62-4.8105c5.225-1.0634,12.86749-2.247,16.98242-2.6309s8.94298-1.3087,10.72851-2.0547c4.06774-1.6996,7.28016-6.8451,7.28516-11.666.003-2.8588.89694-4.72,3.9707-8.2715c5.19612-6.0036,6.77142-11.1343,5.11524-16.6621-1.18681-3.9612-1.1203-4.2456,1.7207-7.25c1.62635-1.7198,3.46213-4.1092,4.07813-5.3106c2.31036-4.5057.99102-13.2846-2.49219-16.5859-1.29466-1.2271-2.36109-2.5685-2.37109-2.9824s1.85068-2.4389,4.13476-4.5c4.70586-4.2464,6.84766-8.5488,6.84766-13.7559c0-4.8041-3.12139-10.5909-6.9043-12.7988-1.70234-.9936-3.0957-2.3007-3.0957-2.9043s1.81618-2.6515,4.03515-4.5508c7.13005-6.1031,9.82013-13.8028,7.95703-22.7773-1.11571-5.3743-3.81343-9.5261-8.11718-12.4883l.625.3613-1.92578-2.1914c-1.14922-1.3067-1.55265-2.5284-1-3.0293.5095-.4618,9.02578-2.9151,18.92578-5.4511c20.41214-5.2287,31.88124-9.4439,47.29493-17.3829c16.8088-8.6575,43.0229-24.0912,50.7051-29.8535c13.765-10.325,22.9832-23.5667,31.2773-44.9258c6.525-16.8033,9.3905-31.8806,9.2813-48.8437-.1008-15.6723-1.5128-23.804-7.586-43.6563-2.3224-7.5914-10.9222-28.0246-14.6699-34.8554-9.4189-17.1676-21.8154-31.2611-32.9785-37.4961-9.2007-5.139-23.7766-8.6517-37.8242-9.1153-11.7364.187-18.92177-.5751-10.0899-5.4973c2.1477-1.0957,9.6521-3.6121,16.6778-5.5918c16.5001-4.6493,24.005-8.1109,28.5585-13.1739c5.7839-6.4311,7.1143-15.5386,4.3672-29.8964-2.5095-13.1156-6.2082-23.0781-15.9375-42.9161-12.0729-24.6165-19.1485-33.1774-30.1211-36.4472-5.5706-1.66-9.14749-.158-9.95895,4.1816-.33889,1.8124.11541,6.8337,1.00977,11.1582s1.41106,8.4231,1.14844,9.1074c-.33427.8711-4.62852,1.4074-14.31446,1.7911-10.72828.4251-15.7657,1.1212-22.42578,3.0937-16.94606,5.0188-36.03374,14.6248-58.08203,29.2305-9.06121,6.0026-16.41858,12.0132-25.82226,21.0976-7.23298,6.9874-16.51682,16.8908-20.63086,22.0059-4.45395,5.5376-8.45603,9.5442-9.89063,9.9043-4.95685,1.244-37.768-4.593-70.98437-12.627-8.8-2.1285-30.175-7.0673-47.5-10.9765-38.26333-8.6337-77.44912-19.8507-106.5-30.4864-20.47394-7.4956-41.12833-12.4795-51.88086-12.5175-7.57272-.027-8.41753-1.0462-14.10547-16.9864-3.01077-8.4376-9.61948-23.2801-15.80664-35.5-16.81238-33.2053-37.35114-75.5537-40.55664-83.623-1.61422-4.0636-5.24383-16.836-8.06446-28.3828-6.35065-25.99771-6.33688-25.94664-14.89062-53.99416-23.54604-77.20703-24.64002-80.33882-36.69141-105-12.92125-26.44122-20.57134-36.82449-40.89843-55.50195-2.69256-2.47405-5.50506-5.94502-6.25-7.71485-3.54729-8.42767.34626-19.98097,13.29296-39.43359c9.58716-14.40485,14.44138-23.01901,16.90235-29.99414.72768-2.06247,2.05676-9.06113,2.95312-15.55273s2.45991-13.68294,3.47461-15.98047c1.1818-2.67586,3.3798-5.19188,6.11328-7l4.26563-2.82227l27.07226-.0195c18.89397-.0137,28.16262-.3937,30.6875-1.25977c6.04789-2.0745,10.26948-5.49532,12.61719-10.22265c1.8348-3.69451,2.38001-7.08968,3.05274-18.99805.7589-13.43355,1.02105-14.80181,3.55664-18.60937c3.36844-5.05819,4.26297-10.02276,2.67383-14.83789-1.10485-3.34773-.98515-4.00181,1.38671-7.58594c1.42779-2.15752,2.59571-4.62345,2.59571-5.47852s-1.125-3.77485-2.5-6.48828c-2.41756-4.77083-3.16269-10.10762-1.87891-13.45312.34135-.88954,3.47493-3.65363,6.96289-6.14258c8.92357-6.36774,11.41602-9.59759,11.41602-14.78906c0-4.77719-3.51669-11.29899-12.44141-23.06641-2.94027-3.8768-6.36269-9.07383-7.60547-11.54883-3.22066-6.41391-7.89707-26.01099-8.58984-36-.4444-6.40766-.0696-11.32237,1.52344-19.96484c2.40522-13.0487,2.61436-20.88535.70117-26.24414-.72817-2.03958-4.00233-8.56458-7.27735-14.5-3.83215-6.94514-7.86501-16.44919-11.3125-26.66407-7.67917-22.75327-15.3383-33.80076-30.63867-44.19335-9.35282-6.35278-21.74371-11.66234-37.95703-16.26368-16.85752-4.78417-26.85228-6.17219-44.2832-6.15039l-.0039.01267Z" paint-order="markers stroke fill" fill="none" stroke="#000" stroke-width="5" stroke-dashoffset="4493.14" stroke-dasharray="4493.14"/></g></g></svg>
