<svg id="e3a5kIAifrq1" xmlns="http://www.w3.org/2000/svg" xmlns:xlink="http://www.w3.org/1999/xlink" viewBox="300 -50 1880 2710" shape-rendering="geometricPrecision" text-rendering="geometricPrecision" project-id="4503c6a02a834889a4934ef259f6e0f8" export-id="be4614e537914c79b7882e8ea77e521f" cached="false"><g transform="translate(3.810059 375.430226)"><g><path d="M1082.57,1168.75c-1.06,1.05-1.82,2.37-1.68,2.94.13.57-1.25,3.9-3.07,7.42-1.83,3.51-3.66,6.5-4.07,6.64s-.75.92-.75,1.75-.97,3.19-2.15,5.25-3.6,6.45-5.36,9.75c-1.77,3.3-4.51,8.47-6.1,11.5s-3.13,5.72-3.43,6-3.11,5.67-6.24,12-5.7,11.84-5.71,12.25-1.36,3.67-3.01,7.25-3,6.72-3,7-1.35,3.42-3,7-3,6.72-3,7-1.35,3.42-3,7-3,6.72-3,7-1.59,4.66-3.54,9.75-4.03,10.38-4.63,11.75c-.61,1.38-1.54,3.63-2.08,5-.54,1.38-1.38,3.29-1.87,4.25-.48.96-.88,2.65-.88,3.75s-.45,2.22-1,2.5-1,1.4-1,2.5-.4,2.79-.88,3.75c-.49.96-1.44,3.1-2.12,4.75s-1.63,3.79-2.12,4.75c-.48.96-.88,2.65-.88,3.75s-.45,2.22-1,2.5-1,1.4-1,2.5-.4,2.79-.89,3.75-2.14,6.03-3.67,11.25c-1.54,5.22-4.99,16.25-7.68,24.5s-5.52,17.25-6.29,20-2.36,8.38-3.53,12.5c-1.18,4.13-2.52,9.08-2.98,11-.47,1.92-1.76,7.78-2.87,13s-3.16,13.78-4.56,19c-1.39,5.22-3.15,12.42-3.91,16-.75,3.58-2.15,11.22-3.1,17s-2.16,11.85-2.68,13.5-1.64,6.6-2.5,11c-.85,4.4-1.9,10.7-2.33,14-.42,3.3-1.3,8.7-1.94,12-.65,3.3-1.62,8.47-2.16,11.5-.55,3.03-1.43,7.75-1.96,10.5-.54,2.75-1.43,8.15-1.99,12s-1.48,10.38-2.04,14.5c-.56,4.13-1.42,12-1.89,17.5-.48,5.5-1.29,14.05-1.79,19-.51,4.95-1.22,9.56-1.58,10.25s-1.56,8.34-2.66,17-2,17.33-1.99,19.25c.02,1.92-.39,3.95-.9,4.5s-1.17,4.6-1.48,9-1.03,12.5-1.61,18c-.57,5.5-1.49,13.6-2.05,18-.55,4.4-1.24,13.63-1.53,20.5-.29,6.88-.94,13.4-1.43,14.5s-1.15,6.5-1.46,12-.79,13.94-1.06,18.75L924,1802l428.5.01c-1.25-13.57-2.03-21.56-2.55-26.51-.51-4.95-1.35-13.28-1.87-18.5-.51-5.22-1.64-14.9-2.52-21.5-.87-6.6-2.49-17.85-3.6-25s-2.51-15.92-3.11-19.5c-.59-3.58-1.91-10.78-2.91-16-1.01-5.22-2.55-13.55-3.43-18.5-.89-4.95-2.24-11.7-3.02-15-.77-3.3-3.22-13.65-5.43-23s-4.71-19.47-5.54-22.5c-.84-3.03-3.15-11.12-5.14-18-2-6.87-3.96-13.85-4.37-15.5s-3.68-11.55-7.25-22c-3.58-10.45-8.08-23.28-9.99-28.5s-4.44-11.64-5.62-14.25-2.17-5.09-2.18-5.5c-.02-.41-.91-2.55-1.97-4.75s-1.95-4.34-1.97-4.75c-.01-.41-1.15-3.22-2.53-6.25-1.37-3.03-2.5-5.84-2.5-6.25s-1.51-3.9-3.36-7.75-4.17-8.8-5.14-11-4.94-10.53-8.82-18.5-7.81-15.62-8.73-17c-.93-1.37-3.48-5.87-5.67-10-2.19-4.12-4.94-9.08-6.11-11s-3.13-5.53-4.35-8c-1.23-2.47-2.73-4.95-3.33-5.5-.61-.55-1.98-2.91-3.05-5.24s-2.28-4.24-2.69-4.25c-.41,0-1.57-1.7-2.58-3.76s-2.81-5.44-4-7.5-3.07-4.65-4.17-5.75-2-2.45-2-3-6.82-11.24-15.16-23.75c-8.33-12.51-15.53-22.86-16-23-.46-.14-.84-.92-.84-1.75s-.45-1.5-1-1.5-1.55-1.24-2.23-2.75-1.49-2.97-1.8-3.25-1.65-2.08-2.97-4-2.73-3.72-3.13-4-2.63-3.42-4.96-7-4.63-6.95-5.11-7.5-3-3.88-5.59-7.39c-2.59-3.52-5.79-8.02-7.11-10-1.32-1.99-2.78-3.72-3.25-3.86s-.85-.92-.85-1.75-.45-1.5-1-1.5-1-.67-1-1.5-.34-1.5-.75-1.5c-.41.01-1.87-1.79-3.25-4-1.37-2.21-2.84-4.01-3.25-4-.41,0-.75-.56-.74-1.25c0-.69-1.35-2.71-3-4.5-1.66-1.79-3.01-3.92-3.01-4.75s-.34-1.48-.75-1.46-2.55-2.79-4.75-6.23c-2.2-3.45-4.73-6.96-5.61-7.79-.89-.84-2.86-3.77-4.38-6.52-1.51-2.75-6.67-10.91-11.45-18.13-4.79-7.23-8.78-13.53-8.89-14-.1-.48-1.19-2.14-2.42-3.7-2.22-2.79-2.28-2.81-4.18-.92Z" fill="#a2117a" fill-rule="evenodd"/><path d="M1003.23,230.25c-.58,1.24-2.43,6.53-4.11,11.75s-3.81,12.2-4.74,15.5-1.78,6.68-1.89,7.5-1.42,6.9-2.93,13.5c-1.5,6.6-3.6,16.5-4.66,22-1.07,5.5-1.98,10.68-2.03,11.5s-.53,3.52-1.06,6-1.11,5.85-1.28,7.5c-.16,1.65-.89,6.6-1.6,11-.74,4.57-1.3,16.35-1.31,27.5-.01,15.96.39,21.68,2.21,31.5c1.23,6.6,3.61,17.18,5.29,23.5s3.71,13.52,4.52,16c.8,2.48,1.86,5.4,2.34,6.5.49,1.1,2.24,5.82,3.89,10.5c1.64,4.68,4.09,11.43,5.44,15c1.34,3.57,4.12,10.55,6.17,15.5c2.06,4.95,4.6,11.25,5.66,14s2.34,5.9,2.84,7c.51,1.1,2.12,5.38,3.59,9.5c1.46,4.13,5,14.25,7.87,22.5c2.86,8.25,7.28,23.1,9.81,33c2.54,9.9,5.77,23.4,7.19,30s3.47,18.08,4.57,25.5c1.09,7.42,2.52,21.6,3.18,31.5.91,13.72.92,21.8.05,34-.63,8.8-1.43,18.92-1.77,22.5s-.88,6.95-1.19,7.5c-.32.55-.74,3.02-.94,5.5s-1.5,10.13-2.89,17c-1.39,6.88-2.76,13.85-3.04,15.5-.27,1.65-2.04,9.08-3.91,16.5s-5.4,19.58-7.85,27c-2.44,7.42-6.46,18.45-8.93,24.5-2.48,6.05-5.79,13.91-7.36,17.48-1.57,3.56-6.77,14.36-11.56,24-4.78,9.63-10.33,20.44-12.32,24.02s-4.82,8.52-6.28,11-3.92,6.75-5.47,9.5-3.03,5.79-3.28,6.75-.9,1.75-1.45,1.75-1,.45-1,1-1.5,3.36-3.34,6.25-6,9.41-9.25,14.5-6.36,10.03-6.91,10.97c-.55.95-3.23,5.11-5.95,9.25s-5.33,7.98-5.79,8.53c-.47.55-3.79,5.05-7.38,10-3.6,4.95-7.17,9.9-7.94,11s-7.07,9.65-13.99,19c-6.93,9.35-13.42,18.13-14.43,19.5-1.02,1.38-3.37,4.53-5.22,7-1.86,2.47-4.92,6.75-6.8,9.5s-3.81,5.45-4.29,6-3.42,4.68-6.54,9.17-9.5,13.47-14.17,19.95c-4.67,6.49-9.17,12.78-10,13.99s-4.65,6.85-8.5,12.54-7.67,11.6-8.5,13.13-1.84,2.76-2.25,2.75c-.41-.02-.75.42-.75.97s-2.16,4.26-4.8,8.25c-2.63,3.99-6.71,10.4-9.05,14.25s-4.66,7.67-5.16,8.5-2.89,4.88-5.3,9c-2.41,4.13-6.1,10.65-8.19,14.5-2.1,3.85-6.71,12.63-10.24,19.5-3.54,6.88-6.82,13.17-7.29,14-.48.83-3.17,6.45-6,12.5-2.82,6.05-6.43,13.7-8.01,17-1.59,3.3-3.98,8.7-5.32,12-1.35,3.3-3.64,8.7-5.1,12s-3.05,6.9-3.54,8-2.99,7.4-5.56,14-5.27,13.35-6,15c-.72,1.65-2.52,6.6-4,11s-3.14,8.9-3.7,10c-.55,1.1-1.15,2.67-1.31,3.5-.17.83-.86,3.08-1.52,5-.67,1.92-1.57,4.4-2.01,5.5-.45,1.1-2.89,8.3-5.44,16s-4.81,14.9-5.04,16c-.22,1.1-1.34,5.15-2.49,9s-2.34,7.67-2.66,8.5-.73,2.4-.92,3.5c-.18,1.1-1.5,5.83-2.91,10.5-1.42,4.67-3,10.3-3.52,12.5s-1.18,5.13-1.46,6.5c-.28,1.38-.79,3.17-1.11,4-.33.83-1.01,3.3-1.52,5.5s-1.33,5.58-1.83,7.5-1.38,5.53-1.96,8-1.28,5.85-1.55,7.5c-.28,1.65-1.18,5.7-2.02,9-.83,3.3-1.66,6.9-1.83,8-.18,1.1-.83,4.25-1.46,7s-1.83,8.15-2.67,12c-.85,3.85-1.79,8.8-2.11,11-.31,2.2-.97,4.67-1.46,5.5s-.69,1.72-.45,2c.25.28-.91,7.25-2.55,15.5-1.65,8.25-3.18,16.35-3.39,18-.22,1.65-1.58,9.75-3.03,18-1.44,8.25-2.86,17.03-3.13,19.5-.28,2.47-.69,4.72-.91,5-.21.28-.66,2.53-.98,5s-.83,5.63-1.14,7c-.31,1.38-.74,4.3-.96,6.5-.23,2.2-.71,5.58-1.07,7.5-.37,1.92-.59,3.84-.5,4.25s-.3,3.11-.88,6-1.27,7.72-1.54,10.75c-.26,3.03-.77,6.63-1.11,8-.35,1.38-.55,2.84-.46,3.25s-.76,6.94-1.89,14.5-2.08,14.42-2.11,15.25c-.04.83-.49,4.88-1.01,9-.51,4.13-1.14,9.75-1.39,12.5-.26,2.75-.71,6.13-1.01,7.5-.3,1.38-.79,6.1-1.08,10.5s-.71,8.34-.94,8.75c-.22.41-.66,4.69-.95,9.5-.3,4.81-.78,9.42-1.07,10.25-.28.83-.72,4.88-.97,9-.25,4.13-.75,9.08-1.11,11-.35,1.92-.57,3.84-.48,4.25s-.27,5.59-.82,11.5c-.54,5.91-1.22,14.24-1.5,18.5L646,1802h278c.76-13.56,1.24-22,1.55-27.5s.97-10.9,1.46-12s1.14-7.62,1.43-14.5c.29-6.87.98-16.1,1.53-20.5.56-4.4,1.48-12.5,2.05-18c.58-5.5,1.3-13.6,1.61-18s.97-8.45,1.48-9s.92-2.58.9-4.5c-.01-1.92.89-10.59,1.99-19.25s2.3-16.31,2.66-17s1.07-5.3,1.58-10.25c.5-4.95,1.31-13.5,1.79-19c.47-5.5,1.33-13.38,1.89-17.5s1.48-10.65,2.04-14.5s1.45-9.25,1.99-12c.53-2.75,1.41-7.47,1.96-10.5.54-3.03,1.51-8.2,2.16-11.5.64-3.3,1.52-8.7,1.94-12c.43-3.3,1.48-9.6,2.33-14c.86-4.4,1.98-9.35,2.5-11s1.73-7.72,2.68-13.5s2.35-13.42,3.1-17c.76-3.58,2.52-10.78,3.91-16c1.4-5.22,3.45-13.78,4.56-19s2.4-11.08,2.87-13c.46-1.92,1.8-6.87,2.98-11c1.17-4.12,2.76-9.75,3.53-12.5s3.6-11.75,6.29-20s6.14-19.28,7.68-24.5c1.53-5.22,3.18-10.29,3.67-11.25s.89-2.65.89-3.75.45-2.22,1-2.5s1-1.4,1-2.5.4-2.79.88-3.75c.49-.96,1.44-3.1,2.12-4.75s1.63-3.79,2.12-4.75c.48-.96.88-2.65.88-3.75s.45-2.22,1-2.5s1-1.4,1-2.5.4-2.79.88-3.75c.49-.96,1.45-3.1,2.14-4.75.68-1.65,1.62-3.9,2.07-5c.46-1.1,2.42-6.16,4.37-11.25s3.54-9.47,3.54-9.75s1.35-3.42,3-7s3-6.72,3-7s1.35-3.42,3-7s3-6.72,3-7s1.35-3.42,3-7s3-6.84,3.01-7.25s2.58-5.92,5.71-12.25s5.94-11.72,6.24-12s1.84-2.97,3.43-6s4.33-8.2,6.1-11.5c1.76-3.3,4.18-7.69,5.36-9.75s2.15-4.42,2.15-5.25.34-1.61.75-1.75s2.22-3.17,4.02-6.75c1.81-3.58,3.28-6.95,3.28-7.5s.66-1.79,1.48-2.75c1.31-1.56,1.19-2.25-1.21-6.5-1.48-2.61-4.46-8.35-6.62-12.75-2.17-4.4-5.18-11.38-6.7-15.5-1.53-4.12-3.92-12.22-5.32-18s-3.07-14.78-3.72-20c-.67-5.41-.97-15.53-.69-23.5.27-7.7.75-14.67,1.07-15.5s.81-3.97,1.09-7s1.61-10.9,2.96-17.5s4.06-18.3,6.01-26c1.96-7.7,4.91-18.95,6.56-25s3.74-13.48,4.63-16.5c.9-3.02,1.75-6.4,1.89-7.5s.52-2.67.84-3.5s1.76-6.23,3.21-12c1.44-5.77,3.46-13.88,4.49-18c1.04-4.12,1.69-7.73,1.46-8s-.03-1.17.46-2s1.14-3.3,1.44-5.5.99-5.8,1.52-8s.93-4.23.88-4.5c-.06-.27.17-1.17.49-2s.8-2.85,1.08-4.5c.27-1.65,1.66-7.73,3.09-13.5s3.53-13.65,4.67-17.5s3.56-11.95,5.37-18s4.25-14.38,5.43-18.5c1.17-4.12,2.79-11.77,3.59-17c.81-5.23,1.47-12.54,1.48-16.25s-.69-12.26-1.56-19c-.86-6.74-3.12-19.9-5.01-29.25-1.9-9.39-3.72-21.93-4.06-28-.4-7.13-.17-13.64.65-18.5.7-4.12,1.62-8.17,2.03-9c.42-.83,2.67-5.33,5.01-10s6.08-11.2,8.31-14.5c2.24-3.3,6.77-9.6,10.07-14s7.59-9.77,9.54-11.92c1.95-2.16,8.49-8.75,14.54-14.65c6.05-5.89,13.47-12.78,16.5-15.31s7.75-6.35,10.5-8.5s10.4-9.24,17-15.77c6.6-6.52,14.25-14.55,17-17.84s6.01-7.11,7.25-8.5c1.24-1.38,2.26-2.85,2.25-3.26c0-.41.59-1.31,1.3-2c.72-.69,3.15-3.95,5.39-7.25c2.25-3.3,5.89-9.6,8.09-14s4.91-11.15,6.01-15s2.12-7.9,2.25-9c.14-1.1.24-5.82.22-10.5-.02-6.17-.6-10.01-2.12-14-1.16-3.02-4.36-8.31-7.12-11.75s-7.61-7.97-10.77-10.07c-3.16-2.09-7.78-4.73-10.25-5.85-2.47-1.13-8.33-3.48-13-5.23-4.84-1.82-10.22-4.68-12.5-6.65l-4-3.47c-.99-32.31-1.06-32.71-3.94-37.05-1.62-2.44-3.98-5.44-5.25-6.68-1.35-1.31-5.02-2.88-8.81-3.75-3.58-.82-7.64-2.06-9.04-2.75-1.39-.69-2.93-2.6-3.41-4.25s-1.18-5.93-1.55-9.5-1.24-7.85-1.95-9.5c-.7-1.65-2.91-4.46-4.91-6.25s-4.2-3.24-4.89-3.23-1.7-.37-2.25-.84-3.7-1.46-7-2.19c-3.3-.74-8.25-2.33-11-3.55-2.75-1.21-6.69-3.83-8.75-5.82s-4.65-5.42-5.75-7.62-2-5.24-1.99-6.75c0-1.51.43-4.32.94-6.25.52-1.93,3.67-7.66,7-12.75s6.05-9.7,6.05-10.25.34-1.11.75-1.25s1.59-1.82,2.61-3.75s2.76-6.2,3.85-9.5c1.1-3.3,2.23-10.05,2.53-15c.41-7.06.14-10.19-1.27-14.5-1-3.04-3.18-6.86-4.89-8.54-2.2-2.18-5.36-3.67-11.08-5.24-4.4-1.21-11.6-2.65-16-3.21s-19.7-1.46-34-2c-14.3-.53-30.72-1.43-36.5-1.98s-14.33-1.68-19-2.5-9.23-1.5-10.11-1.51c-.89-.01-2.09.99-2.66,2.23Z" fill="#c5116a" fill-rule="evenodd"/><path d="M1585.92,229.25c-4.63,3.98-12.93,11.75-18.44,17.25s-12.93,13.38-16.49,17.5c-3.56,4.13-7.16,8.18-7.99,9-.84.82-2.68,3.07-4.1,5s-3.23,4.18-4.03,5c-.79.82-2.52,3.07-3.85,5-1.34,1.93-2.68,3.73-3,4s-2.73,3.43-5.36,7c-2.62,3.57-5.42,7.29-6.22,8.25-.79.96-1.46,2.09-1.48,2.5s-1.38,2.32-3.01,4.25c-1.64,1.93-2.97,3.84-2.96,4.25c0,.41-1.73,3.34-3.87,6.5-2.13,3.16-6.2,10.48-9.04,16.25-2.85,5.77-5.6,11.29-6.13,12.25-.52.96-.95,2.2-.95,2.75s-.85,2.91-1.89,5.25-2.21,5.15-2.6,6.25-2.26,7.4-4.17,14c-1.9,6.6-4.38,16.27-5.5,21.5s-2.42,13.1-2.89,17.5-1.36,11.82-1.97,16.5c-.6,4.68-1.49,13-1.96,18.5s-1.15,13.15-1.52,17-.95,7.45-1.3,8c-.34.55-.94,4.6-1.33,9s-.98,10.7-1.3,14-.99,7.13-1.49,8.5c-.51,1.38-1.18,5.09-1.5,8.25s-1.94,12.61-3.61,21-4.4,20.65-6.06,27.25c-1.67,6.6-3.72,14.25-4.56,17s-2.69,8.6-4.12,13-2.97,8.45-3.43,9-.83,1.56-.82,2.25-1.33,4.17-2.98,7.75-3.01,6.84-3.02,7.25-3.24,7.27-7.18,15.25c-3.93,7.98-7.92,15.63-8.86,17-.94,1.38-2.66,4.19-3.82,6.25-1.17,2.06-3.08,5.44-4.24,7.5-1.17,2.06-3.42,5.66-5,8-1.59,2.34-2.88,4.48-2.88,4.75s-1.35,2.52-3,5-3.02,4.84-3.04,5.25-1.38,2.33-3.01,4.25c-1.64,1.92-2.97,4.06-2.96,4.75c0,.69-.33,1.24-.74,1.22-.41-.01-1.42,1.22-2.25,2.75-.82,1.53-1.76,3.01-2.09,3.28-.32.27-3.81,5.34-7.75,11.25s-7.16,11.2-7.16,11.75-.37,1.11-.81,1.25c-.45.14-4.59,5.88-9.21,12.75-4.62,6.88-8.64,12.73-8.94,13s-.99,1.23-1.54,2.11c-.55.89-3.81,5.73-7.25,10.75-3.44,5.03-6.25,9.59-6.25,10.14s-.36,1.11-.81,1.25c-.44.14-2.24,2.39-4,5-1.75,2.61-3.19,4.98-3.19,5.25s-2.25,3.88-5,8c-2.75,4.13-5,7.73-5,8s-.85,1.74-1.88,3.25c-1.04,1.51-2.84,4.44-4,6.5-1.17,2.06-2.96,5.21-4,7-1.03,1.79-3.73,6.29-6,10-2.26,3.71-4.12,7.2-4.12,7.75s-.34,1.11-.75,1.25-1.57,1.6-2.56,3.25c-1,1.65-2.01,3.79-2.25,4.75s-.89,1.75-1.44,1.75-1,.45-1,1-1.8,3.92-4,7.5-4,6.73-4,7-1.35,2.52-3,5-3,4.73-3,5-3.16,5.79-7.03,12.25-7.02,11.86-7,12-1.32,2.27-2.97,4.75-3,4.73-3,5-2.25,3.88-5,8c-2.75,4.13-5,7.73-5,8s-1.51,2.86-3.35,5.75-5.33,8.38-7.75,12.2-4.85,7.69-5.4,8.61c-.55.91-6.13,9.26-12.41,18.55-6.27,9.29-11.68,17.12-12.02,17.39s-3.5,4.77-7.03,10-6.7,9.73-7.04,10c-.35.27-2.16,2.75-4.03,5.5-1.86,2.75-4.9,7.03-6.74,9.5-1.85,2.47-4.79,6.26-6.54,8.4-1.76,2.15-3.39,4.4-3.63,5-.24.61-1,1.77-1.69,2.6s-3.22,4.2-5.63,7.5c-2.4,3.3-6.5,8.92-9.11,12.5s-5.39,7.29-6.19,8.25c-.79.96-1.43,2.09-1.42,2.5s-.8,1.65-1.81,2.75c-1,1.1-4.6,6.05-8,11s-10.68,15.64-16.19,23.75-10.02,15.2-10.02,15.75-.35,1.11-.77,1.25c-.43.14-3.13,4.19-6,9-2.88,4.81-5.23,9.2-5.23,9.75s-.45,1-1,1-.99.56-.99,1.25c.01.69-2.13,3.33-4.75,5.88s-5.31,4.8-5.99,5c-.76.23.28,2.26,2.74,5.37c2.18,2.75,3.99,5.45,4.02,6c.02.55,4.02,6.85,8.88,14c4.87,7.15,10.09,15.25,11.6,18c1.52,2.75,3.49,5.68,4.38,6.52.88.83,3.41,4.34,5.61,7.79c2.2,3.44,4.34,6.25,4.75,6.23s.75.63.75,1.46s1.35,2.96,3.01,4.75c1.65,1.79,3,3.81,3,4.5-.01.69.33,1.25.74,1.25.41-.01,1.87,1.79,3.25,4c1.37,2.21,2.84,4.01,3.25,4c.41,0,.75.67.75,1.5s.45,1.5,1,1.5s1,.67,1,1.5.38,1.61.85,1.75s1.93,1.87,3.25,3.86c1.32,1.98,4.52,6.48,7.11,10c2.59,3.51,5.11,6.84,5.59,7.39s2.78,3.92,5.11,7.5s4.56,6.72,4.96,7s1.81,2.08,3.13,4s2.66,3.72,2.97,4s1.12,1.74,1.8,3.25s1.68,2.75,2.23,2.75s1,.67,1,1.5.38,1.61.84,1.75c.47.14,7.67,10.49,16,23c8.34,12.51,15.16,23.2,15.16,23.75s.9,1.9,2,3s2.98,3.69,4.17,5.75s2.99,5.44,4,7.5s2.17,3.76,2.58,3.76c.41.01,1.62,1.92,2.69,4.25s2.44,4.69,3.05,5.24c.6.55,2.1,3.03,3.33,5.5c1.22,2.47,3.18,6.08,4.35,8s3.92,6.88,6.11,11c2.19,4.13,4.74,8.63,5.67,10c.92,1.37,4.85,9.03,8.73,17s7.85,16.3,8.82,18.5s3.29,7.15,5.14,11s3.36,7.34,3.36,7.75s1.12,3.22,2.5,6.25c1.37,3.03,2.52,5.84,2.53,6.25.02.41.91,2.55,1.97,4.75s1.95,4.34,1.97,4.75c.01.41,1,2.89,2.18,5.5s3.71,9.03,5.62,14.25s6.41,18.05,9.99,28.5c3.57,10.45,6.84,20.35,7.25,22s2.37,8.63,4.37,15.5c1.99,6.88,4.3,14.97,5.14,18c.83,3.03,3.33,13.15,5.54,22.5s4.66,19.7,5.43,23c.78,3.3,2.13,10.05,3.02,15c.88,4.95,2.42,13.28,3.43,18.5c1,5.22,2.32,12.42,2.91,16c.6,3.58,2,12.35,3.11,19.5s2.73,18.4,3.6,25c.88,6.6,2.01,16.28,2.52,21.5.52,5.22,1.36,13.55,1.87,18.5.52,4.95,1.3,12.94,1.74,17.76l.81,8.75L1618,1802c0-4.65-.42-9.26-.93-13.25s-1.45-13.1-2.09-20.25-2.26-21.78-3.61-32.5c-1.34-10.72-3.82-28.28-5.49-39-1.68-10.72-4.83-28.05-7.02-38.5-2.18-10.45-5.77-26.2-7.97-35-2.21-8.8-5.97-22.75-8.36-31s-6.61-21.97-9.37-30.5c-2.77-8.53-7.05-21.13-9.52-28-2.47-6.88-5.6-15.42-6.95-19s-4.71-12.13-7.47-19c-2.75-6.88-6.23-15.2-7.72-18.5-1.5-3.3-4.18-9.15-5.98-13-1.79-3.85-6.03-12.63-9.41-19.5-3.39-6.88-8.42-16.78-11.18-22s-5.77-10.63-6.68-12c-.91-1.38-2.84-4.75-4.28-7.5s-3.53-6.58-4.64-8.5c-1.1-1.92-2.64-4.63-3.42-6-.78-1.38-1.97-2.84-2.66-3.25s-1.24-1.31-1.23-2-1.59-3.5-3.55-6.25c-1.97-2.75-4.17-6.35-4.89-8s-2.5-4.24-3.95-5.75-3.22-4.21-3.95-6-2.24-4.15-3.35-5.25c-1.12-1.1-6.44-8.75-11.81-17s-10.38-15.34-11.14-15.75-1.37-1.31-1.35-2-.91-2.38-2.06-3.75c-1.15-1.38-3.98-5.33-6.28-8.8-2.31-3.46-4.53-6.27-4.94-6.25-.41.03-1.05-.96-1.43-2.2-.37-1.24-1.24-2.92-1.93-3.75s-2.86-3.64-4.82-6.25c-1.97-2.61-3.57-5.2-3.57-5.75s-.45-1-1-1-1.68-1.35-2.5-3c-.83-1.65-2.4-3.9-3.5-5s-3.62-4.59-5.59-7.75c-1.98-3.16-4.13-6.2-4.78-6.75-.64-.55-2.74-3.45-4.65-6.45-1.92-2.99-3.98-5.92-4.59-6.5-.6-.58-9.04-12.86-18.75-27.3-9.7-14.44-17.64-26.7-17.64-27.25s-.45-1-1-1-.99-.56-.98-1.25-1.56-3.5-3.5-6.25-3.52-5.34-3.52-5.75-1-2.21-2.23-4-3.95-6.63-6.04-10.75c-2.09-4.13-4.69-10.42-5.79-14-1.31-4.28-1.98-9.31-1.96-14.75.01-4.54.68-11.29,1.49-15s2.35-9.45,3.41-12.75c1.07-3.3,2.93-8.7,4.13-12c1.21-3.3,4.9-11.4,8.19-18c3.3-6.6,7.81-15.15,10.03-19c2.21-3.85,7.01-11.7,10.65-17.44c3.64-5.75,13.33-20.6,21.54-33c8.2-12.41,15.57-23.23,16.38-24.06.8-.83,3.04-4.2,4.98-7.5s5.43-9.6,7.77-14s5.21-10.7,6.38-14s3.05-9.6,4.17-14s2.23-9.58,2.46-11.5s1.05-6.65,1.83-10.5s2.16-9.92,3.07-13.5c.92-3.58,2.19-8.08,2.85-10c.65-1.92,2.87-6.99,4.94-11.25c2.06-4.26,5.21-9.69,7-12.06c1.79-2.36,5.05-5.65,7.25-7.3c2.2-1.64,6.47-4.09,9.5-5.44c4.99-2.22,6.76-2.44,19-2.38c8.92.04,18.76.87,29,2.45c13.44,2.07,19.16,2.39,43,2.42c23.44.04,28.46-.22,34-1.75c3.57-.98,8.53-2.27,11-2.85c2.47-.59,7.65-2.52,11.5-4.3c4.52-2.09,9.03-5.23,12.75-8.88c3.16-3.12,6.89-8.02,8.28-10.91s2.78-6.37,3.08-7.75c.31-1.37.97-4.75,1.48-7.5.58-3.12.55-9.14-.07-16-.54-6.05-2.13-17.08-3.52-24.5-1.38-7.42-2.52-15.3-2.53-17.5c0-2.2.44-5.35.97-7c.54-1.65,3.53-5.25,6.66-8c3.12-2.75,6.36-6.35,7.2-8s1.75-4.12,2.04-5.5c.28-1.37.33-6.1.12-10.5-.22-4.4-.41-10.96-.43-14.59-.03-6.2.21-6.89,4.12-12c2.29-2.97,4.88-7.21,5.78-9.41.91-2.25,1.61-6.74,1.59-10.25-.02-5.33-.57-7.24-3.77-13l-3.75-6.75c0-23.83.37-27.86,1.5-29.88.82-1.48,2.85-3.32,4.5-4.08s7.5-2.52,13-3.91s12.25-3.49,15-4.66s6.35-2.77,8-3.55s4.8-2.68,7-4.22c2.2-1.55,5.46-4.7,7.25-7c1.79-2.31,3.75-6.11,4.35-8.45.61-2.34.84-6.16.5-8.5-.33-2.34-1.29-5.71-2.14-7.5-.84-1.79-2.26-4.6-3.16-6.25-.89-1.65-5.22-8.4-9.62-15s-8.6-12.34-9.34-12.75-1.34-1.2-1.34-1.75-1.67-3.36-3.72-6.25-4.02-5.48-4.39-5.75-4.86-6.8-9.98-14.5c-5.13-7.7-10.07-15.35-10.99-17s-3.13-5.93-4.91-9.5-4.46-9.43-5.95-13c-1.5-3.57-3.79-10.32-5.1-15-1.98-7.09-2.36-10.65-2.27-21.5.06-7.96.79-16.49,1.87-22c1.26-6.43,1.79-14.14,1.85-27c.07-14.27-.3-19.66-1.78-26-1.02-4.4-2.74-10.48-3.81-13.5-1.08-3.02-3.83-9.77-6.11-15-2.29-5.23-6.35-13.77-9.04-19s-5.4-10.14-6.03-10.93-3.34-5.74-6.02-11-5.72-11.26-6.75-13.32-1.87-4.2-1.87-4.75-.34-.99-.75-.99c-.41.01-1.37-1.68-2.13-3.75-.75-2.07-1.88-4.41-2.5-5.2-.61-.79-2.34-5.06-3.84-9.5-1.88-5.55-2.73-10.17-2.75-14.81-.03-6.39-.15-6.75-2.36-6.75-1.44,0-5.51,2.74-10.75,7.25Z" fill="#6b4ec6" fill-rule="evenodd"/><path d="M1284.5,58.09c-6.05.45-15.5,1.31-21,1.91s-15.85,2.01-23,3.13-20.42,3.75-29.5,5.84-21.22,5.24-27,7-13.88,4.35-18,5.75c-4.13,1.4-9.48,3.38-11.89,4.41s-4.66,1.86-5,1.86c-.34-.01-3.98,1.59-8.11,3.56s-9.97,4.82-13,6.34c-3.03,1.53-9.1,4.71-13.5,7.09-4.4,2.37-8.67,4.91-9.5,5.64s-1.84,1.34-2.25,1.35c-.41.02-3.22,1.83-6.25,4.03s-5.84,4.02-6.25,4.04-2.2,1.26-3.97,2.75c-1.78,1.49-5.78,4.74-8.91,7.21-3.12,2.47-12.51,11.25-20.87,19.5-8.35,8.25-17.85,18.59-21.1,22.97-3.24,4.38-7.34,10.23-9.11,13-1.76,2.77-3.56,5.48-4,6.03-.43.55-2.04,3.25-3.57,6-1.52,2.75-4.86,9.28-7.41,14.5s-5.01,10.96-5.47,12.75c-.62,2.38-.5,3.25.41,3.27.69.01,5.08.69,9.75,1.51s13.22,1.95,19,2.5s22.2,1.45,36.5,1.98c14.3.54,29.6,1.44,34,2s11.6,2,16,3.21c5.72,1.57,8.88,3.06,11.08,5.24c1.71,1.68,3.89,5.5,4.89,8.54c1.41,4.31,1.68,7.44,1.27,14.5-.3,4.95-1.43,11.7-2.53,15-1.09,3.3-2.83,7.57-3.85,9.5s-2.2,3.61-2.61,3.75-.75.7-.75,1.25-2.72,5.16-6.05,10.25-6.48,10.82-7,12.75c-.51,1.93-.94,4.74-.94,6.25-.01,1.51.89,4.55,1.99,6.75s3.69,5.63,5.75,7.62s6,4.61,8.75,5.82c2.75,1.22,7.7,2.81,11,3.55c3.3.73,6.45,1.72,7,2.19s1.56.85,2.25.84s2.89,1.44,4.89,3.23s4.21,4.6,4.91,6.25c.71,1.65,1.58,5.93,1.95,9.5s1.07,7.85,1.55,9.5s2.02,3.56,3.41,4.25c1.4.69,5.46,1.93,9.04,2.75c3.79.87,7.46,2.44,8.81,3.75c1.27,1.24,3.63,4.24,5.25,6.68c2.88,4.34,2.95,4.74,3.44,20.74l.5,16.31c6.28,5.44,11.66,8.3,16.5,10.12c4.67,1.75,10.53,4.1,13,5.23c2.47,1.12,7.09,3.76,10.25,5.85c3.16,2.1,8.01,6.63,10.77,10.07s5.96,8.73,7.12,11.75c1.52,3.99,2.1,7.83,2.12,14c.02,4.68-.08,9.4-.22,10.5-.13,1.1-1.15,5.15-2.25,9s-3.81,10.6-6.01,15-5.84,10.7-8.09,14c-2.24,3.3-4.67,6.56-5.39,7.25-.71.69-1.3,1.59-1.3,2c.01.41-1.01,1.88-2.25,3.26-1.24,1.39-4.5,5.21-7.25,8.5s-10.4,11.32-17,17.84c-6.6,6.53-14.25,13.62-17,15.77s-7.47,5.97-10.5,8.5-10.45,9.42-16.5,15.31c-6.05,5.9-12.59,12.49-14.54,14.65-1.95,2.15-6.24,7.52-9.54,11.92s-7.83,10.7-10.07,14c-2.23,3.3-5.97,9.83-8.31,14.5s-4.59,9.17-5.01,10c-.41.83-1.33,4.88-2.03,9-.82,4.86-1.05,11.37-.65,18.5.34,6.07,2.16,18.61,4.06,28c1.89,9.35,4.15,22.51,5.01,29.25.87,6.74,1.57,15.29,1.56,19s-.67,11.02-1.48,16.25c-.8,5.23-2.42,12.88-3.59,17-1.18,4.13-3.62,12.45-5.43,18.5s-4.23,14.15-5.37,18-3.24,11.73-4.67,17.5-2.82,11.85-3.09,13.5c-.28,1.65-.76,3.67-1.08,4.5s-.55,1.73-.49,2c.05.27-.35,2.3-.88,4.5s-1.22,5.8-1.52,8-.95,4.67-1.44,5.5-.69,1.73-.46,2-.42,3.88-1.46,8c-1.03,4.13-3.05,12.23-4.49,18-1.45,5.77-2.89,11.17-3.21,12s-.7,2.4-.84,3.5-.99,4.48-1.89,7.5c-.89,3.02-2.98,10.45-4.63,16.5s-4.6,17.3-6.56,25c-1.95,7.7-4.66,19.4-6.01,26s-2.68,14.47-2.96,17.5-.77,6.17-1.09,7-.8,7.8-1.07,15.5c-.28,7.97.02,18.09.69,23.5.65,5.22,2.32,14.22,3.72,20s3.79,13.88,5.32,18c1.52,4.13,4.52,11.1,6.68,15.5c2.15,4.4,4.57,9.01,5.37,10.25s1.9,2.26,2.45,2.27c.55,0,3.13-2.14,5.74-4.76c2.6-2.62,4.74-5.32,4.75-6.01c0-.69.46-1.25,1.01-1.25s1-.45,1-1s2.35-4.94,5.23-9.75c2.87-4.81,5.57-8.86,6-9c.42-.14.77-.7.77-1.25s4.51-7.64,10.02-15.75s12.79-18.8,16.19-23.75s7-9.9,8-11c1.01-1.1,1.82-2.34,1.81-2.75s.63-1.54,1.42-2.5c.8-.96,3.5-4.56,6-8c2.51-3.44,6.61-9.06,9.12-12.5c2.5-3.44,5.12-6.92,5.81-7.75s1.45-1.99,1.69-2.6c.24-.6,1.87-2.85,3.63-5c1.75-2.14,4.69-5.93,6.54-8.4c1.84-2.47,4.88-6.75,6.74-9.5c1.87-2.75,3.68-5.23,4.03-5.5.34-.27,3.51-4.77,7.04-10s6.69-9.73,7.03-10s5.75-8.1,12.02-17.39c6.28-9.29,11.86-17.64,12.41-18.55.55-.92,2.98-4.79,5.4-8.61s5.91-9.31,7.75-12.2s3.35-5.48,3.35-5.75s2.25-3.87,5-8c2.75-4.12,5-7.73,5-8s1.35-2.52,3-5s2.99-4.61,2.97-4.75s3.13-5.54,7-12s7.03-11.98,7.03-12.25s1.35-2.52,3-5s3-4.73,3-5s1.8-3.42,4-7s4-6.95,4-7.5.45-1,1-1s1.2-.79,1.44-1.75s1.25-3.1,2.25-4.75c.99-1.65,2.15-3.11,2.56-3.25s.75-.7.75-1.25s1.86-4.04,4.12-7.75c2.27-3.71,4.97-8.21,6-10c1.04-1.79,2.83-4.94,4-7c1.16-2.06,2.96-4.99,4-6.5c1.03-1.51,1.88-2.98,1.88-3.25s2.25-3.87,5-8c2.75-4.12,5-7.73,5-8s1.44-2.64,3.19-5.25c1.76-2.61,3.56-4.86,4-5c.45-.14.81-.7.81-1.25s2.81-5.11,6.25-10.14c3.44-5.02,6.7-9.86,7.25-10.75.55-.88,1.24-1.84,1.54-2.11s4.32-6.12,8.94-13c4.62-6.87,8.76-12.61,9.21-12.75.44-.14.81-.7.81-1.25s3.22-5.84,7.16-11.75s7.43-10.98,7.75-11.25c.33-.27,1.27-1.75,2.09-3.28.83-1.53,1.84-2.76,2.25-2.75.41.02.74-.53.74-1.22-.01-.69,1.32-2.83,2.96-4.75c1.63-1.92,2.99-3.84,3.01-4.25s1.39-2.77,3.04-5.25s3-4.73,3-5s1.29-2.41,2.88-4.75c1.58-2.34,3.83-5.94,5-8c1.16-2.06,3.07-5.44,4.24-7.5c1.16-2.06,2.88-4.87,3.82-6.25.94-1.37,4.93-9.02,8.86-17c3.94-7.98,7.17-14.84,7.18-15.25s1.37-3.67,3.02-7.25s2.99-7.06,2.98-7.75.36-1.7.82-2.25s2-4.6,3.43-9s3.28-10.25,4.12-13s2.89-10.4,4.56-17c1.66-6.6,4.39-18.86,6.06-27.25s3.29-17.84,3.61-21s.99-6.87,1.5-8.25c.5-1.37,1.17-5.2,1.49-8.5s.91-9.6,1.3-14s.99-8.45,1.33-9c.35-.55.93-4.15,1.3-8s1.05-11.5,1.52-17s1.36-13.82,1.96-18.5c.61-4.68,1.5-12.1,1.97-16.5s1.77-12.27,2.89-17.5s3.6-14.9,5.5-21.5c1.91-6.6,3.78-12.9,4.17-14s1.56-3.91,2.6-6.25s1.89-4.7,1.89-5.25.43-1.79.95-2.75c.53-.96,3.28-6.48,6.13-12.25c2.84-5.77,6.91-13.09,9.04-16.25c2.14-3.16,3.87-6.09,3.87-6.5-.01-.41,1.32-2.32,2.96-4.25c1.63-1.93,2.99-3.84,3.01-4.25s.69-1.54,1.48-2.5c.8-.96,3.6-4.68,6.22-8.25c2.63-3.57,5.04-6.73,5.36-7s1.66-2.07,3-4c1.33-1.93,3.06-4.18,3.85-5c.8-.82,2.61-3.07,4.03-5s3.26-4.18,4.1-5c.83-.82,4.43-4.87,7.99-9c3.56-4.12,10.98-12,16.49-17.5s13.85-13.27,18.52-17.25c4.78-4.08,9.59-7.36,11-7.5c2.28-.23,2.56-.78,3.14-6.25.35-3.3.68-10.28.72-15.5s-.54-11.97-1.28-15c-.75-3.03-2.15-7.75-3.11-10.5-.97-2.75-3.07-7.25-4.68-10-1.6-2.75-3.45-6.24-4.1-7.76-.66-1.52-1.53-2.75-1.94-2.75-.41.01-1.85-1.9-3.2-4.24s-6.41-8.11-11.25-12.83c-4.84-4.71-10.27-9.44-12.06-10.5-1.8-1.05-3.24-2.14-3.22-2.42.03-.28-2.22-1.96-4.98-3.75-2.77-1.79-5.49-3.25-6.04-3.25s-1.22-.67-1.5-1.5-1.17-1.5-2-1.5-1.5-.34-1.49-.75c0-.41-1.23-1.31-2.75-1.99s-7.04-3.47-12.26-6.19c-5.22-2.73-13.33-6.75-18-8.94s-12.1-5.42-16.5-7.18c-4.4-1.75-15.2-5.57-24-8.47-8.8-2.91-23.42-7.11-32.5-9.35s-22.58-5.18-30-6.54-19.35-3.17-26.5-4.03c-7.15-.85-18.85-2-26-2.56-7.15-.55-22.67-.94-34.5-.86s-26.45.51-32.5.95Z" fill="#56a3e0" fill-rule="evenodd"/><path d="M683,67.28c-.27.28-3.65.76-7.5,1.05-3.85.3-8.8,1.04-11,1.65s-4.23.88-4.5.6c-.27-.29-1.63.08-3,.82-1.38.73-4.3,1.64-6.5,2.01-2.2.38-10.75,3.18-19,6.23s-19.05,7.49-24,9.85-11.25,5.41-14,6.77-9.5,4.81-15,7.67-10.67,5.8-11.5,6.54c-.83.73-3.3,2.31-5.5,3.5s-5.17,2.92-6.6,3.85c-1.43.92-3.68,2.41-5,3.31-1.32.89-5.55,3.71-9.4,6.26s-9.02,6.2-11.5,8.12c-2.48,1.91-5.63,4.24-7,5.19-1.38.94-3.93,2.86-5.68,4.26s-5.08,4.11-7.39,6.04-4.92,3.94-5.81,4.48-3.64,2.94-6.12,5.34-6.52,5.99-9,7.98-9.9,9.06-16.5,15.7c-6.6,6.65-14.02,14.34-16.5,17.1s-7.26,8.14-10.63,11.96-7.85,9.19-9.95,11.94-6.69,8.82-10.19,13.5-7,9.29-7.79,10.25-5.04,7.15-9.44,13.75-8,12.23-8,12.5-1.27,2.41-2.83,4.75-3.12,4.93-3.48,5.75c-.35.82-1.99,3.75-3.64,6.5s-6.39,11.86-10.53,20.25c-4.13,8.39-7.52,15.48-7.52,15.75s-.94,2.64-2.08,5.25c-1.15,2.61-2.72,6.21-3.5,8s-1.42,3.7-1.42,4.25-.64,2.46-1.43,4.25-2.18,5.5-3.1,8.25c-.91,2.75-2.55,8.15-3.63,12-1.09,3.85-2.36,8.57-2.84,10.5-.47,1.93-1.56,6.65-2.41,10.5s-2.49,13.3-3.65,21c-1.16,7.72-2.35,21.85-2.65,31.5-.34,10.71-.1,21.38.62,27.5.64,5.5,1.65,12.93,2.24,16.5.58,3.57,2.39,11.9,4.01,18.5s4.1,15.37,5.51,19.5c1.4,4.12,3.44,9.52,4.52,12c1.07,2.48,3.83,8.55,6.11,13.5c2.29,4.95,4.9,10.12,5.81,11.5.91,1.37,2.54,4.08,3.61,6c1.08,1.92,2.59,4.59,3.37,5.93.78,1.33,6.7,10.45,13.16,20.25s14.21,21.08,17.21,25.07s7.27,9.27,9.47,11.75s4.76,5.62,5.69,7c.93,1.37,8.26,9.02,16.3,17s16.41,15.8,18.6,17.4c2.19,1.59,4.43,3.42,4.98,4.06s5.84,4.4,11.75,8.35c5.91,3.96,10.98,7.19,11.25,7.19s2.41,1.27,4.75,2.81c2.34,1.55,6.95,4.05,10.25,5.57c3.3,1.51,6.68,3.16,7.5,3.66.83.51,3.98,2.09,7,3.52c3.02,1.44,10.67,5.13,17,8.22s12.85,6.58,14.5,7.76c1.65,1.17,4.8,2.96,7,3.97s6.02,3.32,8.5,5.13s5.06,3.31,5.75,3.33c.69.01,1.25.48,1.25,1.03s.45,1,1,1s4.6,2.36,9,5.25c4.41,2.89,8.01,5.59,8,6c0,.41.56.76,1.25.77s3.27,1.39,5.75,3.07s4.73,3.41,5,3.84c.27.42,4.33,3.29,9,6.38c4.67,3.08,9.62,6.65,11,7.92c1.37,1.28,4.08,3.42,6,4.75s4.17,3.22,5,4.18c.83.97,2.06,1.78,2.75,1.8s7.81,6.68,15.82,14.79c9.01,9.12,16.56,17.8,19.79,22.75c2.87,4.4,6.16,10.02,7.32,12.5s2.61,5.85,3.22,7.5s1.74,5.48,2.52,8.5c.77,3.02,1.92,9.77,2.55,15c.86,7.07.86,11.68.03,18-.62,4.67-1.8,11.2-2.63,14.5s-2.18,8.02-3.01,10.5-2.2,6.08-3.04,8-2.94,6.42-4.66,10c-1.71,3.58-3.35,6.73-3.64,7s-1.15,1.63-1.93,3c-.78,1.38-2.3,4.08-3.38,6-1.09,1.92-5.16,8.23-9.05,14s-7.62,11.17-8.3,12-2.91,3.75-4.97,6.5-6,7.92-8.75,11.5c-2.76,3.58-6.39,8.3-8.08,10.5-1.68,2.2-3.29,4.23-3.56,4.5s-2.06,2.52-3.96,5c-1.91,2.48-3.82,4.61-4.25,4.75-.44.14-.77.81-.75,1.5.03.69-.71,1.92-1.63,2.75s-3.55,3.98-5.84,7c-2.29,3.03-4.91,6.4-5.82,7.5s-3.95,4.92-6.75,8.5-5.64,7.17-6.31,8-2.32,3.08-3.66,5-2.7,3.72-3.03,4-1.68,2.08-3,4-2.67,3.72-3,4-1.68,2.08-3,4-2.67,3.72-3,4-1.68,2.08-3,4-2.68,3.72-3.03,4c-.34.28-2.58,3.42-4.97,7s-4.65,6.72-5.01,7c-.37.28-4.41,6.13-8.99,13-4.58,6.88-8.7,12.61-9.16,12.75s-.84.7-.84,1.25-4.5,7.75-10,16-10,15.22-10,15.5-1.74,3.09-3.87,6.25-4.83,7.44-6,9.5-3.08,5.44-4.24,7.5-2.46,4.2-2.89,4.75-1.66,2.58-2.73,4.5-2.58,4.63-3.36,6c-.78,1.38-1.64,2.72-1.91,3s-1.13,1.63-1.91,3c-.78,1.38-2.16,3.85-3.08,5.5-.91,1.65-3.42,6.15-5.57,10s-5.12,9.25-6.6,12-7.84,15.35-14.14,28c-6.31,12.65-12.25,24.8-13.2,27-.96,2.2-3.19,7.15-4.96,11s-4.24,9.7-5.49,13-3.07,7.8-4.05,10c-.97,2.2-2.52,6.25-3.45,9s-2.32,6.35-3.07,8c-.76,1.65-4.07,11.1-7.36,21s-7.39,23.17-9.12,29.5-3.52,12.63-3.98,14c-.46,1.38-1.35,4.75-1.99,7.5-.63,2.75-1.58,6.69-2.09,8.75-.52,2.06-1.37,5.44-1.9,7.5s-2.06,8.7-3.41,14.75c-1.34,6.05-3.14,14.38-4.01,18.5-.86,4.13-2.67,13.13-4.03,20-1.36,6.88-3.14,16.1-3.97,20.5-.82,4.4-2.23,12.72-3.13,18.5s-2.48,15.45-3.51,21.5-3.25,20.9-4.93,33-3.77,27.63-4.65,34.5c-.87,6.88-1.97,17-2.45,22.5-.47,5.5-1.36,13.6-1.97,18-.62,4.4-1.33,10.7-1.58,14-.26,3.3-2.02,20.4-3.91,38-1.9,17.6-4.59,43.25-5.99,57-1.39,13.75-2.95,28.38-3.47,32.5-.52,4.13-1.07,10.65-1.23,14.5l-.3,7l302.5.5c.31-5.81.52-9.3.67-11.5.14-2.2.73-8.84,1.3-14.75.56-5.91.95-11.09.86-11.5s.13-2.33.48-4.25c.36-1.92.86-6.87,1.11-11c.25-4.12.69-8.17.97-9c.29-.83.77-5.44,1.07-10.25.29-4.81.73-9.09.95-9.5.23-.41.65-4.35.94-8.75s.78-9.13,1.08-10.5.75-4.75,1.01-7.5c.25-2.75.88-8.38,1.39-12.5.52-4.12.97-8.17,1.01-9c.03-.83.98-7.69,2.11-15.25s1.98-14.09,1.89-14.5.11-1.87.46-3.25c.34-1.37.85-4.97,1.11-8c.27-3.03.96-7.86,1.54-10.75s.97-5.59.88-6s.13-2.33.5-4.25c.36-1.92.84-5.3,1.07-7.5.22-2.2.65-5.12.96-6.5.31-1.37.82-4.53,1.14-7s.77-4.72.98-5c.22-.28.63-2.53.91-5c.27-2.47,1.69-11.25,3.13-19.5c1.45-8.25,2.81-16.35,3.03-18c.21-1.65,1.74-9.75,3.39-18c1.64-8.25,2.8-15.22,2.55-15.5-.24-.28-.04-1.17.45-2s1.15-3.3,1.46-5.5c.32-2.2,1.26-7.15,2.11-11c.84-3.85,2.04-9.25,2.67-12s1.28-5.9,1.46-7c.17-1.1,1-4.7,1.83-8c.84-3.3,1.74-7.35,2.02-9c.27-1.65.97-5.03,1.55-7.5s1.5-6.3,2.05-8.5s1.37-5.58,1.83-7.5s1.1-4.17,1.43-5c.32-.83.83-2.62,1.11-4c.28-1.37.94-4.3,1.46-6.5s2.1-7.83,3.52-12.5c1.41-4.67,2.73-9.4,2.91-10.5.19-1.1.6-2.67.92-3.5s1.51-4.65,2.66-8.5s2.27-7.9,2.49-9c.23-1.1,2.49-8.3,5.04-16s4.99-14.9,5.44-16c.44-1.1,1.34-3.58,2.01-5.5.66-1.92,1.35-4.17,1.52-5c.16-.83.76-2.4,1.31-3.5.56-1.1,2.22-5.6,3.7-10s3.28-9.35,4-11c.73-1.65,3.43-8.4,6-15s5.07-12.9,5.56-14s2.08-4.7,3.54-8s3.75-8.7,5.1-12c1.34-3.3,3.73-8.7,5.32-12c1.58-3.3,5.19-10.95,8.01-17c2.83-6.05,5.52-11.67,6-12.5.47-.83,3.75-7.12,7.29-14c3.53-6.87,8.14-15.65,10.24-19.5c2.09-3.85,5.78-10.38,8.19-14.5s4.8-8.17,5.3-9s2.82-4.65,5.16-8.5s6.42-10.26,9.05-14.25c2.64-3.99,4.8-7.7,4.8-8.25s.34-.99.75-.97c.41.01,1.42-1.22,2.25-2.75s4.65-7.44,8.5-13.13s7.67-11.33,8.5-12.54s5.33-7.5,10-13.99c4.67-6.48,11.05-15.46,14.17-19.95s6.06-8.62,6.54-9.17s2.41-3.25,4.29-6s4.94-7.03,6.8-9.5c1.85-2.47,4.2-5.63,5.22-7c1.01-1.38,7.5-10.15,14.43-19.5c6.92-9.35,13.22-17.9,13.99-19s4.34-6.05,7.94-11c3.59-4.95,6.91-9.45,7.38-10c.46-.55,3.07-4.39,5.79-8.53s5.4-8.3,5.95-9.25c.55-.94,3.66-5.88,6.91-10.97s7.41-11.61,9.25-14.5s3.34-5.7,3.34-6.25.45-1,1-1s1.2-.79,1.45-1.75s1.73-4,3.28-6.75s4.01-7.02,5.47-9.5s4.29-7.42,6.28-11s7.54-14.39,12.32-24.02c4.79-9.64,9.99-20.44,11.56-24c1.57-3.57,4.88-11.43,7.36-17.48c2.47-6.05,6.49-17.08,8.93-24.5c2.45-7.42,5.98-19.58,7.85-27s3.64-14.85,3.91-16.5c.28-1.65,1.65-8.63,3.04-15.5c1.39-6.88,2.69-14.52,2.89-17s.62-4.95.94-5.5c.31-.55.85-3.92,1.19-7.5s1.14-13.7,1.77-22.5c.87-12.2.86-20.28-.05-34-.66-9.9-2.09-24.08-3.18-31.5-1.1-7.42-3.15-18.9-4.57-25.5s-4.65-20.1-7.19-30c-2.53-9.9-6.95-24.75-9.81-33-2.87-8.25-6.41-18.38-7.87-22.5-1.47-4.13-3.08-8.4-3.59-9.5-.5-1.1-1.78-4.25-2.84-7s-3.6-9.05-5.66-14c-2.05-4.95-4.83-11.93-6.17-15.5-1.35-3.57-3.8-10.32-5.44-15-1.65-4.68-3.4-9.4-3.89-10.5-.48-1.1-1.54-4.02-2.34-6.5-.81-2.48-2.84-9.68-4.52-16s-4.06-16.9-5.29-23.5c-1.82-9.82-2.22-15.54-2.21-31.5.01-11.15.57-22.93,1.31-27.5.71-4.4,1.44-9.35,1.6-11c.17-1.65.75-5.02,1.28-7.5s1.01-5.18,1.06-6s.96-6,2.03-11.5c1.06-5.5,3.16-15.4,4.66-22c1.51-6.6,2.82-12.68,2.93-13.5s.97-4.2,1.9-7.5s3.13-10.5,4.89-16c1.75-5.5,3.98-11.24,4.95-12.75.98-1.51,1.79-3.31,1.81-4c.04-1-.26-1-1.5,0-1.01.82-3.01,1.03-5.79.62-2.34-.35-8.08-1.96-12.75-3.57s-9.63-3.45-11-4.09c-1.38-.64-4.98-2.79-8-4.78s-8.88-6.95-13.01-11.02c-4.13-4.08-8.41-8.88-9.5-10.67-1.1-1.8-2.33-3.26-2.74-3.25-.41,0-1.76-1.8-3-4.01-1.24-2.22-2.59-4.02-3-4-.41.01-1.69-1.67-2.83-3.73-1.15-2.06-3.73-5.2-5.75-6.97-2.02-1.78-5.92-5.16-8.67-7.53s-9.73-6.63-15.5-9.47c-5.77-2.85-12.75-6.06-15.5-7.15-2.75-1.08-10.63-3.58-17.5-5.55-6.88-1.97-16.55-4.75-21.5-6.17s-12.15-3.48-16-4.57-8.13-2.38-9.5-2.85c-1.38-.47-8.58-2.5-16-4.5s-16.65-4.8-20.5-6.22c-3.85-1.41-8.13-3.35-9.5-4.3-1.38-.95-3.51-3.81-4.75-6.35s-2.7-4.84-3.25-5.12-2.13-2.3-3.5-4.5c-1.38-2.2-3.74-5.12-5.25-6.49-1.51-1.36-4.55-3.87-6.75-5.57s-6.92-4.48-10.5-6.18-11-4.41-16.5-6.02c-8.71-2.56-12.12-3-26.5-3.45-9.08-.29-16.73-.29-17-.01ZM1718.5,175.97c-5.5.45-15.63,1.76-22.5,2.91-6.88,1.16-15.88,3.02-20,4.15-4.13,1.13-9.97,2.9-13,3.94s-9.33,3.32-14,5.06-9.85,3.69-11.5,4.34c-1.65.64-4.13,1.91-5.5,2.82-1.38.91-4.87,2.7-7.77,3.98s-5.26,2.67-5.25,3.08-.43.75-.98.75-3.36,1.41-6.25,3.12c-4.62,2.75-5.61,3-8.25,2.03-1.65-.6-3.08-1-3.19-.87-.1.12-.49,5.4-.86,11.72-.66,10.94-.55,11.91,2.18,20.07c1.58,4.71,3.38,9.21,3.99,10c.62.78,1.75,3.12,2.5,5.19.76,2.07,1.72,3.76,2.13,3.75.41,0,.75.44.75.99s.84,2.69,1.87,4.75s4.07,8.06,6.75,13.32s5.39,10.21,6.02,11s3.34,5.7,6.03,10.93s6.75,13.77,9.04,19c2.28,5.23,5.03,11.98,6.11,15c1.07,3.02,2.79,9.1,3.81,13.5c1.48,6.34,1.85,11.73,1.78,26-.06,12.86-.59,20.57-1.85,27-1.08,5.51-1.81,14.04-1.87,22-.09,10.85.29,14.41,2.27,21.5c1.31,4.68,3.6,11.43,5.1,15c1.49,3.57,4.17,9.43,5.95,13s3.99,7.85,4.91,9.5s5.86,9.3,10.99,17c5.12,7.7,9.61,14.23,9.98,14.5s2.34,2.86,4.39,5.75s3.72,5.7,3.72,6.25.6,1.34,1.34,1.75s4.94,6.15,9.34,12.75s8.73,13.35,9.62,15c.9,1.65,2.32,4.46,3.16,6.25.85,1.79,1.81,5.16,2.14,7.5.34,2.34.11,6.16-.5,8.5-.6,2.34-2.56,6.14-4.35,8.45-1.79,2.3-5.05,5.45-7.25,7-2.2,1.54-5.35,3.44-7,4.22s-5.25,2.38-8,3.55-9.5,3.27-15,4.66-11.35,3.15-13,3.91-3.67,2.6-4.5,4.08c-1.13,2.02-1.5,6.05-1.5,16.28v13.6c6.95,12.51,7.5,14.42,7.52,19.75.02,3.51-.68,8-1.59,10.25-.9,2.2-3.49,6.44-5.78,9.41-3.91,5.11-4.15,5.8-4.12,12c.02,3.63.21,10.19.43,14.59.21,4.4.16,9.13-.12,10.5-.29,1.38-1.2,3.85-2.04,5.5s-4.08,5.25-7.2,8c-3.13,2.75-6.12,6.35-6.66,8-.53,1.65-.97,4.8-.97,7c.01,2.2,1.15,10.08,2.53,17.5c1.39,7.42,2.98,18.45,3.52,24.5.62,6.86.65,12.88.07,16-.51,2.75-1.17,6.13-1.48,7.5-.3,1.38-1.69,4.86-3.08,7.75s-5.12,7.79-8.28,10.91c-3.72,3.65-8.23,6.79-12.75,8.88-3.85,1.78-9.03,3.71-11.5,4.3-2.47.58-7.42,1.87-11,2.85-5.54,1.53-10.56,1.79-34,1.75-23.84-.03-29.56-.35-43-2.42-10.24-1.58-20.08-2.41-29-2.45-12.24-.06-14.01.16-19,2.38-3.03,1.35-7.3,3.8-9.5,5.44-2.2,1.65-5.46,4.94-7.25,7.3-1.79,2.37-4.94,7.8-7,12.06-2.07,4.26-4.29,9.33-4.94,11.25-.66,1.92-1.93,6.42-2.85,10-.91,3.58-2.29,9.65-3.07,13.5s-1.6,8.58-1.83,10.5-1.34,7.1-2.46,11.5-3,10.7-4.17,14-4.04,9.6-6.38,14-5.83,10.7-7.77,14-4.18,6.67-4.98,7.5c-.81.83-8.18,11.65-16.38,24.06-8.21,12.4-17.9,27.25-21.54,33-3.64,5.74-8.44,13.59-10.65,17.44-2.22,3.85-6.73,12.4-10.03,19-3.29,6.6-6.98,14.7-8.19,18-1.2,3.3-3.06,8.7-4.13,12-1.06,3.3-2.6,9.04-3.41,12.75s-1.48,10.46-1.49,15c-.02,5.44.65,10.47,1.96,14.75c1.1,3.58,3.7,9.88,5.79,14s4.81,8.96,6.04,10.75s2.23,3.59,2.23,4s1.58,3,3.52,5.75s3.51,5.56,3.5,6.25.43,1.25.98,1.25s1,.45,1,1s7.94,12.81,17.64,27.25c9.71,14.44,18.15,26.72,18.75,27.3.61.58,2.67,3.51,4.59,6.5c1.91,3,4.01,5.9,4.65,6.45.65.55,2.8,3.59,4.78,6.75c1.97,3.16,4.49,6.65,5.59,7.75s2.67,3.35,3.5,5s1.95,3,2.5,3s1,.45,1,1s1.6,3.14,3.57,5.75c1.96,2.61,4.13,5.42,4.82,6.25s1.56,2.51,1.93,3.75c.38,1.24,1.02,2.23,1.43,2.2.41-.02,2.63,2.79,4.94,6.25c2.3,3.47,5.13,7.42,6.28,8.8c1.15,1.37,2.08,3.06,2.06,3.75s.59,1.59,1.35,2s5.77,7.5,11.14,15.75s10.69,15.9,11.81,17c1.11,1.1,2.62,3.46,3.35,5.25s2.5,4.49,3.95,6s3.23,4.1,3.95,5.75s2.92,5.25,4.89,8c1.96,2.75,3.56,5.56,3.55,6.25s.54,1.59,1.23,2s1.88,1.87,2.66,3.25c.78,1.37,2.32,4.08,3.42,6c1.11,1.92,3.2,5.75,4.64,8.5s3.37,6.12,4.28,7.5c.91,1.37,3.92,6.78,6.68,12s7.79,15.12,11.18,22c3.38,6.87,7.62,15.65,9.41,19.5c1.8,3.85,4.48,9.7,5.98,13c1.49,3.3,4.97,11.62,7.72,18.5c2.76,6.87,6.12,15.42,7.47,19s4.48,12.12,6.95,19c2.47,6.87,6.75,19.47,9.52,28c2.76,8.53,6.98,22.25,9.37,30.5s6.15,22.2,8.36,31c2.2,8.8,5.79,24.55,7.97,35c2.19,10.45,5.34,27.78,7.02,38.5s4.16,28.5,5.52,39.5s2.93,24.72,3.48,30.5s1.59,16.02,2.31,22.76l1.31,12.25c263.13-.01,270.54-.11,271.18-1.76.38-.96.14-10.75-.52-21.75-.67-11-1.7-23.83-2.3-28.5-.59-4.67-2.41-17.5-4.04-28.5s-4.5-28.1-6.38-38c-1.89-9.9-4.39-22.5-5.56-28s-4.75-20.58-7.94-33.5-6.92-27.33-8.29-32c-1.36-4.67-4.29-14.13-6.5-21-2.21-6.88-4.91-15.2-6.01-18.5s-3.78-10.95-5.95-17c-2.18-6.05-5.29-14.6-6.92-19-1.64-4.4-3.65-9.35-4.49-11s-2.52-5.92-3.73-9.5c-1.22-3.58-3.7-9.65-5.51-13.5s-4.95-10.6-6.98-15-7.96-16.55-13.18-27-10.83-21.25-12.46-24-3.26-5.67-3.62-6.5-.91-1.72-1.23-2c-.31-.28-1.51-2.3-2.67-4.5-1.15-2.2-3.12-5.8-4.37-8s-3.14-5.13-4.19-6.5c-1.05-1.38-1.89-2.84-1.87-3.25.01-.41-1.32-2.78-2.97-5.25s-3-4.95-3-5.5-.45-1-1-1-1.56-1.23-2.25-2.74c-.69-1.5-2.04-3.53-3-4.5s-1.75-2.43-1.75-3.26-.45-1.5-1-1.5-1-.45-1-1-4.05-7.08-9-14.5-9.9-14.4-11-15.5-2-2.67-2-3.5-.34-1.48-.75-1.46c-.41.01-2.2-2.12-3.97-4.75-1.77-2.64-3.8-5.69-4.5-6.79s-1.59-2.22-1.96-2.5-2.52-3.2-4.77-6.5c-2.24-3.3-5.76-8.31-7.82-11.13-2.05-2.82-5.74-7.99-8.21-11.5-2.46-3.5-5.27-7.16-6.25-8.12-.97-.96-1.77-2.42-1.77-3.25s-.34-1.48-.75-1.46-2.38-2.57-4.37-5.75c-1.99-3.19-4.47-6.67-5.5-7.74-1.03-1.08-6.27-8.62-11.63-16.75-5.36-8.14-10.65-15.7-11.75-16.8s-2-2.67-2-3.5-.37-1.61-.83-1.75-3.61-4.41-7-9.5-6.17-9.47-6.17-9.75-3.04-5.11-6.75-10.75-7.52-11.6-8.47-13.25c-.94-1.65-3.86-7.28-6.47-12.5l-4.75-9.5c-.57-21.12-.22-29.83.44-33.5.64-3.58,2.27-9.88,3.63-14c1.35-4.13,3.89-10.42,5.63-14s5.31-9.65,7.94-13.5c2.62-3.85,6.21-9.03,7.98-11.5c1.76-2.47,5.19-6.97,7.63-10c2.43-3.03,7.18-8.61,10.56-12.41c3.37-3.81,6.6-7.41,7.18-8c.59-.6,2.87-3.79,5.07-7.09c2.21-3.3,6.54-11.17,9.62-17.5s7.02-12.85,8.75-14.5c2.37-2.26,4.08-3,6.96-3c3.19,0,4.75.83,9.34,5c3.04,2.75,7.7,6.9,10.36,9.22c2.67,2.32,6.65,5.45,8.85,6.95s6.03,4.28,8.5,6.18c2.47,1.89,5.85,4.06,7.5,4.81s3.9,1.93,5,2.6c1.1.68,2.22,1.54,2.5,1.91s7.04,3.97,15.02,8c7.99,4.03,17.22,8.54,20.5,10.01c3.29,1.47,7.78,3.43,9.98,4.35s5.35,2.1,7,2.63s8.4,2.55,15,4.48c9.85,2.88,14.24,3.61,24.5,4.06c9.82.44,13.46.23,17-.99c2.47-.86,6.53-2.53,9-3.72s5.62-2.75,7-3.46c1.37-.72,4.75-3.94,7.5-7.17c2.75-3.22,5.22-6.08,5.5-6.36s1.29-1.85,2.26-3.5c.96-1.65,3.16-5.92,4.89-9.5s4.89-13.48,7.03-22s4.66-17.2,5.6-19.27c1.31-2.87,2.8-4.23,6.22-5.64c2.47-1.03,6.97-2.39,10-3.03c3.03-.63,6.62-1.86,8-2.73c1.37-.88,3.77-2.77,5.33-4.21s3.49-4.2,4.29-6.12c.81-1.92,1.95-6.65,2.55-10.5.59-3.85,1.81-8.06,2.71-9.35.89-1.29,3.65-3.65,6.12-5.23s5.29-2.88,6.25-2.9c.96-.01,3.81-1.93,6.33-4.27s5.22-5.6,6.01-7.25c.78-1.65,1.92-6.38,2.53-10.5.61-4.13,1.89-9.98,2.86-13c.96-3.02,3.05-8.15,4.63-11.38c1.78-3.62,4.43-7.05,6.89-8.93c3.91-2.99,4.2-3.05,12.5-2.53c4.67.3,9.51,1.05,10.75,1.69c1.24.63,7.09,1.62,13,2.18c5.91.57,12.1.76,13.75.41c1.65-.34,4.8-1.21,7-1.93s6.03-2.28,8.5-3.48c2.57-1.24,5.56-3.75,6.96-5.85c1.89-2.82,2.56-5.32,2.84-10.68.21-3.85-.6-15.1-1.8-25-1.19-9.9-2.54-20.92-2.99-24.5-.46-3.58-1.41-11-2.1-16.5-.7-5.5-1.29-19-1.31-30-.02-11.77.5-23.29,1.27-28c.71-4.4,1.96-11.15,2.77-15s3.41-11.05,5.79-16c2.37-4.95,5.42-10.35,6.77-12s3.97-5.25,5.83-8s4.03-5.67,4.82-6.5c.8-.83,3.02-3.98,4.94-7c1.93-3.02,4.76-7.98,6.31-11c1.54-3.02,3.75-8.2,4.89-11.5c1.15-3.3,2.94-10.05,3.97-15s1.92-9.67,1.98-10.5.52-5.33,1.02-10s.93-23.13.96-41c.04-17.88.49-37.45,1-43.5.52-6.05,1.43-13.14,2.01-15.75.59-2.61,1.73-5.99,2.54-7.5s3.11-4.32,5.1-6.25s5.31-5.98,7.38-9c2.06-3.02,4.68-7.98,5.81-11c1.14-3.02,2.64-9.32,3.34-14c1.01-6.71,1.03-11.66.11-23.5-.84-10.8-1.99-17.94-4.12-25.5-1.63-5.77-3.71-12.3-4.62-14.5s-2.34-5.57-3.17-7.5-2.02-4.62-2.65-5.99-2.91-5.42-5.06-9c-2.14-3.58-7.54-11.86-12-18.4-4.45-6.54-8.54-12.6-9.09-13.46s-1.63-2.26-2.41-3.11c-.77-.85-2.57-3.11-3.99-5.04-1.43-1.93-3.77-4.63-5.2-6-1.44-1.38-4.3-4.52-6.35-7-2.06-2.48-6.58-7.43-10.03-11-3.46-3.57-8.9-8.75-12.08-11.5-3.19-2.75-7.4-6.57-9.37-8.5-1.96-1.93-5.82-5.3-8.57-7.5s-5.9-4.93-7-6.08c-1.1-1.14-3.47-2.94-5.26-4-1.8-1.05-3.26-2.26-3.25-2.67c0-.41-1.23-1.37-2.74-2.12s-3.42-2.01-4.25-2.8-4.42-3.41-8-5.81-6.72-4.7-7-5.11-3.54-2.81-7.25-5.33-7.09-4.58-7.5-4.58c-.41.01-3.11-1.57-6-3.5-2.89-1.92-5.47-3.5-5.75-3.5s-1.74-.85-3.25-1.88c-1.51-1.04-4.55-2.91-6.75-4.15-2.2-1.25-6.7-3.77-10-5.6-3.3-1.82-10.28-5.47-15.5-8.09-5.22-2.63-9.61-5.12-9.75-5.53s-.81-.75-1.5-.75-4.96-1.8-9.5-4-8.81-3.99-9.5-3.98-1.7-.38-2.25-.85c-.55-.48-4.15-2.11-8-3.62s-9.03-3.4-11.5-4.2-5.4-1.86-6.5-2.37-4.7-1.79-8-2.86-8.92-2.85-12.5-3.96-11.9-3.34-18.5-4.97c-6.6-1.62-17.17-3.9-23.5-5.06s-16.67-2.79-23-3.62c-6.33-.84-21.85-1.71-34.5-1.94-12.65-.24-27.5-.06-33,.4Z" fill="#a0dce6" fill-rule="evenodd"/><path d="M1317,57.140625c-11.83.08-26.45.509219-32.5.949219-6.05.45-15.5,1.310156-21,1.910156s-15.85,2.010859-23,3.130859-20.42,3.749844-29.5,5.839844-21.22,5.24-27,7-13.88,4.35-18,5.75c-4.13,1.4-9.4806,3.380156-11.8906,4.410156s-4.66,1.859375-5,1.859375c-.34-.01-3.9794,1.590547-8.1094,3.560547s-9.97,4.819844-13,6.339844c-3.03,1.53-9.1,4.709845-13.5,7.089845-4.4,2.37-8.67,4.90867-9.5,5.63867s-1.84,1.34156-2.25,1.35156c-.41.02-3.22,1.8293-6.25,4.0293s-5.84,4.01906-6.25,4.03906-2.2007,1.26-3.9707,2.75c-1.78,1.49-5.7802,4.74094-8.9102,7.21094-3.12,2.47-12.5091,11.25-20.8691,19.5-8.35,8.25-17.8496,18.5907-21.0996,22.9707-3.24,4.38-7.3413,10.23-9.1113,13-1.76,2.77-3.56,5.4793-4,6.0293-.43.55-2.0384,3.25-3.5684,6-1.52,2.75-4.8602,9.28-7.4102,14.5-2.3306,4.77098-4.5866,9.97623-5.3085,12.20312-.1198-.39577-.5202-.2134-1.4629.54688-1.01.82-3.0091,1.02914-5.7891.61914-2.34-.35-8.08-1.95836-12.75-3.56836s-9.63-3.44984-11-4.08984c-1.38-.64-4.98-2.79125-8-4.78125s-8.87977-6.94953-13.00977-11.01953c-4.13-4.08-8.41-8.87993-9.5-10.66993-1.1-1.8-2.33023-3.26-2.74023-3.25-.41,0-1.76-1.79976-3-4.00976-1.24-2.22-2.59-4.02-3-4-.41.01-1.69008-1.67047-2.83008-3.73047-1.15-2.06-3.73-5.2007-5.75-6.9707-2.02-1.78-5.91992-5.1593-8.66992-7.5293s-9.73-6.6307-15.5-9.4707c-5.77-2.85-12.75-6.05844-15.5-7.14844-2.75-1.08-10.63-3.58078-17.5-5.55078-6.88-1.97-16.55-4.74992-21.5-6.16992s-12.15-3.48032-16-4.57032-8.13-2.37961-9.5-2.84961c-1.38-.47-8.58-2.5-16-4.5s-16.65-4.8007-20.5-6.2207c-3.85-1.41-8.13-3.34883-9.5-4.29883-1.38-.95-3.51-3.81156-4.75-6.35156s-2.7-4.83914-3.25-5.11914-2.13-2.3-3.5-4.5c-1.38-2.2-3.74-5.120234-5.25-6.490234-1.51-1.36-4.55-3.870313-6.75-5.570313s-6.92-4.479687-10.5-6.179687-11-4.409532-16.5-6.019532c-8.71-2.56-12.12-3.001171-26.5-3.451172-9.08-.289999-16.73-.289765-17-.0098s-3.65.760781-7.5,1.050781c-3.85.3-8.8,1.040391-11,1.650391s-4.23.879609-4.5.599609c-.27-.29-1.63.08031-3,.820313-1.38.73-4.3,1.639765-6.5,2.009765-2.2.38-10.75,3.180469-19,6.230469s-19.05,7.489609-24,9.849609-11.25,5.409532-14,6.769532-9.5,4.809929-15,7.669929-10.67,5.80101-11.5,6.54101c-.83.73-3.3,2.31-5.5,3.5s-5.16961,2.91961-6.59961,3.84961c-1.43.92-3.68,2.41055-5,3.31055-1.32.89-5.55039,3.70977-9.40039,6.25976s-9.02,6.19915-11.5,8.11914c-2.48,1.91-5.63,4.23945-7,5.18945-1.38.94-3.92969,2.86172-5.67969,4.26172s-5.08062,4.10906-7.39062,6.03906-4.92055,3.94047-5.81055,4.48047-3.63914,2.93984-6.11914,5.33984-6.52,5.99047-9,7.98047-9.9,9.05923-16.5,15.69922c-6.6,6.65-14.02,14.33961-16.5,17.09962s-7.26086,8.14094-10.63086,11.96093-7.84922,9.18945-9.94922,11.93945-6.68945,8.82-10.18945,13.5-7.00102,9.29-7.79102,10.25-5.03945,7.15-9.43945,13.75-8,12.23-8,12.5-1.27008,2.41-2.83008,4.75-3.12047,4.93-3.48047,5.75c-.35.82-1.98867,3.75-3.63867,6.5s-6.39125,11.86-10.53125,20.25c-4.13,8.39-7.51953,15.48-7.51953,15.75s-.94008,2.64-2.08008,5.25c-1.15,2.61-2.72,6.21-3.5,8s-1.41992,3.7-1.41992,4.25-.63969,2.46-1.42969,4.25-2.17961,5.5-3.09961,8.25c-.91,2.75-2.55086,8.15-3.63086,12-1.09,3.85-2.35984,8.57-2.83984,10.5-.47,1.93-1.56016,6.65-2.41016,10.5s-2.49039,13.3-3.65039,21c-1.16,7.72-2.35039,21.85-2.65039,31.5-.34,10.71-.0989,21.38.6211,27.5.64,5.5,1.65023,12.93,2.24023,16.5.58,3.57,2.38977,11.9,4.00977,18.5s4.09976,15.37,5.50976,19.5c1.4,4.12,3.43953,9.52,4.51953,12c1.07,2.48,3.83133,8.55,6.11133,13.5c2.29,4.95001,4.8986,10.12,5.8086,11.5.91,1.37,2.54132,4.08001,3.61132,6c1.08,1.92,2.58914,4.58969,3.36914,5.9297.78,1.33,6.70016,10.45,13.16016,20.25s14.21094,21.08031,17.21094,25.0703s7.26875,9.27,9.46875,11.75s4.75945,5.62,5.68945,7c.93,1.37,8.26078,9.02,16.30078,17s16.40961,15.80039,18.59961,17.40039c2.19,1.59001,4.43047,3.42056,4.98047,4.06056s5.84,4.39961,11.75,8.3496c5.91,3.96001,10.98,7.18945,11.25,7.18945s2.41,1.27055,4.75,2.81055c2.34,1.55,6.95,4.05031,10.25,5.57031c3.3,1.51,6.68,3.1582,7.5,3.6582.83.51,3.98,2.09149,7,3.52149c3.02,1.44,10.67,5.12875,17,8.21875s12.85,6.57976,14.5,7.75976c1.65,1.17,4.8,2.96071,7,3.97071s6.02,3.32085,8.5,5.13085s5.06,3.31008,5.75,3.33008c.69.01,1.25.4793,1.25,1.0293s.45,1,1,1s4.6,2.36,9,5.25c4.41,2.89,8.01,5.59,8,6c0,.41.56.75954,1.25.76953s3.27,1.39031,5.75,3.07031s4.73,3.40985,5,3.83985c.27.42,4.33,3.29086,9,6.38086c4.67,3.08,9.62,6.64992,11,7.91992c1.37,1.28,4.08,3.42,6,4.75s4.17,3.21969,5,4.17969c.83.97001,2.06,1.78079,2.75,1.80079s7.81031,6.67906,15.82031,14.78905c9.01,9.12,16.55906,17.8,19.78907,22.75c2.87,4.4,6.16031,10.02,7.32031,12.5s2.6107,5.85,3.2207,7.5s1.73953,5.48,2.51953,8.5c.77,3.02,1.92078,9.77,2.55078,15c.86,7.07001.8593,11.68.0293,18-.62,4.67-1.80086,11.20001-2.63086,14.5s-2.17977,8.02-3.00976,10.5-2.19907,6.08001-3.03907,8-2.94015,6.42-4.66015,10c-1.71,3.58001-3.35063,6.73-3.64063,7s-1.14969,1.63-1.92969,3c-.78,1.38-2.2989,4.08001-3.3789,6-1.09,1.92-5.16078,8.23-9.05078,14s-7.62079,11.17-8.30078,12-2.90876,3.75-4.96876,6.5-6,7.92-8.75,11.5c-2.75999,3.58001-6.39007,8.3-8.08007,10.5-1.68,2.20001-3.29055,4.23-3.56055,4.5s-2.06094,2.52004-3.96094,5.00004c-1.91,2.48-3.82,4.61-4.25,4.75-.44.14-.77.81-.75,1.5.03.69-.7089,1.92-1.6289,2.75s-3.54985,3.98-5.83985,7c-2.29,3.03-4.91031,6.4-5.82031,7.5s-3.95,4.92-6.75,8.5-5.64055,7.17-6.31055,8-2.32015,3.08-3.66015,5-2.6993,3.72-3.0293,4-1.68,2.08-3,4-2.67,3.72-3,4-1.68,2.08-3,4-2.67,3.72-3,4-1.68,2.08-3,4-2.6793,3.72-3.0293,4c-.34.28-2.5807,3.42-4.9707,7s-4.64977,6.72-5.00977,7c-.37.28-4.41023,6.13-8.99023,13-4.58,6.88-8.70016,12.61-9.16016,12.75s-.83984.7-.83984,1.25-4.5,7.75-10,16-10,15.22-10,15.5-1.73914,3.09-3.86914,6.25-4.83,7.44-6,9.5-3.08024,5.44-4.24024,7.5-2.46062,4.2-2.89062,4.75-1.66047,2.58-2.73047,4.5-2.57937,4.63-3.35937,6c-.78,1.38-1.64016,2.72-1.91016,3s-1.13016,1.63-1.91016,3c-.78,1.38-2.16007,3.85-3.08007,5.5-.91,1.65-3.42032,6.15-5.57032,10s-5.11961,9.25-6.59961,12-7.84062,15.35-14.14062,28c-6.31,12.65-12.24922,24.8-13.19922,27-.96,2.2-3.19094,7.15-4.96094,11s-4.23828,9.7-5.48828,13-3.07078,7.8-4.05078,10c-.97,2.2-2.51922,6.25-3.44922,9s-2.32031,6.35-3.07031,8c-.76,1.65-4.07133,11.1-7.36133,21s-7.38914,23.17-9.11914,29.5-3.52047,12.63-3.98047,14c-.46,1.38-1.35023,4.75-1.99023,7.5-.63,2.75-1.57985,6.69-2.08985,8.75-.52,2.06-1.37039,5.44-1.90039,7.5s-2.0582,8.7-3.4082,14.75c-1.34,6.05-3.14172,14.38-4.01172,18.5-.86,4.13-2.6693,13.13-4.0293,20-1.36,6.88-3.1407,16.1-3.9707,20.5-.82,4.4-2.22891,12.72-3.12891,18.5s-2.47976,15.45-3.50976,21.5-3.24969,20.9-4.92969,33-3.77039,27.63-4.65039,34.5c-.87,6.88-1.97117,17-2.45117,22.5-.47,5.5-1.35875,13.6-1.96875,18-.62,4.4-1.33008,10.7-1.58008,14-.26,3.3-2.02016,20.4-3.91016,38-1.9,17.6-4.59023,43.25-5.99023,57-1.39,13.75-2.9507,28.38-3.4707,32.5-.52,4.13-1.06852,10.65-1.22852,14.5l-.30078,7c0,0,1545.5397.4,1546.1797-1.25.38-.96.1405-10.75-.5195-21.75-.67-11-1.7008-23.83-2.3008-28.5-.59-4.67-2.4091-17.5-4.0391-28.5s-4.5008-28.1-6.3808-38c-1.89-9.9-4.3886-22.5-5.5586-28s-4.7514-20.58-7.9414-33.5-6.9191-27.33-8.2891-32c-1.36-4.67-4.29-14.13-6.5-21-2.21-6.88-4.9098-15.2-6.0098-18.5s-3.7811-10.95-5.9511-17c-2.18-6.05-5.29-14.6-6.92-19-1.64-4.4-3.6502-9.35-4.4902-11s-2.5185-5.92-3.7285-9.5c-1.22-3.58-3.7017-9.65-5.5117-13.5s-4.9486-10.6-6.9786-15-7.9596-16.55-13.1796-27-10.831-21.25-12.461-24-3.2591-5.67-3.6191-6.5-.9105-1.72-1.2305-2c-.31-.28-1.5099-2.3-2.6699-4.5-1.15-2.2-3.1211-5.8-4.3711-8s-3.1395-5.13-4.1895-6.5c-1.05-1.38-1.8891-2.84-1.8691-3.25.01-.41-1.3207-2.78-2.9707-5.25s-3-4.95-3-5.5-.45-1-1-1-1.56-1.2302-2.25-2.7402c-.69-1.5-2.04-3.53-3-4.5s-1.75-2.4298-1.75-3.2598-.45-1.5-1-1.5-1-.45-1-1-4.05-7.08-9-14.5-9.9-14.4-11-15.5-2-2.67-2-3.5-.34-1.4809-.75-1.4609c-.41.01-2.2007-2.12-3.9707-4.75-1.77-2.64-3.8-5.6891-4.5-6.7891s-1.589-2.22-1.959-2.5-2.5195-3.2-4.7695-6.5c-2.24-3.3-5.7603-8.3109-7.8203-11.1309-2.05-2.82-5.741-7.99-8.211-11.5-2.46-3.5-5.27-7.1591-6.25-8.1191-.97-.96-1.7695-2.42-1.7695-3.25s-.34-1.4809-.75-1.4609-2.3791-2.57-4.3691-5.75c-1.99-3.19-4.47-6.6683-5.5-7.7383-1.03-1.08-6.2709-8.62-11.6309-16.75-5.36-8.14-10.65-15.7008-11.75-16.8008s-2-2.67-2-3.5-.3701-1.61-.8301-1.75-3.61-4.41-7-9.5-6.1699-9.47-6.1699-9.75-3.04-5.11-6.75-10.75-7.5207-11.6-8.4707-13.25c-.94-1.65-3.8588-7.28-6.4688-12.5l-4.75-9.5c-.57-21.12-.2205-29.83.4395-33.5.64-3.58,2.2709-9.88,3.6309-14c1.35-4.13,3.8889-10.42,5.6289-14s5.3094-9.65,7.9394-13.5c2.62-3.85,6.2105-9.03,7.9805-11.5c1.76-2.47,5.1908-6.97,7.6308-10c2.43-3.03,7.1786-8.6102,10.5586-12.4102c3.37-3.81,6.6017-7.41,7.1817-8c.59-.6,2.8683-3.7898,5.0683-7.0898c2.21-3.3,6.5411-11.17,9.6211-17.5s7.02-12.85004,8.75-14.50004c2.37-2.26,4.079-3,6.959-3c3.19,0,4.7499.83001,9.3399,5c3.04,2.75,7.7013,6.90074,10.3613,9.22074c2.67,2.32,6.6496,5.4492,8.8496,6.9492s6.03,4.2797,8.5,6.1797c2.47,1.89,5.85,4.0606,7.5,4.8106s3.9,1.9296,5,2.5996c1.1.68,2.22,1.5401,2.5,1.9101s7.0395,3.97,15.0195,8c7.99,4.03,17.22,8.5398,20.5,10.0098c3.29,1.47,7.7805,3.4296,9.9805,4.3496s5.35,2.1009,7,2.6309s8.4,2.5504,15,4.4804c9.85,2.88,14.24,3.6086,24.5,4.0586c9.82.44,13.46.2317,17-.9883c2.47-.86,6.53-2.5307,9-3.7207s5.62-2.7509,7-3.4609c1.37-.72,4.75-3.9399,7.5-7.1699c2.75-3.22,5.22-6.0794,5.5-6.3594s1.2898-1.85,2.2598-3.5c.96-1.65,3.1606-5.92,4.8906-9.5s4.8893-13.48,7.0293-22s4.6596-17.19957,5.5996-19.26957c1.31-2.87,2.8007-4.23063,6.2207-5.64063c2.47-1.03,6.97-2.38929,10-3.02929c3.03-.62999,6.62-1.86046,8-2.73046c1.37-.88,3.7701-2.77094,5.3301-4.21095s3.489-4.19913,4.289-6.11914c.81-1.91999,1.9508-6.65,2.5508-10.5.59-3.85,1.811-8.05961,2.711-9.34961.89-1.28999,3.6491-3.65047,6.1191-5.23046s5.29-2.8804,6.25-2.9004c.96-.01,3.8101-1.92953,6.3301-4.26953s5.2197-5.6,6.0097-7.25c.78-1.65,1.9193-6.38,2.5293-10.5.61-4.13,1.8914-9.98,2.8614-13c.96-3.02,3.0489-8.15086,4.6289-11.38086c1.78-3.62,4.4306-7.04969,6.8906-8.92969c3.91-2.99,4.2-3.04929,12.5-2.52929c4.67.3,9.51,1.04945,10.75,1.68945c1.24.63,7.09,1.61969,13,2.17969c5.91.57001,12.1.76015,13.75.41016c1.65-.34,4.8-1.20969,7-1.92968s6.03-2.28047,8.5-3.48047c2.57-1.24,5.5609-3.74961,6.9609-5.84961c1.89-2.82,2.5599-5.31969,2.8399-10.67969.21-3.85-.6008-15.1-1.8008-25-1.19-9.9-2.5402-20.92-2.9902-24.5-.46-3.58-1.4096-11-2.0996-16.5-.7-5.5-1.2906-19-1.3106-30-.02-11.77.4995-23.29,1.2695-28c.71-4.4,1.9615-11.15,2.7715-15s3.4091-11.05,5.7891-16c2.37-4.95,5.4195-10.35,6.7695-12s3.9701-5.25,5.8301-8s4.0303-5.67,4.8203-6.5c.8-.83,3.0195-3.98,4.9395-7c1.93-3.02,4.7605-7.98,6.3105-11c1.54-3.02,3.7506-8.2,4.8906-11.5c1.15-3.3,2.9407-10.05,3.9707-15s1.9186-9.67,1.9786-10.5.5214-5.33,1.0214-10s.929-23.13.959-41c.04-17.88.49-37.45,1-43.5.52-6.05,1.4298-13.14,2.0098-15.75.59-2.61,1.731-5.99,2.541-7.5s3.1096-4.32,5.0996-6.25s5.3089-5.98,7.3789-9c2.06-3.02,4.6806-7.98,5.8106-11c1.14-3.02,2.6398-9.32,3.3398-14c1.01-6.71,1.0313-11.66.1113-23.5-.84-10.8-1.9911-17.94-4.1211-25.5-1.63-5.77-3.7091-12.3-4.6191-14.5s-2.3399-5.57-3.1699-7.5-2.0204-4.62023-2.6504-5.99023-2.9106-5.42-5.0606-9c-2.14-3.58-7.54-11.8604-12-18.40039-4.45-6.54001-8.5398-12.59899-9.0898-13.45899s-1.6302-2.26133-2.4102-3.11133c-.77-.85-2.5702-3.10906-3.9902-5.03906-1.43-1.93-3.7692-4.63-5.1992-6-1.44-1.38-4.2996-4.52-6.3496-7-2.06-2.48-6.5813-7.43-10.0313-11-3.46-3.57-8.9-8.75-12.08-11.5-3.19-2.75-7.3992-6.57-9.3692-8.5-1.96-1.93-5.8203-5.3-8.5703-7.5s-5.9-4.93008-7-6.08008c-1.1-1.14-3.4698-2.94-5.2598-4-1.8-1.05-3.26-2.25992-3.25-2.66992c0-.41-1.2302-1.36914-2.7402-2.11914s-3.42-2.01078-4.25-2.80078-4.42-3.41055-8-5.81055-6.72-4.69937-7-5.10937-3.54-2.81008-7.25-5.33008-7.09-4.58008-7.5-4.58008c-.41.01-3.11-1.57-6-3.5-2.89-1.92-5.47-3.5-5.75-3.5s-1.74-.85086-3.25-1.88086c-1.51-1.04-4.55-2.90844-6.75-4.14844-2.2-1.25-6.7-3.77156-10-5.60156-3.3-1.82-10.28-5.46984-15.5-8.08984-5.22-2.63-9.61-5.1193-9.75-5.5293s-.81-.75-1.5-.75-4.96-1.8-9.5-4-8.81-3.99047-9.5-3.98047-1.7-.37961-2.25-.84961c-.55-.48-4.15-2.10914-8-3.61914s-9.03-3.40117-11.5-4.20117-5.4-1.85914-6.5-2.36914-4.7-1.79133-8-2.86133-8.92-2.84898-12.5-3.95898-11.9-3.34071-18.5-4.97071c-6.6-1.62-17.17-3.89859-23.5-5.05859s-16.67-2.79109-23-3.62109c-6.33-.84-21.85-1.70946-34.5-1.93946-12.65-.24-27.5-.0596-33,.40039-5.5.45-15.63,1.76016-22.5,2.91016-6.88,1.16-15.88,3.01844-20,4.14844-4.13,1.13-9.97,2.9014-13,3.9414s-9.33,3.3186-14,5.0586-9.85,3.68984-11.5,4.33984c-1.65.64-4.13,1.91031-5.5,2.82031-1.38.91-4.8695,2.70047-7.7695,3.98047s-5.26,2.67008-5.25,3.08008-.4305.75-.9805.75-3.36,1.40914-6.25,3.11914c-4.62,2.75-5.61,3.00125-8.25,2.03125-1.3766-.50059-2.5997-.86207-3.0312-.89258.2068-3.44665.3637-7.7498.3906-11.25781.04-5.22-.5393-11.97-1.2793-15-.75-3.03-2.1494-7.75-3.1094-10.5-.97-2.75-3.0716-7.25-4.6816-10-1.6-2.75-3.4496-6.23977-4.0996-7.75977-.66-1.52-1.5295-2.75-1.9395-2.75-.41.01-1.8492-1.90023-3.1992-4.24023s-6.41-8.11008-11.25-12.83008c-4.84-4.71-10.2706-9.44-12.0606-10.5-1.8-1.05-3.2407-2.13992-3.2207-2.41992.03-.28-2.2204-1.96-4.9804-3.75-2.77-1.79-5.4891-3.25-6.0391-3.25s-1.22-.67-1.5-1.5-1.17-1.5-2-1.5-1.5002-.34-1.4902-.75c0-.41-1.23-1.31023-2.75-1.99023s-7.0398-3.46946-12.2598-6.18946c-5.22-2.73-13.33-6.749456-18-8.939456s-12.1-5.42164-16.5-7.18164c-4.4-1.75-15.2-5.56875-24-8.46875-8.8-2.91-23.42-7.10961-32.5-9.34961s-22.58-5.181015-30-6.541015-19.35-3.169297-26.5-4.029297c-7.15-.85-18.85-2.000547-26-2.560547-7.15-.55-22.67-.939375-34.5-.859375ZM1005.4883,226.45703c-.1321,1.1063.1159,1.54831.7617,1.5625.69.01,5.08.68977,9.75,1.50977-4.67-.82-9.2294-1.49977-10.1094-1.50977-.5611-.006-1.2463.38847-1.8183.99219.056-.0981.1088-.18493.1582-.26172.4867-.7499.9309-1.5715,1.2578-2.29297Z" fill="none" stroke="#000" stroke-width="8" stroke-dashoffset="7316.31" stroke-dasharray="7316.31"/></g></g></svg>
