<svg id="eJrUdfMPpGQ1" xmlns="http://www.w3.org/2000/svg" xmlns:xlink="http://www.w3.org/1999/xlink" viewBox="100 -60 820 1182" shape-rendering="geometricPrecision" text-rendering="geometricPrecision" project-id="f2e0121b9f2e45d4881d2ae5dc8bfbd2" export-id="8fac51adfff449caad8b5b843f070caf" cached="false"><path d="M597,63c7.08,25.37,11.83,56.34,26.25,78.75c14.43,22.4,26.79,40.76,46.98,58.02s39.01,31.6,61.02,44.98c22.01,13.39,44.25,24.79,64.83,40.17c20.58,15.37,38.55,30.32,54.67,51.33c16.13,21,28.37,40.45,39.02,65.98s18.2,55.61,21.23,84.77c3.03,29.17-.13,69.82-4.98,98.02-4.84,28.21-12.25,58.11-22.34,83.66-10.1,25.54-21.12,47.57-34.93,70.07-13.82,22.49-28,41.01-45.5,60.5-17.51,19.48-33.32,35.02-53.5,51.5s-40.07,29.75-63.44,42.56c-23.38,12.8-47,23.35-73.53,31.47-26.54,8.11-61.02,14.26-89.78,16.22-30.23,6.26-73.47,1.53-102-4-28.54-5.53-58.41-17.52-84.07-27.93-25.67-10.4-49.16-25.74-70.16-41.84s-43.18-31.4-58.77-53.23c-8.13-11.38-17.32-23.43-26-34-33.71-41.04-59.99-92.74-69-145-3.23-18.72-7-37.43-7-57-.64-6.61-.63-14.46,0-21c0-52.2,21.25-110.8,47.3-153.7c26.06-42.9,55.5-75.89,95.95-105.05c40.45-29.17,79.61-47.54,112.5-88.5C394.65,168.8,410.15,114.94,416,63c.85-7.55,17.04-3.2,26-4s22.27.35,32,0s22.12.13,32,0s21.28-1.48,31-1s22.32-.63,31,1s26.57-4.7,29,4Z" fill="none" stroke="#2c3e50" stroke-width="8" stroke-dashoffset="2642.13" stroke-dasharray="2642.13"/><g><path d="M416,63c-5.85,51.94-21.35,105.8-54.25,146.75-32.89,40.96-72.05,59.33-112.5,88.5-40.45,29.16-69.89,62.15-95.95,105.05C127.25,446.2,106,504.8,106,557c0,7,0,14,0,21c0,19.57,3.77,38.28,7,57c.19-10.84,2.86-25.57,4.78-36.22s5.62-21.54,10.14-30.86c4.53-9.31,10.17-17.01,15.85-25.15s14.56-13.13,20.98-20.02c6.43-6.89,4.69-3.21,11.95-9.05c7.25-5.84,15.78-12,23.05-17.95c7.27-5.96,15.5-12.21,21.17-19.83s3.47-3.77,9-12s10.61-17.46,14.06-26.94c3.44-9.49,6.39-21.63,9.94-31.06c3.56-9.42.07-8.1,4.06-16.94c3.98-8.85,8.01-19.49,13.32-27.68c5.32-8.18,3.23-4.38,8.47-12.53s13.64-13.93,20.93-20.07c7.28-6.14,14.98-12.93,23.05-17.95s16.67-11.37,24.5-16.5c7.82-5.14,5.51-2.47,12.83-8.17s16.84-10.87,23.67-17.33c6.83-6.45,4.9-2.64,11.5-9.5c6.6-6.87,14.17-13.41,20-21c5.83-7.6,11.55-16.21,16.5-24.5c4.95-8.28,8.75-19.64,13.02-27.98s1.68-9.65,4.56-16.44c2.88-6.8,3.19-10.12,4.45-16.55c1.25-6.43,2.63-10.57,3.21-16.79.59-6.22,1.28-13.02,1.99-19.01.71-6,.13-14.3.02-19.98s-.42-14.34-1.99-19.01.67-15.39-3.01-17.99c-13,0-26,0-39,0-.29.88.36,2.15,0,3Z" fill="#322a65"/></g><g><path d="M113,635c9.01,52.26,35.29,103.96,69,145-3.95-18.54-9.44-45.73-6-66c3.44-20.28,10.22-38.87,22.77-54.23s24.13-25.51,39.31-36.69s29.37-20.85,44.17-32.83c14.8-11.99,26.11-22.87,36.67-39.33s17.94-36.54,20.07-56.93s2.5-50.56,5.34-70.66s11.46-38.94,21.92-55.08c10.47-16.14,22.03-27.28,36.5-39.5c14.48-12.22,29.38-20.79,44-33c14.63-12.21,26.99-20.72,38.5-37.5C496.77,241.48,502.61,219.14,501,197s-3.45-45.94-8-68-2.89-47,2-69c-13.33,0-26.67,0-40,0c3.68,2.6,1.44,13.32,3.01,17.99s1.88,13.33,1.99,19.01.69,13.98-.02,19.98c-.71,5.99-1.4,12.79-1.99,19.01-.58,6.22-1.96,10.36-3.21,16.79-1.26,6.43-1.57,9.75-4.45,16.55-2.88,6.79-.29,8.1-4.56,16.44s-8.07,19.7-13.02,27.98c-4.95,8.29-10.67,16.9-16.5,24.5-5.83,7.59-13.4,14.13-20,21-6.6,6.86-4.67,3.05-11.5,9.5-6.83,6.46-16.35,11.63-23.67,17.33s-5.01,3.03-12.83,8.17c-7.83,5.13-16.43,11.48-24.5,16.5s-15.77,11.81-23.05,17.95c-7.29,6.14-15.69,11.92-20.93,20.07s-3.15,4.35-8.47,12.53c-5.31,8.19-9.34,18.83-13.32,27.68-3.99,8.84-.5,7.52-4.06,16.94-3.55,9.43-6.5,21.57-9.94,31.06-3.45,9.48-8.53,18.71-14.06,26.94s-3.33,4.38-9,12-13.9,13.87-21.17,19.83c-7.27,5.95-15.8,12.11-23.05,17.95-7.26,5.84-5.52,2.16-11.95,9.05-6.42,6.89-15.3,11.88-20.98,20.02s-11.32,15.84-15.85,25.15c-4.52,9.32-8.22,20.21-10.14,30.86s-4.59,25.38-4.78,36.22Z" fill="#664096"/></g><g><path d="M182,780c8.68,10.57,17.87,22.62,26,34c13.41,16,36.51,37.77,58.68,27.68c22.17-10.1,29.3-34.11,35.3-56.7c6-22.6,6.36-58.88,8.02-82.98s12.06-46.38,28.75-63.25c16.7-16.87,33.07-25.4,49-43s25.33-37.16,30.58-60.42c5.24-23.26,4.92-57.69,11.6-80.4c6.67-22.71,16.12-41.21,33.82-57.18c17.7-15.96,30.66-28.28,50-42s27.76-34.88,37.25-54.75c.39-.81,1.92-1.82,2-2c1.19-2.74-1.24-7.84,0-12c1.23-4.17-.2-10.1,0-15s.85-9.18-.33-14.67-1.01-5.19-2.6-12.4c-1.58-7.21-2.95-16.45-5.4-23.6-2.44-7.15-5.34-15.27-7.6-22.4-2.26-7.14-1.29-5.55-3.07-11.93-11.1-39.8-16.82-84.84-8-127-10.33,0-20.67,0-31,0-4.89,22-6.55,46.94-2,69s6.39,45.86,8,68-4.23,44.48-15.75,61.25c-11.51,16.78-23.87,25.29-38.5,37.5-14.62,12.21-29.52,20.78-44,33-14.47,12.22-26.03,23.36-36.5,39.5-10.46,16.14-19.08,34.98-21.92,55.08s-3.21,50.27-5.34,70.66-9.51,40.47-20.07,56.93-21.87,27.34-36.67,39.33c-14.8,11.98-28.99,21.65-44.17,32.83s-26.76,21.33-39.31,36.69-19.33,33.95-22.77,54.23c-3.44,20.27,2.05,47.46,6,66Z" fill="#a26685"/></g><g><path d="M534,187c4.92,10.52,13.01,25.52,20.77,37.23s16.9,22.55,26.98,33.02s21.67,19.18,32.95,28.05c11.27,8.88,22.66,17.19,34.55,25.45c11.88,8.27,23.1,15.81,34.5,25.5c11.41,9.68,20.64,18.99,29,32s13.96,26.5,17.18,42.82s2.22,39.4-.26,56.6-5.53,33.92-8.66,51.34c-3.14,17.42-4.48,37.45-4.01,55.99s2.1,39.92,3,58-.88,37.8-7.31,52.69c-6.42,14.9-13.53,24.2-25.44,34.56s-24.23,16.49-37.94,23.06c-13.72,6.56-28.06,11.88-41.54,18.46s-25.53,14.47-37.02,23.98c-11.48,9.51-20.24,19.61-28.52,31.48s-14.56,25.71-22.15,37.85c-7.59,12.13-15.2,25.22-25.83,35.17s-21.01,20.87-34.94,25.06C445.37,919.49,430.44,930.82,416,933c20.55,4.4,41.93,8,64,8c23.86,0,47.95-5.28,63.75-23.25s26.38-30.18,37.55-49.45c11.18-19.26,25.05-32.61,43.4-44.6s39.13-19.05,58.99-28.01c19.87-8.95,40.61-16.45,58.53-29.47c17.93-13.01,29.52-26.18,41.03-45.97C794.77,700.47,798.84,672.04,798,647s-3.38-57.99,2.78-82.22s10.31-48.13,15.55-72.45s3.84-55.16-1.31-78.35c-5.14-23.2-12.15-44.61-24.27-63.73-12.13-19.11-25.22-31.17-42.5-44.5s-36.11-22.29-54.33-33.67-35.92-20.59-52.67-34.33c-16.74-13.74-30.38-27.27-42.55-45.45-12.18-18.17-21.57-36.41-29.02-57.98s-15.12-49.83-13.68-74.32c-10,0-20,0-30,0-8.82,42.16-3.1,87.2,8,127Z" fill="#b44488"/></g><g><path d="M480,941c13.77,1.33,28.81.97,43,0c28.76-1.96,63.24-8.11,89.78-16.22c26.53-8.12,50.15-18.67,73.53-31.47c23.37-12.81,43.26-26.08,63.44-42.56s35.99-32.02,53.5-51.5c17.5-19.49,31.68-38.01,45.5-60.5c13.81-22.5,24.83-44.53,34.93-70.07c10.09-25.55,17.5-55.45,22.34-83.66c4.85-28.2,8.01-68.85,4.98-98.02-3.03-29.16-10.58-59.24-21.23-84.77s-22.89-44.98-39.02-65.98c-16.12-21.01-34.09-35.96-54.67-51.33-20.58-15.38-42.82-26.78-64.83-40.17-22.01-13.38-40.83-27.72-61.02-44.98s-32.55-35.62-46.98-58.02C608.83,119.34,604.08,88.37,597,63c-1.47-.27-.89-2-1-3-13.33,0-26.67,0-40,0-1.44,24.49,6.23,52.75,13.68,74.32s16.84,39.81,29.02,57.98c12.17,18.18,25.81,31.71,42.55,45.45c16.75,13.74,34.45,22.95,52.67,34.33s37.05,20.34,54.33,33.67s30.37,25.39,42.5,44.5c12.12,19.12,19.13,40.53,24.27,63.73c5.15,23.19,6.55,54.03,1.31,78.35s-9.39,48.22-15.55,72.45-3.62,57.18-2.78,82.22-3.23,53.47-14.75,73.25c-11.51,19.79-23.1,32.96-41.03,45.97-17.92,13.02-38.66,20.52-58.53,29.47-19.86,8.96-40.64,16.02-58.99,28.01s-32.22,25.34-43.4,44.6c-11.17,19.27-21.75,31.48-37.55,49.45s-39.89,23.25-63.75,23.25Z" fill="#a77fb8"/></g><g><path d="M534,187c1.78,6.38.81,4.79,3.07,11.93c2.26,7.13,5.16,15.25,7.6,22.4c2.45,7.15,3.82,16.39,5.4,23.6c1.59,7.21,1.42,6.91,2.6,12.4s.53,9.77.33,14.67s1.23,10.83,0,15c-1.24,4.16,1.19,9.26,0,12c5.03-.29,10.8,9.04,16.08,10.92c5.29,1.88,10.89,8.84,16.17,11.83c5.27,3,9.78,9.11,14.5,13.5c4.73,4.39,9.53,9.33,13.5,14.5s7.54,10.15,11,16c3.47,5.85,7.02,11.79,9.53,18.47c2.5,6.68,5.56,13.68,7,21s3.34,17.9,2.22,25.78-3.51,14.99-4,23c-.49,8.02.63,17.17,4.31,23.69c3.67,6.53,7.06,11.16,10.99,17.01c3.94,5.85,7.8,10.38,12.45,15.55c4.66,5.16,7.46,9.7,12,15c4.55,5.29,6.19,15.06,1,20.5-5.2,5.43-11.95,6.4-17.83,10.17-5.87,3.78-12.79,4.5-16.67,11.33s.96,13.04,5.5,19c4.54,5.95,1.49,13.69-4.5,19-6,5.31,3.78,13.12,1.97,19.97-1.81,6.86-8.69,9.26-12.97,15.03s.37,16.22,2.07,22.43s5.5,16.66,2.69,23.33c-2.82,6.67-6.56,11.06-12.26,15.74s-14.35,6.25-21.75,6.25c-3.46.33-7.61.33-11,0-22.1,0-52.4-10.38-69.75,7.25s-21.23,35.26-28.18,56.82c-6.94,21.56-11.8,45.26-18.85,66.15-7.05,20.9-15.58,38.62-29.47,55.53-13.9,16.9-31.22,28.1-49.75,36.25c4.23,2.68,12.1,1.95,17,3c14.44-2.18,29.37-13.51,43.31-17.69c13.93-4.19,24.31-15.11,34.94-25.06s18.24-23.04,25.83-35.17c7.59-12.14,13.87-25.98,22.15-37.85s17.04-21.97,28.52-31.48c11.49-9.51,23.54-17.4,37.02-23.98s27.82-11.9,41.54-18.46c13.71-6.57,26.03-12.7,37.94-23.06s19.02-19.66,25.44-34.56c6.43-14.89,8.21-34.61,7.31-52.69s-2.53-39.46-3-58s.87-38.57,4.01-55.99c3.13-17.42,6.18-34.14,8.66-51.34s3.48-40.28.26-56.6-8.82-29.81-17.18-42.82-17.59-22.32-29-32c-11.4-9.69-22.62-17.23-34.5-25.5-11.89-8.26-23.28-16.57-34.55-25.45-11.28-8.87-22.87-17.58-32.95-28.05s-19.22-21.31-26.98-33.02-15.85-26.71-20.77-37.23Z" fill="#9f2365"/></g><g><path d="M208,814c15.59,21.83,37.77,37.13,58.77,53.23s44.49,31.44,70.16,41.84c25.66,10.41,55.53,22.4,84.07,27.93c28.53,5.53,71.77,10.26,102,4-14.19.97-29.23,1.33-43,0-22.07,0-43.45-3.6-64-8-4.9-1.05-12.77-.32-17-3-1.46-.32-1.05-2.13-2-3c10.16-1.88,18.93-7.85,27.75-13.25c8.82-5.39,13.81-13.14,21-20s11.77-14.53,16.93-23.07s8.2-19.13,12.4-28.6c4.19-9.47,5.94-20.74,9.14-30.86s5.72-21.9,8.85-32.15c3.14-10.24,6.1-21.08,10.01-30.99c3.9-9.91,7.84-17.31,13.67-26.33c5.82-9.03,13.95-13.82,24.18-16.82c10.22-3.01,25.24-2.04,36.07.07c10.83,2.12,26.84,3.36,37.33.33c10.48-3.03,19.04-7.05,22.9-18.1s-.04-20.62-4.23-32.23s5.11-18.65,12.25-26.75c7.13-8.11-9.38-18.97,2.98-27.02s-8.49-20.71-5.22-30.22s12.35-16.09,22.3-18.7c9.95-2.62,19.66-12.95,13.99-22.61-5.66-9.67-11.51-14.66-18.05-22.95s-10.7-14.71-16.5-23.5c-5.79-8.8-10.17-22.16-7.68-33.18c2.49-11.01,5.71-25.45,3.71-36.85-2.01-11.39-5.52-20.5-9.8-30.19-4.29-9.7-8.82-18.02-14.73-26.28-5.9-8.27-11.63-14.21-18.5-21.5s-14.29-13.17-22.05-18.95c-7.77-5.77-15.74-12.2-24.7-15.3-9.49,19.87-17.91,41.03-37.25,54.75s-32.3,26.04-50,42c-17.7,15.97-27.15,34.47-33.82,57.18-6.68,22.71-6.36,57.14-11.6,80.4-5.25,23.26-14.65,42.82-30.58,60.42s-32.3,26.13-49,43C322.06,655.62,311.66,677.9,310,702s-2.02,60.38-8.02,82.98c-6,22.59-13.13,46.6-35.3,56.7C244.51,851.77,221.41,830,208,814Z" fill="#ddd4eb"/></g></svg>
