<svg id="eZSreKM6fyC1" xmlns="http://www.w3.org/2000/svg" xmlns:xlink="http://www.w3.org/1999/xlink" viewBox="700 150 520 750" shape-rendering="geometricPrecision" text-rendering="geometricPrecision" project-id="b51d98e1ca7a4160b1228e4e56fbcdea" export-id="13ac4fd4c57d48808fdfa4f2b77711e3" cached="false"><path d="M984,184c1.01.61,1.35.22,3,0c.8,6.17,7.64,11.75,12.75,17.25c5.12,5.49,10.52,11.81,15.55,17.45c5.03,5.63,9.36,11.27,16.4,15.6c7.03,4.33,22.42-.58,30.3,2.7s22.18.3,26,7c5.81,12.71,8.54,27.36,13.93,40.07c5.39,12.72,8.65,28.03,15.05,39.96c6.39,11.92,6.42,29.06,15.27,38.72s27.69,8.15,33.07,21.93s12.19,23.34,18.68,36.32c1.73,2.54,5.6,10.59,8,7-1.25,13.12,15.66,22.65,15,36c12.95-.55,3.66,10.78,2.07,18.07-1.59,7.3-3.57,18.31-9.07,23.93-.54,1.66-1.38,4.08-2,6-.53,7.45-3.35,13.44-5,21-1.65,7.57-4.24,13.59-8,20-1.92,6.7-4.73,13.37-7,20-1.76,11.07-1.89,26.74-10,35-.48,6.12-1.76,14.7-3.35,19.69-1.59,5-5.74,13.58-10.65,12.31-6.66,4.39-14.05,8.7-21,13-13.59,8.41-11.43,26.37-16.93,40.07-5.49,13.7-6.42,31.84-12.05,44.95-5.62,13.12-3.64,33.74-15.25,41.75s-25.74,12.25-37.85,19.15c-12.1,6.91-25.63,11.32-34.22,22.78s-18.19,19.34-26.62,30.38C981.66,863.12,971.5,872.39,963,883c-.76.95-.87,1.43-2,2-3.05,1.53-5.78.61-9,3c3-2.48.36-5.84,0-9-2.42.58-6.73,2.5-8-1c2.22-.15,4.66,1.67,6-1-4.66-6.11-12.15-7.2-15.75-14.25s-14.74-5.27-14.25-13.75c-2.22-.74-6.46-3.07-7.7-5.3s-7.34-5.54-4.3-5.7c-9.24-7.59-18-16.31-27-24-9.13-7.8-11.85-18.59-15.78-29.22-3.93-10.64-8.19-22.29-12.53-32.47-4.33-10.19-5.02-24.68-16.77-28.23-11.74-3.56-20.29-10.89-31.92-14.08-.46-.13-1.51.07-2,0-4.98-.69-8.9-2.44-14-2-.52-4.23-5.47-3.95-4-9-12.67-45.42-31.27-88.78-45-134-5.49-12.14-9.55-20.81-12-34-1.22-6.55-4.07-12.63-6-19-4.2-9.29-12.81-19.37-11-31-4.11,6.4-.94-1.41-3.33-4.67-2.38-3.27-2.85-7.65-2.67-11.33c4.85-2.15,10.74-.46,16-1c3.14-10.24,8.1-19.57,12.31-29.69c4.2-10.13,9.02-18.98,12.47-29.53c3.45-10.56,10.07-19.36,12.55-30.45c2.47-11.1,10.7-15.83,11.33-28.01.63-12.17,19.64-6.76,27.34-14.32c10.54,2.28,19.27-3.53,30.02-3.98c10.75-.44,14.13-9.74,17.91-18.09c3.77-8.36,8.02-16.78,11.18-24.82s8.32-16.17,11.81-24.19c3.5-8.02,7.52-16.51,14.83-22.17c7.31-5.65,12.63-11.1,19.5-16.5c6.86-5.41,12.54-11.21,18.98-17.02s12.59-10.89,18.69-17.31s13.44-9.01,19.33-16.67s18.11-7.84,17.75,4.75c3.97.66,5.88,5.1,8,8Z" fill="none" stroke="#2c3e50" stroke-width="4" stroke-dashoffset="1919.98" stroke-dasharray="1919.98"/><g><path d="M721,512c-4.76-15.68-11.12-31.03-15-47c40.67,0,81.33,0,122,0c7.46-2.14,8.93-18.07,14.92-24.08s9-17.56,14.33-24.67c5.33-7.1,8.33-20.01,19.76-20.24c11.43-.24,24.46-2.53,35.21-3.79s21.61-2.48,26.7-12.3s9.36-15.73,15.33-24.67s7.35-15.89,15.05-23.95c7.7-8.05,7.74-17.85,1.78-26.38-5.95-8.53-9.25-16.01-14.4-24.6-5.15-8.58-10.97-15.26-14.43-24.57-3.47-9.3,4.66-20.86,7.67-29.83c3.02-8.97,3.97-22.38,8.01-30.99c4.03-8.61,2.57-23.24,13.07-24.93c3.02,5.1,8.77,11.45,13,14-2.12-2.9-4.03-7.34-8-8c.36-12.59-11.86-12.41-17.75-4.75s-13.23,10.25-19.33,16.67-12.25,11.5-18.69,17.31-12.12,11.61-18.98,17.02c-6.87,5.4-12.19,10.85-19.5,16.5-7.31,5.66-11.33,14.15-14.83,22.17-3.49,8.02-8.65,16.15-11.81,24.19s-7.41,16.46-11.18,24.82c-3.78,8.35-7.16,17.65-17.91,18.09-10.75.45-19.48,6.26-30.02,3.98-7.7,7.56-26.71,2.15-27.34,14.32-.63,12.18-8.86,16.91-11.33,28.01-2.48,11.09-9.1,19.89-12.55,30.45-3.45,10.55-8.27,19.4-12.47,29.53-4.21,10.12-9.17,19.45-12.31,29.69-5.26.54-11.15-1.15-16,1-.18,3.68.29,8.06,2.67,11.33c2.39,3.26-.78,11.07,3.33,4.67-1.81,11.63,6.8,21.71,11,31Z" fill="#d3effb"/></g><g><path d="M828,465c44.34,0,88.67,0,133,0c43.34,0,86.66,0,130,0-.72-6.27-4-13.16-6.93-19.07-2.92-5.92-5.47-12.8-8-19-2.52-6.2-5.69-11.74-8-18-2.3-6.27-5.78-12.45-8.38-18.62-2.59-6.18-6.75-14.06-4.69-21.31s3.63-14.16,5.93-21.07c2.29-6.92,3.37-13.99,5-21c1.63-7.02,3.88-15.13,5.07-21.93c1.19-6.81,4.19-14.49,5.33-20.67c1.13-6.18,4.58-16.48,5.6-21.4c1.01-4.93,4.49-20.02,6.07-18.93-3.82-6.7-18.12-3.72-26-7s-23.27,1.63-30.3-2.7c-7.04-4.33-11.37-9.97-16.4-15.6-5.03-5.64-10.43-11.96-15.55-17.45-5.11-5.5-11.95-11.08-12.75-17.25-1.65.22-1.99.61-3,0-4.23-2.55-9.98-8.9-13-14-10.5,1.69-9.04,16.32-13.07,24.93-4.04,8.61-4.99,22.02-8.01,30.99-3.01,8.97-11.14,20.53-7.67,29.83c3.46,9.31,9.28,15.99,14.43,24.57c5.15,8.59,8.45,16.07,14.4,24.6c5.96,8.53,5.92,18.33-1.78,26.38-7.7,8.06-9.08,15.01-15.05,23.95s-10.24,14.85-15.33,24.67-15.95,11.04-26.7,12.3-23.78,3.55-35.21,3.79c-11.43.23-14.43,13.14-19.76,20.24-5.33,7.11-8.34,18.66-14.33,24.67s-7.46,21.94-14.92,24.08Z" fill="#afddf4"/></g><g><path d="M1091,465c.5,0,1,0,1,0c19,0,38-.88,57,0s39.11-2.28,58,0c-6.29-4.4-6.49-15.73-11.3-21.7-4.82-5.96-8.22-15.35-11.7-22.3-6.49-12.98-13.3-22.54-18.68-36.32s-24.22-12.27-33.07-21.93-8.88-26.8-15.27-38.72c-6.4-11.93-9.66-27.24-15.05-39.96-5.39-12.71-8.12-27.36-13.93-40.07-1.58-1.09-5.06,14-6.07,18.93-1.02,4.92-4.47,15.22-5.6,21.4-1.14,6.18-4.14,13.86-5.33,20.67-1.19,6.8-3.44,14.91-5.07,21.93-1.63,7.01-2.71,14.08-5,21-2.3,6.91-3.87,13.82-5.93,21.07s2.1,15.13,4.69,21.31c2.6,6.17,6.08,12.35,8.38,18.62c2.31,6.26,5.48,11.8,8,18c2.53,6.2,5.08,13.08,8,19c2.93,5.91,6.21,12.8,6.93,19.07Z" fill="#89c5e4"/></g><g><path d="M721,512c1.93,6.37,4.78,12.45,6,19c3.97,11.04,8.52,22.52,12,34c13.73,45.22,32.33,88.58,45,134c2.28,4.87,12.89,8.5,18,11c.49.07,1.54-.13,2,0-2.75-4,3.44-11.76,5.31-17.69c1.86-5.94,6.57-12.62,9.47-18.53c2.89-5.92,5.4-13.42,8.53-19.47c3.12-6.06,6.3-12.68,9.01-18.99s5.99-12.78,9.68-18.32c2.9,7.94,3.86,17.51,5.99,26.01c2.14,8.5,4.89,17.04,6.34,25.66s12.32,9.16,19.75,12.25c7.42,3.1,16.6,5.36,24,8c7.39,2.65,17.54,7.57,22.92,5.08-4.44-10.78-4.41-24.05-7.78-35.22-3.36-11.17-4.77-25.34-7.55-36.45-2.77-11.12-8.65-24.47.08-32.58c8.74-8.1,11.97-14.79,21.5-22.5s10.43-15.16,21-23c10.56-7.85,9.41-21.89,8.75-35.25s.5-30.31,0-44c-44.33,0-88.66,0-133,0-40.67,0-81.33,0-122,0c3.88,15.97,10.24,31.32,15,47Z" fill="#5cadd5"/></g><g><path d="M925,694c5.18,12.59,19.93,14.93,29.25,24.75s8.21,32.31,6.75,46.25c3.3-7.43,13.86-11.44,17.25-19.75c3.38-8.31,11.92-12.74,16-21c4.08-8.27,10.85-12.45,16.5-20.5c5.66-8.05.76-24.81,2.25-34.75s-2.39-26.16,1.92-35.08c4.32-8.91,8.48-15.19,13.85-23.15s8.41-15.8,13-24c4.59-8.19,10.09-15.49,14.23-23.77c7.69-15.37,17.4-30.68,19.93-48.07c2.52-17.4,15.27-32.91,16.07-49.93c0,0-.5,0-1,0-43.34,0-86.66,0-130,0c.5,13.69-.66,30.64,0,44s1.81,27.4-8.75,35.25c-10.57,7.84-11.47,15.29-21,23s-12.76,14.4-21.5,22.5c-8.73,8.11-2.85,21.46-.08,32.58c2.78,11.11,4.19,25.28,7.55,36.45c3.37,11.17,3.34,24.44,7.78,35.22Z" fill="#1c76a3"/></g><g><path d="M1056,563c3.19-5.09,8.08-10.05,10-16c22.34,34.38,38.94,73.26,58,110c3.19-1.08,5.6-6.9,9-4c6.95-4.3,14.34-8.61,21-13c9.52-6.27,8.46-21.96,12.98-32.02c4.51-10.07,7.36-24.28,11.02-34.98c2.27-6.63,5.08-13.3,7-20c3.94-13.72,8.68-27.69,13-41c.62-1.92,1.46-4.34,2-6c2.93-13.98,9.35-26.99,12-41-1.65-.15-3.36.2-5,0-18.89-2.28-39,.88-58,0s-38,0-57,0c-.8,17.02-13.55,32.53-16.07,49.93-2.53,17.39-12.24,32.7-19.93,48.07Z" fill="#15668d"/></g><g><path d="M1056,563c-4.14,8.28-9.64,15.58-14.23,23.77-4.59,8.2-7.63,16.04-13,24s-9.53,14.24-13.85,23.15c-4.31,8.92-.43,25.14-1.92,35.08s3.41,26.7-2.25,34.75c-5.65,8.05-12.42,12.23-16.5,20.5-4.08,8.26-12.62,12.69-16,21-3.39,8.31-13.95,12.32-17.25,19.75-.1.97,0,2.02,0,3c0,6.46.06,12.5,0,19s.14,13.47,0,20s.32,13.54,0,20s.71,13.74,0,20s1.58,14.21,0,20s3.01,13.25,2,16c8.5-10.61,18.66-19.88,27.08-30.92c8.43-11.04,18.03-18.92,26.62-30.38s22.12-15.87,34.22-22.78c12.11-6.9,26.24-11.14,37.85-19.15s9.63-28.63,15.25-41.75c5.63-13.11,6.56-31.25,12.05-44.95c5.5-13.7,3.34-31.66,16.93-40.07-3.4-2.9-5.81,2.92-9,4-19.06-36.74-35.66-75.62-58-110-1.92,5.95-6.81,10.91-10,16Z" fill="#0b547d"/></g><g><path d="M804,710c11.63,3.19,20.18,10.52,31.92,14.08c11.75,3.55,12.44,18.04,16.77,28.23c4.34,10.18,8.6,21.83,12.53,32.47c3.93,10.63,6.65,21.42,15.78,29.22-2.09-2.09-4.14-4.77-6-7c27.27-15.4,58.74-22.69,86-39c0-.98-.1-2.03,0-3c1.46-13.94,2.57-36.43-6.75-46.25s-24.07-12.16-29.25-24.75c-5.38,2.49-15.53-2.43-22.92-5.08-7.4-2.64-16.58-4.9-24-8-7.43-3.09-18.3-3.63-19.75-12.25s-4.2-17.16-6.34-25.66c-2.13-8.5-3.09-18.07-5.99-26.01-3.69,5.54-6.97,12.01-9.68,18.32s-5.89,12.93-9.01,18.99c-3.13,6.05-5.64,13.55-8.53,19.47-2.9,5.91-7.61,12.59-9.47,18.53-1.87,5.93-8.06,13.69-5.31,17.69Z" fill="#318ab7"/></g><g><path d="M881,814c9,7.69,17.76,16.41,27,24c5.49,4.51,5.02,3.21,11.25,8.75c6.23,5.55,15.07,13.41,21.45,18.55c6.37,5.15,5.33,7.13,10.55,9.45c5.21,2.33,5.52,10.18,9.75,10.25c1.13-.57,1.24-1.05,2-2c1.01-2.75-3.58-10.21-2-16s-.71-13.74,0-20-.32-13.54,0-20-.14-13.47,0-20-.06-13.5,0-20s0-12.54,0-19c-27.26,16.31-58.73,23.6-86,39c1.86,2.23,3.91,4.91,6,7Z" fill="#1c74a0"/></g></svg>
