<svg xmlns="http://www.w3.org/2000/svg" xmlns:v="https://svgstorm.com"
viewBox = "0 0 1920 1047"
width="1920"
height="1047">
<g fill="None" fill-opacity="0.0" stroke="#FEFEFE" stroke-opacity="1.00" stroke-width="0.3"><path d="
M 0.00 1047.00 
L 1920.00 1047.00
L 1920.00 0.00
L 0.00 0.00
L 0.00 1047.00
M 984.00 184.00 
C 985.01 184.61 985.35 184.22 987.00 184.00
C 987.80 190.17 994.64 195.75 999.75 201.25 C 1004.87 206.74 1010.27 213.06 1015.30 218.70 C 1020.33 224.33 1024.66 229.97 1031.70 234.30 C 1038.73 238.63 1054.12 233.72 1062.00 237.00 C 1069.88 240.28 1084.18 237.30 1088.00 244.00
C 1093.81 256.71 1096.54 271.36 1101.93 284.07 C 1107.32 296.79 1110.58 312.10 1116.98 324.03 C 1123.37 335.95 1123.40 353.09 1132.25 362.75 C 1141.10 372.41 1159.94 370.90 1165.32 384.68 C 1170.70 398.46 1177.51 408.02 1184.00 421.00
C 1185.73 423.54 1189.60 431.59 1192.00 428.00
C 1190.75 441.12 1207.66 450.65 1207.00 464.00
C 1219.95 463.45 1210.66 474.78 1209.07 482.07 C 1207.48 489.37 1205.50 500.38 1200.00 506.00
C 1199.46 507.66 1198.62 510.08 1198.00 512.00
C 1197.47 519.45 1194.65 525.44 1193.00 533.00 C 1191.35 540.57 1188.76 546.59 1185.00 553.00
C 1183.08 559.70 1180.27 566.37 1178.00 573.00
C 1176.24 584.07 1176.11 599.74 1168.00 608.00
C 1167.52 614.12 1166.24 622.70 1164.65 627.69 C 1163.06 632.69 1158.91 641.27 1154.00 640.00
C 1147.34 644.39 1139.95 648.70 1133.00 653.00
C 1119.41 661.41 1121.57 679.37 1116.07 693.07 C 1110.58 706.77 1109.65 724.91 1104.02 738.02 C 1098.40 751.14 1100.38 771.76 1088.77 779.77 C 1077.16 787.78 1063.03 792.02 1050.92 798.92 C 1038.82 805.83 1025.29 810.24 1016.70 821.70 C 1008.11 833.16 998.51 841.04 990.08 852.08 C 981.66 863.12 971.50 872.39 963.00 883.00
C 962.24 883.95 962.13 884.43 961.00 885.00
C 957.95 886.53 955.22 885.61 952.00 888.00
C 955.00 885.52 952.36 882.16 952.00 879.00
C 949.58 879.58 945.27 881.50 944.00 878.00
C 946.22 877.85 948.66 879.67 950.00 877.00
C 945.34 870.89 937.85 869.80 934.25 862.75 C 930.65 855.70 919.51 857.48 920.00 849.00
C 917.78 848.26 913.54 845.93 912.30 843.70 C 911.06 841.47 904.96 838.16 908.00 838.00
C 898.76 830.41 890.00 821.69 881.00 814.00
C 871.87 806.20 869.15 795.41 865.22 784.78 C 861.29 774.14 857.03 762.49 852.69 752.31 C 848.36 742.12 847.67 727.63 835.92 724.08 C 824.18 720.52 815.63 713.19 804.00 710.00
C 803.54 709.87 802.49 710.07 802.00 710.00
C 797.02 709.31 793.10 707.56 788.00 708.00
C 787.48 703.77 782.53 704.05 784.00 699.00
C 771.33 653.58 752.73 610.22 739.00 565.00
C 733.51 552.86 729.45 544.19 727.00 531.00
C 725.78 524.45 722.93 518.37 721.00 512.00
C 716.80 502.71 708.19 492.63 710.00 481.00
C 705.89 487.40 709.06 479.59 706.67 476.33 C 704.29 473.06 703.82 468.68 704.00 465.00
C 708.85 462.85 714.74 464.54 720.00 464.00
C 723.14 453.76 728.10 444.43 732.31 434.31 C 736.51 424.18 741.33 415.33 744.78 404.78 C 748.23 394.22 754.85 385.42 757.33 374.33 C 759.80 363.23 768.03 358.50 768.66 346.32 C 769.29 334.15 788.30 339.56 796.00 332.00
C 806.54 334.28 815.27 328.47 826.02 328.02 C 836.77 327.58 840.15 318.28 843.93 309.93 C 847.70 301.57 851.95 293.15 855.11 285.11 C 858.27 277.07 863.43 268.94 866.92 260.92 C 870.42 252.90 874.44 244.41 881.75 238.75 C 889.06 233.10 894.38 227.65 901.25 222.25 C 908.11 216.84 913.79 211.04 920.23 205.23 C 926.67 199.42 932.82 194.34 938.92 187.92 C 945.02 181.50 952.36 178.91 958.25 171.25 C 964.14 163.59 976.36 163.41 976.00 176.00
C 979.97 176.66 981.88 181.10 984.00 184.00 Z"/>
</g>
<g fill="None" fill-opacity="0.0" stroke="#D3EFFB" stroke-opacity="1.00" stroke-width="0.3"><path d="
M 721.00 512.00 
C 716.24 496.32 709.88 480.97 706.00 465.00
C 746.67 465.00 787.33 465.00 828.00 465.00
C 835.46 462.86 836.93 446.93 842.92 440.92 C 848.91 434.91 851.92 423.36 857.25 416.25 C 862.58 409.15 865.58 396.24 877.01 396.01 C 888.44 395.77 901.47 393.48 912.22 392.22 C 922.97 390.96 933.83 389.74 938.92 379.92 C 944.01 370.10 948.28 364.19 954.25 355.25 C 960.22 346.31 961.60 339.36 969.30 331.30 C 977.00 323.25 977.04 313.45 971.08 304.92 C 965.13 296.39 961.83 288.91 956.68 280.32 C 951.53 271.74 945.71 265.06 942.25 255.75 C 938.78 246.45 946.91 234.89 949.92 225.92 C 952.94 216.95 953.89 203.54 957.93 194.93 C 961.96 186.32 960.50 171.69 971.00 170.00
C 974.02 175.10 979.77 181.45 984.00 184.00
C 981.88 181.10 979.97 176.66 976.00 176.00
C 976.36 163.41 964.14 163.59 958.25 171.25 C 952.36 178.91 945.02 181.50 938.92 187.92 C 932.82 194.34 926.67 199.42 920.23 205.23 C 913.79 211.04 908.11 216.84 901.25 222.25 C 894.38 227.65 889.06 233.10 881.75 238.75 C 874.44 244.41 870.42 252.90 866.92 260.92 C 863.43 268.94 858.27 277.07 855.11 285.11 C 851.95 293.15 847.70 301.57 843.93 309.93 C 840.15 318.28 836.77 327.58 826.02 328.02 C 815.27 328.47 806.54 334.28 796.00 332.00
C 788.30 339.56 769.29 334.15 768.66 346.32 C 768.03 358.50 759.80 363.23 757.33 374.33 C 754.85 385.42 748.23 394.22 744.78 404.78 C 741.33 415.33 736.51 424.18 732.31 434.31 C 728.10 444.43 723.14 453.76 720.00 464.00
C 714.74 464.54 708.85 462.85 704.00 465.00
C 703.82 468.68 704.29 473.06 706.67 476.33 C 709.06 479.59 705.89 487.40 710.00 481.00
C 708.19 492.63 716.80 502.71 721.00 512.00 Z"/>
</g>
<g fill="None" fill-opacity="0.0" stroke="#AFDDF4" stroke-opacity="1.00" stroke-width="0.3"><path d="
M 828.00 465.00 
C 872.34 465.00 916.67 465.00 961.00 465.00
C 1004.34 465.00 1047.66 465.00 1091.00 465.00
C 1090.28 458.73 1087.00 451.84 1084.07 445.93 C 1081.15 440.01 1078.60 433.13 1076.07 426.93 C 1073.55 420.73 1070.38 415.19 1068.07 408.93 C 1065.77 402.66 1062.29 396.48 1059.69 390.31 C 1057.10 384.13 1052.94 376.25 1055.00 369.00 C 1057.06 361.75 1058.63 354.84 1060.93 347.93 C 1063.22 341.01 1064.30 333.94 1065.93 326.93 C 1067.56 319.91 1069.81 311.80 1071.00 305.00 C 1072.19 298.19 1075.19 290.51 1076.33 284.33 C 1077.46 278.15 1080.91 267.85 1081.93 262.93 C 1082.94 258.00 1086.42 242.91 1088.00 244.00
C 1084.18 237.30 1069.88 240.28 1062.00 237.00 C 1054.12 233.72 1038.73 238.63 1031.70 234.30 C 1024.66 229.97 1020.33 224.33 1015.30 218.70 C 1010.27 213.06 1004.87 206.74 999.75 201.25 C 994.64 195.75 987.80 190.17 987.00 184.00
C 985.35 184.22 985.01 184.61 984.00 184.00
C 979.77 181.45 974.02 175.10 971.00 170.00
C 960.50 171.69 961.96 186.32 957.93 194.93 C 953.89 203.54 952.94 216.95 949.92 225.92 C 946.91 234.89 938.78 246.45 942.25 255.75 C 945.71 265.06 951.53 271.74 956.68 280.32 C 961.83 288.91 965.13 296.39 971.08 304.92 C 977.04 313.45 977.00 323.25 969.30 331.30 C 961.60 339.36 960.22 346.31 954.25 355.25 C 948.28 364.19 944.01 370.10 938.92 379.92 C 933.83 389.74 922.97 390.96 912.22 392.22 C 901.47 393.48 888.44 395.77 877.01 396.01 C 865.58 396.24 862.58 409.15 857.25 416.25 C 851.92 423.36 848.91 434.91 842.92 440.92 C 836.93 446.93 835.46 462.86 828.00 465.00 Z"/>
</g>
<g fill="None" fill-opacity="0.0" stroke="#89C5E4" stroke-opacity="1.00" stroke-width="0.3"><path d="
M 1091.00 465.00 
C 1091.50 465.00 1092.00 465.00 1092.00 465.00
C 1111.00 465.00 1130.00 464.12 1149.00 465.00 C 1168.00 465.88 1188.11 462.72 1207.00 465.00
C 1200.71 460.60 1200.51 449.27 1195.70 443.30 C 1190.88 437.34 1187.48 427.95 1184.00 421.00
C 1177.51 408.02 1170.70 398.46 1165.32 384.68 C 1159.94 370.90 1141.10 372.41 1132.25 362.75 C 1123.40 353.09 1123.37 335.95 1116.98 324.03 C 1110.58 312.10 1107.32 296.79 1101.93 284.07 C 1096.54 271.36 1093.81 256.71 1088.00 244.00
C 1086.42 242.91 1082.94 258.00 1081.93 262.93 C 1080.91 267.85 1077.46 278.15 1076.33 284.33 C 1075.19 290.51 1072.19 298.19 1071.00 305.00 C 1069.81 311.80 1067.56 319.91 1065.93 326.93 C 1064.30 333.94 1063.22 341.01 1060.93 347.93 C 1058.63 354.84 1057.06 361.75 1055.00 369.00 C 1052.94 376.25 1057.10 384.13 1059.69 390.31 C 1062.29 396.48 1065.77 402.66 1068.07 408.93 C 1070.38 415.19 1073.55 420.73 1076.07 426.93 C 1078.60 433.13 1081.15 440.01 1084.07 445.93 C 1087.00 451.84 1090.28 458.73 1091.00 465.00 Z"/>
</g>
<g fill="None" fill-opacity="0.0" stroke="#DCF2F7" stroke-opacity="1.00" stroke-width="0.3"><path d="
M 1207.00 465.00 
C 1208.64 465.20 1210.35 464.85 1212.00 465.00
C 1209.35 479.01 1202.93 492.02 1200.00 506.00
C 1205.50 500.38 1207.48 489.37 1209.07 482.07 C 1210.66 474.78 1219.95 463.45 1207.00 464.00
C 1207.66 450.65 1190.75 441.12 1192.00 428.00
C 1189.60 431.59 1185.73 423.54 1184.00 421.00
C 1187.48 427.95 1190.88 437.34 1195.70 443.30 C 1200.51 449.27 1200.71 460.60 1207.00 465.00 Z"/>
</g>
<g fill="None" fill-opacity="0.0" stroke="#5CADD5" stroke-opacity="1.00" stroke-width="0.3"><path d="
M 721.00 512.00 
C 722.93 518.37 725.78 524.45 727.00 531.00
C 730.97 542.04 735.52 553.52 739.00 565.00
C 752.73 610.22 771.33 653.58 784.00 699.00
C 786.28 703.87 796.89 707.50 802.00 710.00
C 802.49 710.07 803.54 709.87 804.00 710.00
C 801.25 706.00 807.44 698.24 809.31 692.31 C 811.17 686.37 815.88 679.69 818.78 673.78 C 821.67 667.86 824.18 660.36 827.31 654.31 C 830.43 648.25 833.61 641.63 836.32 635.32 C 839.03 629.01 842.31 622.54 846.00 617.00
C 848.90 624.94 849.86 634.51 851.99 643.01 C 854.13 651.51 856.88 660.05 858.33 668.67 C 859.78 677.29 870.65 677.83 878.08 680.92 C 885.50 684.02 894.68 686.28 902.08 688.92 C 909.47 691.57 919.62 696.49 925.00 694.00
C 920.56 683.22 920.59 669.95 917.22 658.78 C 913.86 647.61 912.45 633.44 909.67 622.33 C 906.90 611.21 901.02 597.86 909.75 589.75 C 918.49 581.65 921.72 574.96 931.25 567.25 C 940.78 559.54 941.68 552.09 952.25 544.25 C 962.81 536.40 961.66 522.36 961.00 509.00 C 960.34 495.64 961.50 478.69 961.00 465.00
C 916.67 465.00 872.34 465.00 828.00 465.00
C 787.33 465.00 746.67 465.00 706.00 465.00
C 709.88 480.97 716.24 496.32 721.00 512.00 Z"/>
</g>
<g fill="None" fill-opacity="0.0" stroke="#1C76A3" stroke-opacity="1.00" stroke-width="0.3"><path d="
M 925.00 694.00 
C 930.18 706.59 944.93 708.93 954.25 718.75 C 963.57 728.57 962.46 751.06 961.00 765.00
C 964.30 757.57 974.86 753.56 978.25 745.25 C 981.63 736.94 990.17 732.51 994.25 724.25 C 998.33 715.98 1005.10 711.80 1010.75 703.75 C 1016.41 695.70 1011.51 678.94 1013.00 669.00 C 1014.49 659.06 1010.61 642.84 1014.92 633.92 C 1019.24 625.01 1023.40 618.73 1028.77 610.77 C 1034.14 602.81 1037.18 594.97 1041.77 586.77 C 1046.36 578.58 1051.86 571.28 1056.00 563.00
C 1063.69 547.63 1073.40 532.32 1075.93 514.93 C 1078.45 497.53 1091.20 482.02 1092.00 465.00
C 1092.00 465.00 1091.50 465.00 1091.00 465.00
C 1047.66 465.00 1004.34 465.00 961.00 465.00
C 961.50 478.69 960.34 495.64 961.00 509.00 C 961.66 522.36 962.81 536.40 952.25 544.25 C 941.68 552.09 940.78 559.54 931.25 567.25 C 921.72 574.96 918.49 581.65 909.75 589.75 C 901.02 597.86 906.90 611.21 909.67 622.33 C 912.45 633.44 913.86 647.61 917.22 658.78 C 920.59 669.95 920.56 683.22 925.00 694.00 Z"/>
</g>
<g fill="None" fill-opacity="0.0" stroke="#15668D" stroke-opacity="1.00" stroke-width="0.3"><path d="
M 1056.00 563.00 
C 1059.19 557.91 1064.08 552.95 1066.00 547.00
C 1088.34 581.38 1104.94 620.26 1124.00 657.00
C 1127.19 655.92 1129.60 650.10 1133.00 653.00
C 1139.95 648.70 1147.34 644.39 1154.00 640.00
C 1163.52 633.73 1162.46 618.04 1166.98 607.98 C 1171.49 597.91 1174.34 583.70 1178.00 573.00
C 1180.27 566.37 1183.08 559.70 1185.00 553.00
C 1188.94 539.28 1193.68 525.31 1198.00 512.00
C 1198.62 510.08 1199.46 507.66 1200.00 506.00
C 1202.93 492.02 1209.35 479.01 1212.00 465.00
C 1210.35 464.85 1208.64 465.20 1207.00 465.00
C 1188.11 462.72 1168.00 465.88 1149.00 465.00 C 1130.00 464.12 1111.00 465.00 1092.00 465.00
C 1091.20 482.02 1078.45 497.53 1075.93 514.93 C 1073.40 532.32 1063.69 547.63 1056.00 563.00 Z"/>
</g>
<g fill="None" fill-opacity="0.0" stroke="#D2ECF2" stroke-opacity="1.00" stroke-width="0.3"><path d="
M 1185.00 553.00 
C 1188.76 546.59 1191.35 540.57 1193.00 533.00 C 1194.65 525.44 1197.47 519.45 1198.00 512.00
C 1193.68 525.31 1188.94 539.28 1185.00 553.00 Z"/>
</g>
<g fill="None" fill-opacity="0.0" stroke="#DCF5F9" stroke-opacity="1.00" stroke-width="0.3"><path d="
M 739.00 565.00 
C 735.52 553.52 730.97 542.04 727.00 531.00
C 729.45 544.19 733.51 552.86 739.00 565.00 Z"/>
</g>
<g fill="None" fill-opacity="0.0" stroke="#0B547D" stroke-opacity="1.00" stroke-width="0.3"><path d="
M 1056.00 563.00 
C 1051.86 571.28 1046.36 578.58 1041.77 586.77 C 1037.18 594.97 1034.14 602.81 1028.77 610.77 C 1023.40 618.73 1019.24 625.01 1014.92 633.92 C 1010.61 642.84 1014.49 659.06 1013.00 669.00 C 1011.51 678.94 1016.41 695.70 1010.75 703.75 C 1005.10 711.80 998.33 715.98 994.25 724.25 C 990.17 732.51 981.63 736.94 978.25 745.25 C 974.86 753.56 964.30 757.57 961.00 765.00
C 960.90 765.97 961.00 767.02 961.00 768.00
C 961.00 774.46 961.06 780.50 961.00 787.00 C 960.94 793.50 961.14 800.47 961.00 807.00 C 960.86 813.53 961.32 820.54 961.00 827.00 C 960.68 833.46 961.71 840.74 961.00 847.00 C 960.29 853.26 962.58 861.21 961.00 867.00 C 959.42 872.79 964.01 880.25 963.00 883.00
C 971.50 872.39 981.66 863.12 990.08 852.08 C 998.51 841.04 1008.11 833.16 1016.70 821.70 C 1025.29 810.24 1038.82 805.83 1050.92 798.92 C 1063.03 792.02 1077.16 787.78 1088.77 779.77 C 1100.38 771.76 1098.40 751.14 1104.02 738.02 C 1109.65 724.91 1110.58 706.77 1116.07 693.07 C 1121.57 679.37 1119.41 661.41 1133.00 653.00
C 1129.60 650.10 1127.19 655.92 1124.00 657.00
C 1104.94 620.26 1088.34 581.38 1066.00 547.00
C 1064.08 552.95 1059.19 557.91 1056.00 563.00 Z"/>
</g>
<g fill="None" fill-opacity="0.0" stroke="#D7F1F6" stroke-opacity="1.00" stroke-width="0.3"><path d="
M 1154.00 640.00 
C 1158.91 641.27 1163.06 632.69 1164.65 627.69 C 1166.24 622.70 1167.52 614.12 1168.00 608.00
C 1176.11 599.74 1176.24 584.07 1178.00 573.00
C 1174.34 583.70 1171.49 597.91 1166.98 607.98 C 1162.46 618.04 1163.52 633.73 1154.00 640.00 Z"/>
</g>
<g fill="None" fill-opacity="0.0" stroke="#318AB7" stroke-opacity="1.00" stroke-width="0.3"><path d="
M 804.00 710.00 
C 815.63 713.19 824.18 720.52 835.92 724.08 C 847.67 727.63 848.36 742.12 852.69 752.31 C 857.03 762.49 861.29 774.14 865.22 784.78 C 869.15 795.41 871.87 806.20 881.00 814.00
C 878.91 811.91 876.86 809.23 875.00 807.00
C 902.27 791.60 933.74 784.31 961.00 768.00
C 961.00 767.02 960.90 765.97 961.00 765.00
C 962.46 751.06 963.57 728.57 954.25 718.75 C 944.93 708.93 930.18 706.59 925.00 694.00
C 919.62 696.49 909.47 691.57 902.08 688.92 C 894.68 686.28 885.50 684.02 878.08 680.92 C 870.65 677.83 859.78 677.29 858.33 668.67 C 856.88 660.05 854.13 651.51 851.99 643.01 C 849.86 634.51 848.90 624.94 846.00 617.00
C 842.31 622.54 839.03 629.01 836.32 635.32 C 833.61 641.63 830.43 648.25 827.31 654.31 C 824.18 660.36 821.67 667.86 818.78 673.78 C 815.88 679.69 811.17 686.37 809.31 692.31 C 807.44 698.24 801.25 706.00 804.00 710.00 Z"/>
</g>
<g fill="None" fill-opacity="0.0" stroke="#DFF6F9" stroke-opacity="1.00" stroke-width="0.3"><path d="
M 802.00 710.00 
C 796.89 707.50 786.28 703.87 784.00 699.00
C 782.53 704.05 787.48 703.77 788.00 708.00
C 793.10 707.56 797.02 709.31 802.00 710.00 Z"/>
</g>
<g fill="None" fill-opacity="0.0" stroke="#1C74A0" stroke-opacity="1.00" stroke-width="0.3"><path d="
M 881.00 814.00 
C 890.00 821.69 898.76 830.41 908.00 838.00
C 913.49 842.51 913.02 841.21 919.25 846.75 C 925.48 852.30 934.32 860.16 940.70 865.30 C 947.07 870.45 946.03 872.43 951.25 874.75 C 956.46 877.08 956.77 884.93 961.00 885.00
C 962.13 884.43 962.24 883.95 963.00 883.00
C 964.01 880.25 959.42 872.79 961.00 867.00 C 962.58 861.21 960.29 853.26 961.00 847.00 C 961.71 840.74 960.68 833.46 961.00 827.00 C 961.32 820.54 960.86 813.53 961.00 807.00 C 961.14 800.47 960.94 793.50 961.00 787.00 C 961.06 780.50 961.00 774.46 961.00 768.00
C 933.74 784.31 902.27 791.60 875.00 807.00
C 876.86 809.23 878.91 811.91 881.00 814.00 Z"/>
</g>
<g fill="None" fill-opacity="0.0" stroke="#D6EEF3" stroke-opacity="1.00" stroke-width="0.3"><path d="
M 961.00 885.00 
C 956.77 884.93 956.46 877.08 951.25 874.75 C 946.03 872.43 947.07 870.45 940.70 865.30 C 934.32 860.16 925.48 852.30 919.25 846.75 C 913.02 841.21 913.49 842.51 908.00 838.00
C 904.96 838.16 911.06 841.47 912.30 843.70 C 913.54 845.93 917.78 848.26 920.00 849.00
C 919.51 857.48 930.65 855.70 934.25 862.75 C 937.85 869.80 945.34 870.89 950.00 877.00
C 948.66 879.67 946.22 877.85 944.00 878.00
C 945.27 881.50 949.58 879.58 952.00 879.00
C 952.36 882.16 955.00 885.52 952.00 888.00
C 955.22 885.61 957.95 886.53 961.00 885.00 Z"/>
</g>
<g fill="#FEFEFE" fill-opacity="1.00" stroke="None">
<path d="
M 0.00 1047.00 
L 1920.00 1047.00
L 1920.00 0.00
L 0.00 0.00
L 0.00 1047.00
M 984.00 184.00 
C 985.01 184.61 985.35 184.22 987.00 184.00
C 987.80 190.17 994.64 195.75 999.75 201.25 C 1004.87 206.74 1010.27 213.06 1015.30 218.70 C 1020.33 224.33 1024.66 229.97 1031.70 234.30 C 1038.73 238.63 1054.12 233.72 1062.00 237.00 C 1069.88 240.28 1084.18 237.30 1088.00 244.00
C 1093.81 256.71 1096.54 271.36 1101.93 284.07 C 1107.32 296.79 1110.58 312.10 1116.98 324.03 C 1123.37 335.95 1123.40 353.09 1132.25 362.75 C 1141.10 372.41 1159.94 370.90 1165.32 384.68 C 1170.70 398.46 1177.51 408.02 1184.00 421.00
C 1185.73 423.54 1189.60 431.59 1192.00 428.00
C 1190.75 441.12 1207.66 450.65 1207.00 464.00
C 1219.95 463.45 1210.66 474.78 1209.07 482.07 C 1207.48 489.37 1205.50 500.38 1200.00 506.00
C 1199.46 507.66 1198.62 510.08 1198.00 512.00
C 1197.47 519.45 1194.65 525.44 1193.00 533.00 C 1191.35 540.57 1188.76 546.59 1185.00 553.00
C 1183.08 559.70 1180.27 566.37 1178.00 573.00
C 1176.24 584.07 1176.11 599.74 1168.00 608.00
C 1167.52 614.12 1166.24 622.70 1164.65 627.69 C 1163.06 632.69 1158.91 641.27 1154.00 640.00
C 1147.34 644.39 1139.95 648.70 1133.00 653.00
C 1119.41 661.41 1121.57 679.37 1116.07 693.07 C 1110.58 706.77 1109.65 724.91 1104.02 738.02 C 1098.40 751.14 1100.38 771.76 1088.77 779.77 C 1077.16 787.78 1063.03 792.02 1050.92 798.92 C 1038.82 805.83 1025.29 810.24 1016.70 821.70 C 1008.11 833.16 998.51 841.04 990.08 852.08 C 981.66 863.12 971.50 872.39 963.00 883.00
C 962.24 883.95 962.13 884.43 961.00 885.00
C 957.95 886.53 955.22 885.61 952.00 888.00
C 955.00 885.52 952.36 882.16 952.00 879.00
C 949.58 879.58 945.27 881.50 944.00 878.00
C 946.22 877.85 948.66 879.67 950.00 877.00
C 945.34 870.89 937.85 869.80 934.25 862.75 C 930.65 855.70 919.51 857.48 920.00 849.00
C 917.78 848.26 913.54 845.93 912.30 843.70 C 911.06 841.47 904.96 838.16 908.00 838.00
C 898.76 830.41 890.00 821.69 881.00 814.00
C 871.87 806.20 869.15 795.41 865.22 784.78 C 861.29 774.14 857.03 762.49 852.69 752.31 C 848.36 742.12 847.67 727.63 835.92 724.08 C 824.18 720.52 815.63 713.19 804.00 710.00
C 803.54 709.87 802.49 710.07 802.00 710.00
C 797.02 709.31 793.10 707.56 788.00 708.00
C 787.48 703.77 782.53 704.05 784.00 699.00
C 771.33 653.58 752.73 610.22 739.00 565.00
C 733.51 552.86 729.45 544.19 727.00 531.00
C 725.78 524.45 722.93 518.37 721.00 512.00
C 716.80 502.71 708.19 492.63 710.00 481.00
C 705.89 487.40 709.06 479.59 706.67 476.33 C 704.29 473.06 703.82 468.68 704.00 465.00
C 708.85 462.85 714.74 464.54 720.00 464.00
C 723.14 453.76 728.10 444.43 732.31 434.31 C 736.51 424.18 741.33 415.33 744.78 404.78 C 748.23 394.22 754.85 385.42 757.33 374.33 C 759.80 363.23 768.03 358.50 768.66 346.32 C 769.29 334.15 788.30 339.56 796.00 332.00
C 806.54 334.28 815.27 328.47 826.02 328.02 C 836.77 327.58 840.15 318.28 843.93 309.93 C 847.70 301.57 851.95 293.15 855.11 285.11 C 858.27 277.07 863.43 268.94 866.92 260.92 C 870.42 252.90 874.44 244.41 881.75 238.75 C 889.06 233.10 894.38 227.65 901.25 222.25 C 908.11 216.84 913.79 211.04 920.23 205.23 C 926.67 199.42 932.82 194.34 938.92 187.92 C 945.02 181.50 952.36 178.91 958.25 171.25 C 964.14 163.59 976.36 163.41 976.00 176.00
C 979.97 176.66 981.88 181.10 984.00 184.00 Z"/>
</g>
<g fill="#D3EFFB" fill-opacity="1.00" stroke="None">
<path d="
M 721.00 512.00 
C 716.24 496.32 709.88 480.97 706.00 465.00
C 746.67 465.00 787.33 465.00 828.00 465.00
C 835.46 462.86 836.93 446.93 842.92 440.92 C 848.91 434.91 851.92 423.36 857.25 416.25 C 862.58 409.15 865.58 396.24 877.01 396.01 C 888.44 395.77 901.47 393.48 912.22 392.22 C 922.97 390.96 933.83 389.74 938.92 379.92 C 944.01 370.10 948.28 364.19 954.25 355.25 C 960.22 346.31 961.60 339.36 969.30 331.30 C 977.00 323.25 977.04 313.45 971.08 304.92 C 965.13 296.39 961.83 288.91 956.68 280.32 C 951.53 271.74 945.71 265.06 942.25 255.75 C 938.78 246.45 946.91 234.89 949.92 225.92 C 952.94 216.95 953.89 203.54 957.93 194.93 C 961.96 186.32 960.50 171.69 971.00 170.00
C 974.02 175.10 979.77 181.45 984.00 184.00
C 981.88 181.10 979.97 176.66 976.00 176.00
C 976.36 163.41 964.14 163.59 958.25 171.25 C 952.36 178.91 945.02 181.50 938.92 187.92 C 932.82 194.34 926.67 199.42 920.23 205.23 C 913.79 211.04 908.11 216.84 901.25 222.25 C 894.38 227.65 889.06 233.10 881.75 238.75 C 874.44 244.41 870.42 252.90 866.92 260.92 C 863.43 268.94 858.27 277.07 855.11 285.11 C 851.95 293.15 847.70 301.57 843.93 309.93 C 840.15 318.28 836.77 327.58 826.02 328.02 C 815.27 328.47 806.54 334.28 796.00 332.00
C 788.30 339.56 769.29 334.15 768.66 346.32 C 768.03 358.50 759.80 363.23 757.33 374.33 C 754.85 385.42 748.23 394.22 744.78 404.78 C 741.33 415.33 736.51 424.18 732.31 434.31 C 728.10 444.43 723.14 453.76 720.00 464.00
C 714.74 464.54 708.85 462.85 704.00 465.00
C 703.82 468.68 704.29 473.06 706.67 476.33 C 709.06 479.59 705.89 487.40 710.00 481.00
C 708.19 492.63 716.80 502.71 721.00 512.00 Z"/>
</g>
<g fill="#AFDDF4" fill-opacity="1.00" stroke="None">
<path d="
M 828.00 465.00 
C 872.34 465.00 916.67 465.00 961.00 465.00
C 1004.34 465.00 1047.66 465.00 1091.00 465.00
C 1090.28 458.73 1087.00 451.84 1084.07 445.93 C 1081.15 440.01 1078.60 433.13 1076.07 426.93 C 1073.55 420.73 1070.38 415.19 1068.07 408.93 C 1065.77 402.66 1062.29 396.48 1059.69 390.31 C 1057.10 384.13 1052.94 376.25 1055.00 369.00 C 1057.06 361.75 1058.63 354.84 1060.93 347.93 C 1063.22 341.01 1064.30 333.94 1065.93 326.93 C 1067.56 319.91 1069.81 311.80 1071.00 305.00 C 1072.19 298.19 1075.19 290.51 1076.33 284.33 C 1077.46 278.15 1080.91 267.85 1081.93 262.93 C 1082.94 258.00 1086.42 242.91 1088.00 244.00
C 1084.18 237.30 1069.88 240.28 1062.00 237.00 C 1054.12 233.72 1038.73 238.63 1031.70 234.30 C 1024.66 229.97 1020.33 224.33 1015.30 218.70 C 1010.27 213.06 1004.87 206.74 999.75 201.25 C 994.64 195.75 987.80 190.17 987.00 184.00
C 985.35 184.22 985.01 184.61 984.00 184.00
C 979.77 181.45 974.02 175.10 971.00 170.00
C 960.50 171.69 961.96 186.32 957.93 194.93 C 953.89 203.54 952.94 216.95 949.92 225.92 C 946.91 234.89 938.78 246.45 942.25 255.75 C 945.71 265.06 951.53 271.74 956.68 280.32 C 961.83 288.91 965.13 296.39 971.08 304.92 C 977.04 313.45 977.00 323.25 969.30 331.30 C 961.60 339.36 960.22 346.31 954.25 355.25 C 948.28 364.19 944.01 370.10 938.92 379.92 C 933.83 389.74 922.97 390.96 912.22 392.22 C 901.47 393.48 888.44 395.77 877.01 396.01 C 865.58 396.24 862.58 409.15 857.25 416.25 C 851.92 423.36 848.91 434.91 842.92 440.92 C 836.93 446.93 835.46 462.86 828.00 465.00 Z"/>
</g>
<g fill="#89C5E4" fill-opacity="1.00" stroke="None">
<path d="
M 1091.00 465.00 
C 1091.50 465.00 1092.00 465.00 1092.00 465.00
C 1111.00 465.00 1130.00 464.12 1149.00 465.00 C 1168.00 465.88 1188.11 462.72 1207.00 465.00
C 1200.71 460.60 1200.51 449.27 1195.70 443.30 C 1190.88 437.34 1187.48 427.95 1184.00 421.00
C 1177.51 408.02 1170.70 398.46 1165.32 384.68 C 1159.94 370.90 1141.10 372.41 1132.25 362.75 C 1123.40 353.09 1123.37 335.95 1116.98 324.03 C 1110.58 312.10 1107.32 296.79 1101.93 284.07 C 1096.54 271.36 1093.81 256.71 1088.00 244.00
C 1086.42 242.91 1082.94 258.00 1081.93 262.93 C 1080.91 267.85 1077.46 278.15 1076.33 284.33 C 1075.19 290.51 1072.19 298.19 1071.00 305.00 C 1069.81 311.80 1067.56 319.91 1065.93 326.93 C 1064.30 333.94 1063.22 341.01 1060.93 347.93 C 1058.63 354.84 1057.06 361.75 1055.00 369.00 C 1052.94 376.25 1057.10 384.13 1059.69 390.31 C 1062.29 396.48 1065.77 402.66 1068.07 408.93 C 1070.38 415.19 1073.55 420.73 1076.07 426.93 C 1078.60 433.13 1081.15 440.01 1084.07 445.93 C 1087.00 451.84 1090.28 458.73 1091.00 465.00 Z"/>
</g>
<g fill="#DCF2F7" fill-opacity="1.00" stroke="None">
<path d="
M 1207.00 465.00 
C 1208.64 465.20 1210.35 464.85 1212.00 465.00
C 1209.35 479.01 1202.93 492.02 1200.00 506.00
C 1205.50 500.38 1207.48 489.37 1209.07 482.07 C 1210.66 474.78 1219.95 463.45 1207.00 464.00
C 1207.66 450.65 1190.75 441.12 1192.00 428.00
C 1189.60 431.59 1185.73 423.54 1184.00 421.00
C 1187.48 427.95 1190.88 437.34 1195.70 443.30 C 1200.51 449.27 1200.71 460.60 1207.00 465.00 Z"/>
</g>
<g fill="#5CADD5" fill-opacity="1.00" stroke="None">
<path d="
M 721.00 512.00 
C 722.93 518.37 725.78 524.45 727.00 531.00
C 730.97 542.04 735.52 553.52 739.00 565.00
C 752.73 610.22 771.33 653.58 784.00 699.00
C 786.28 703.87 796.89 707.50 802.00 710.00
C 802.49 710.07 803.54 709.87 804.00 710.00
C 801.25 706.00 807.44 698.24 809.31 692.31 C 811.17 686.37 815.88 679.69 818.78 673.78 C 821.67 667.86 824.18 660.36 827.31 654.31 C 830.43 648.25 833.61 641.63 836.32 635.32 C 839.03 629.01 842.31 622.54 846.00 617.00
C 848.90 624.94 849.86 634.51 851.99 643.01 C 854.13 651.51 856.88 660.05 858.33 668.67 C 859.78 677.29 870.65 677.83 878.08 680.92 C 885.50 684.02 894.68 686.28 902.08 688.92 C 909.47 691.57 919.62 696.49 925.00 694.00
C 920.56 683.22 920.59 669.95 917.22 658.78 C 913.86 647.61 912.45 633.44 909.67 622.33 C 906.90 611.21 901.02 597.86 909.75 589.75 C 918.49 581.65 921.72 574.96 931.25 567.25 C 940.78 559.54 941.68 552.09 952.25 544.25 C 962.81 536.40 961.66 522.36 961.00 509.00 C 960.34 495.64 961.50 478.69 961.00 465.00
C 916.67 465.00 872.34 465.00 828.00 465.00
C 787.33 465.00 746.67 465.00 706.00 465.00
C 709.88 480.97 716.24 496.32 721.00 512.00 Z"/>
</g>
<g fill="#1C76A3" fill-opacity="1.00" stroke="None">
<path d="
M 925.00 694.00 
C 930.18 706.59 944.93 708.93 954.25 718.75 C 963.57 728.57 962.46 751.06 961.00 765.00
C 964.30 757.57 974.86 753.56 978.25 745.25 C 981.63 736.94 990.17 732.51 994.25 724.25 C 998.33 715.98 1005.10 711.80 1010.75 703.75 C 1016.41 695.70 1011.51 678.94 1013.00 669.00 C 1014.49 659.06 1010.61 642.84 1014.92 633.92 C 1019.24 625.01 1023.40 618.73 1028.77 610.77 C 1034.14 602.81 1037.18 594.97 1041.77 586.77 C 1046.36 578.58 1051.86 571.28 1056.00 563.00
C 1063.69 547.63 1073.40 532.32 1075.93 514.93 C 1078.45 497.53 1091.20 482.02 1092.00 465.00
C 1092.00 465.00 1091.50 465.00 1091.00 465.00
C 1047.66 465.00 1004.34 465.00 961.00 465.00
C 961.50 478.69 960.34 495.64 961.00 509.00 C 961.66 522.36 962.81 536.40 952.25 544.25 C 941.68 552.09 940.78 559.54 931.25 567.25 C 921.72 574.96 918.49 581.65 909.75 589.75 C 901.02 597.86 906.90 611.21 909.67 622.33 C 912.45 633.44 913.86 647.61 917.22 658.78 C 920.59 669.95 920.56 683.22 925.00 694.00 Z"/>
</g>
<g fill="#15668D" fill-opacity="1.00" stroke="None">
<path d="
M 1056.00 563.00 
C 1059.19 557.91 1064.08 552.95 1066.00 547.00
C 1088.34 581.38 1104.94 620.26 1124.00 657.00
C 1127.19 655.92 1129.60 650.10 1133.00 653.00
C 1139.95 648.70 1147.34 644.39 1154.00 640.00
C 1163.52 633.73 1162.46 618.04 1166.98 607.98 C 1171.49 597.91 1174.34 583.70 1178.00 573.00
C 1180.27 566.37 1183.08 559.70 1185.00 553.00
C 1188.94 539.28 1193.68 525.31 1198.00 512.00
C 1198.62 510.08 1199.46 507.66 1200.00 506.00
C 1202.93 492.02 1209.35 479.01 1212.00 465.00
C 1210.35 464.85 1208.64 465.20 1207.00 465.00
C 1188.11 462.72 1168.00 465.88 1149.00 465.00 C 1130.00 464.12 1111.00 465.00 1092.00 465.00
C 1091.20 482.02 1078.45 497.53 1075.93 514.93 C 1073.40 532.32 1063.69 547.63 1056.00 563.00 Z"/>
</g>
<g fill="#D2ECF2" fill-opacity="1.00" stroke="None">
<path d="
M 1185.00 553.00 
C 1188.76 546.59 1191.35 540.57 1193.00 533.00 C 1194.65 525.44 1197.47 519.45 1198.00 512.00
C 1193.68 525.31 1188.94 539.28 1185.00 553.00 Z"/>
</g>
<g fill="#DCF5F9" fill-opacity="1.00" stroke="None">
<path d="
M 739.00 565.00 
C 735.52 553.52 730.97 542.04 727.00 531.00
C 729.45 544.19 733.51 552.86 739.00 565.00 Z"/>
</g>
<g fill="#0B547D" fill-opacity="1.00" stroke="None">
<path d="
M 1056.00 563.00 
C 1051.86 571.28 1046.36 578.58 1041.77 586.77 C 1037.18 594.97 1034.14 602.81 1028.77 610.77 C 1023.40 618.73 1019.24 625.01 1014.92 633.92 C 1010.61 642.84 1014.49 659.06 1013.00 669.00 C 1011.51 678.94 1016.41 695.70 1010.75 703.75 C 1005.10 711.80 998.33 715.98 994.25 724.25 C 990.17 732.51 981.63 736.94 978.25 745.25 C 974.86 753.56 964.30 757.57 961.00 765.00
C 960.90 765.97 961.00 767.02 961.00 768.00
C 961.00 774.46 961.06 780.50 961.00 787.00 C 960.94 793.50 961.14 800.47 961.00 807.00 C 960.86 813.53 961.32 820.54 961.00 827.00 C 960.68 833.46 961.71 840.74 961.00 847.00 C 960.29 853.26 962.58 861.21 961.00 867.00 C 959.42 872.79 964.01 880.25 963.00 883.00
C 971.50 872.39 981.66 863.12 990.08 852.08 C 998.51 841.04 1008.11 833.16 1016.70 821.70 C 1025.29 810.24 1038.82 805.83 1050.92 798.92 C 1063.03 792.02 1077.16 787.78 1088.77 779.77 C 1100.38 771.76 1098.40 751.14 1104.02 738.02 C 1109.65 724.91 1110.58 706.77 1116.07 693.07 C 1121.57 679.37 1119.41 661.41 1133.00 653.00
C 1129.60 650.10 1127.19 655.92 1124.00 657.00
C 1104.94 620.26 1088.34 581.38 1066.00 547.00
C 1064.08 552.95 1059.19 557.91 1056.00 563.00 Z"/>
</g>
<g fill="#D7F1F6" fill-opacity="1.00" stroke="None">
<path d="
M 1154.00 640.00 
C 1158.91 641.27 1163.06 632.69 1164.65 627.69 C 1166.24 622.70 1167.52 614.12 1168.00 608.00
C 1176.11 599.74 1176.24 584.07 1178.00 573.00
C 1174.34 583.70 1171.49 597.91 1166.98 607.98 C 1162.46 618.04 1163.52 633.73 1154.00 640.00 Z"/>
</g>
<g fill="#318AB7" fill-opacity="1.00" stroke="None">
<path d="
M 804.00 710.00 
C 815.63 713.19 824.18 720.52 835.92 724.08 C 847.67 727.63 848.36 742.12 852.69 752.31 C 857.03 762.49 861.29 774.14 865.22 784.78 C 869.15 795.41 871.87 806.20 881.00 814.00
C 878.91 811.91 876.86 809.23 875.00 807.00
C 902.27 791.60 933.74 784.31 961.00 768.00
C 961.00 767.02 960.90 765.97 961.00 765.00
C 962.46 751.06 963.57 728.57 954.25 718.75 C 944.93 708.93 930.18 706.59 925.00 694.00
C 919.62 696.49 909.47 691.57 902.08 688.92 C 894.68 686.28 885.50 684.02 878.08 680.92 C 870.65 677.83 859.78 677.29 858.33 668.67 C 856.88 660.05 854.13 651.51 851.99 643.01 C 849.86 634.51 848.90 624.94 846.00 617.00
C 842.31 622.54 839.03 629.01 836.32 635.32 C 833.61 641.63 830.43 648.25 827.31 654.31 C 824.18 660.36 821.67 667.86 818.78 673.78 C 815.88 679.69 811.17 686.37 809.31 692.31 C 807.44 698.24 801.25 706.00 804.00 710.00 Z"/>
</g>
<g fill="#DFF6F9" fill-opacity="1.00" stroke="None">
<path d="
M 802.00 710.00 
C 796.89 707.50 786.28 703.87 784.00 699.00
C 782.53 704.05 787.48 703.77 788.00 708.00
C 793.10 707.56 797.02 709.31 802.00 710.00 Z"/>
</g>
<g fill="#1C74A0" fill-opacity="1.00" stroke="None">
<path d="
M 881.00 814.00 
C 890.00 821.69 898.76 830.41 908.00 838.00
C 913.49 842.51 913.02 841.21 919.25 846.75 C 925.48 852.30 934.32 860.16 940.70 865.30 C 947.07 870.45 946.03 872.43 951.25 874.75 C 956.46 877.08 956.77 884.93 961.00 885.00
C 962.13 884.43 962.24 883.95 963.00 883.00
C 964.01 880.25 959.42 872.79 961.00 867.00 C 962.58 861.21 960.29 853.26 961.00 847.00 C 961.71 840.74 960.68 833.46 961.00 827.00 C 961.32 820.54 960.86 813.53 961.00 807.00 C 961.14 800.47 960.94 793.50 961.00 787.00 C 961.06 780.50 961.00 774.46 961.00 768.00
C 933.74 784.31 902.27 791.60 875.00 807.00
C 876.86 809.23 878.91 811.91 881.00 814.00 Z"/>
</g>
<g fill="#D6EEF3" fill-opacity="1.00" stroke="None">
<path d="
M 961.00 885.00 
C 956.77 884.93 956.46 877.08 951.25 874.75 C 946.03 872.43 947.07 870.45 940.70 865.30 C 934.32 860.16 925.48 852.30 919.25 846.75 C 913.02 841.21 913.49 842.51 908.00 838.00
C 904.96 838.16 911.06 841.47 912.30 843.70 C 913.54 845.93 917.78 848.26 920.00 849.00
C 919.51 857.48 930.65 855.70 934.25 862.75 C 937.85 869.80 945.34 870.89 950.00 877.00
C 948.66 879.67 946.22 877.85 944.00 878.00
C 945.27 881.50 949.58 879.58 952.00 879.00
C 952.36 882.16 955.00 885.52 952.00 888.00
C 955.22 885.61 957.95 886.53 961.00 885.00 Z"/>
</g>
</svg>