<?xml version="1.0" ?>
<!DOCTYPE svg  PUBLIC '-//W3C//DTD SVG 1.1//EN'  'http://www.w3.org/Graphics/SVG/1.1/DTD/svg11.dtd'>
<!-- Uploaded to: SVG Repo, www.svgrepo.com, Generator: SVG Repo Mixer Tools -->
<svg fill="#000000" width="800px" height="800px" viewBox="0 0 846.66 846.66" style="shape-rendering:geometricPrecision; text-rendering:geometricPrecision; image-rendering:optimizeQuality; fill-rule:evenodd; clip-rule:evenodd" version="1.1" xml:space="preserve" xmlns="http://www.w3.org/2000/svg" xmlns:xlink="http://www.w3.org/1999/xlink">
<defs>
<style type="text/css">
   <![CDATA[
    .fil0 {fill:black;fill-rule:nonzero}
   ]]>
  </style>
</defs>
<g id="Layer_x0020_1">
<path class="fil0" d="M347.91 244.01l0 -95.47c0,-30.1 24.55,-54.64 54.64,-54.64l379.58 0c30.1,0 54.64,24.54 54.64,54.64l0 207.73c0,30.1 -24.54,54.64 -54.64,54.64l-30.34 0 0 177.64c0,19.99 -25.54,28.08 -37.25,12.28l-160.98 -189.92 -68.36 0c-3.25,45.58 -30.17,86.2 -72.07,115.71 -41.48,29.21 -98,47.58 -160.24,48.55l-148.42 170.44c-14.6,16.77 -41.73,1.48 -35.32,-19.57l41.18 -182.57c-27.89,-14.35 -51.32,-32.95 -68.43,-54.5 -20.39,-25.68 -32.01,-55.47 -32.01,-87.37 0,-49.35 27.67,-93.52 72.4,-125.03 73.89,-52.04 180.74,-61.2 265.62,-32.56zm162.29 -13.45c-27.17,0 -27.17,-41.3 0,-41.3l164.29 0c27.16,0 27.16,41.3 0,41.3l-164.29 0zm0 71.77c-27.17,0 -27.17,-41.31 0,-41.31l164.29 0c27.16,0 27.16,41.31 0,41.31l-164.29 0zm-120.99 -40.5c8.43,4.54 16.42,9.46 23.92,14.74 34.81,24.52 59.29,56.71 68.43,93.04l81.51 0.05c5.85,0 11.66,2.48 15.73,7.29l131.69 155.36 0 -142.05c0,-11.4 9.25,-20.65 20.65,-20.65l50.99 0c7.29,0 13.34,-6.05 13.34,-13.34l0 -207.73c0,-7.29 -6.05,-13.34 -13.34,-13.34l-379.58 0c-7.29,0 -13.34,6.05 -13.34,13.34l0 113.29zm-283.21 48.46c-33.86,23.86 -54.81,56.18 -54.81,91.31 0,22.22 8.34,43.28 22.97,61.71 15.92,20.06 39.08,37.06 67.1,49.35 9.49,3.55 15.15,13.64 12.86,23.81l-27.17 120.45 100.58 -115.5c3.94,-4.79 9.79,-7.47 15.98,-7.47 51.27,0 103.38,-11.1 145.9,-41.05 33.87,-23.85 54.82,-56.18 54.82,-91.3 0,-38.24 -24.51,-69.96 -54.82,-91.31 -78.54,-55.31 -206.69,-54.03 -283.41,0z"/>
</g>
</svg>